GenR102.ufo
<glyph name="exclam" format="1">
  <advance width="557"/>
  <unicode hex="0021"/>
  <outline>
    <contour>
      <point x="391" y="123" type="qcurve" smooth="yes"/>
      <point x="391" y="88"/>
      <point x="370" y="29"/>
      <point x="333" y="-15"/>
      <point x="283" y="-40"/>
      <point x="254" y="-40" type="qcurve" smooth="yes"/>
      <point x="201" y="-40"/>
      <point x="154" y="18"/>
      <point x="154" y="72" type="qcurve" smooth="yes"/>
      <point x="154" y="106"/>
      <point x="176" y="165"/>
      <point x="214" y="210"/>
      <point x="264" y="236"/>
      <point x="293" y="236" type="qcurve" smooth="yes"/>
      <point x="344" y="236"/>
      <point x="391" y="177"/>
    </contour>
    <contour>
      <point x="326" y="389" type="line"/>
      <point x="307" y="375"/>
      <point x="277" y="358"/>
      <point x="252" y="350" type="qcurve"/>
      <point x="223" y="371" type="line"/>
      <point x="176" y="1398" type="line"/>
      <point x="214" y="1423"/>
      <point x="298" y="1466"/>
      <point x="332" y="1480" type="qcurve"/>
      <point x="375" y="1455" type="line"/>
    </contour>
  </outline>
</glyph>
<glyph name="dollar" format="1">
  <advance width="961"/>
  <unicode hex="0024"/>
  <outline>
    <contour>
      <point x="225" y="958" type="qcurve" smooth="yes"/>
      <point x="225" y="920"/>
      <point x="257" y="863"/>
      <point x="313" y="817"/>
      <point x="389" y="780"/>
      <point x="432" y="763" type="qcurve"/>
      <point x="432" y="1115" type="line"/>
      <point x="374" y="1113"/>
      <point x="295" y="1084"/>
      <point x="246" y="1040"/>
      <point x="225" y="985"/>
    </contour>
    <contour>
      <point x="727" y="324" type="qcurve" smooth="yes"/>
      <point x="727" y="371"/>
      <point x="695" y="443"/>
      <point x="639" y="498"/>
      <point x="564" y="540"/>
      <point x="522" y="558" type="qcurve"/>
      <point x="522" y="113" type="line"/>
      <point x="562" y="118"/>
      <point x="636" y="153"/>
      <point x="693" y="208"/>
      <point x="727" y="281"/>
    </contour>
    <contour>
      <point x="522" y="-143" type="line"/>
      <point x="513" y="-151"/>
      <point x="500" y="-160"/>
      <point x="487" y="-166"/>
      <point x="471" y="-171"/>
      <point x="459" y="-174" type="qcurve"/>
      <point x="432" y="-152" type="line"/>
      <point x="432" y="-9" type="line"/>
      <point x="427" y="-9"/>
      <point x="417" y="-10"/>
      <point x="412" y="-10" type="qcurve" smooth="yes"/>
      <point x="342" y="-10"/>
      <point x="193" y="39"/>
      <point x="102" y="96" type="qcurve" smooth="yes"/>
      <point x="95" y="101"/>
      <point x="88" y="158"/>
      <point x="88" y="195" type="qcurve" smooth="yes"/>
      <point x="88" y="233"/>
      <point x="94" y="312"/>
      <point x="102" y="340" type="qcurve"/>
      <point x="145" y="336" type="line"/>
      <point x="193" y="233"/>
      <point x="341" y="126"/>
      <point x="432" y="114" type="qcurve"/>
      <point x="432" y="593" type="line"/>
      <point x="370" y="616"/>
      <point x="251" y="666"/>
      <point x="156" y="737"/>
      <point x="98" y="837"/>
      <point x="98" y="911" type="qcurve" smooth="yes"/>
      <point x="98" y="953"/>
      <point x="131" y="1050"/>
      <point x="209" y="1135"/>
      <point x="337" y="1199"/>
      <point x="432" y="1210" type="qcurve"/>
      <point x="432" y="1356" type="line"/>
      <point x="446" y="1364"/>
      <point x="458" y="1372"/>
      <point x="468" y="1377"/>
      <point x="481" y="1380"/>
      <point x="496" y="1384" type="qcurve"/>
      <point x="522" y="1362" type="line"/>
      <point x="522" y="1214" type="line"/>
      <point x="568" y="1213"/>
      <point x="655" y="1200"/>
      <point x="731" y="1176"/>
      <point x="791" y="1143"/>
      <point x="811" y="1124" type="qcurve" smooth="yes"/>
      <point x="817" y="1117"/>
      <point x="802" y="1080"/>
      <point x="774" y="1037"/>
      <point x="740" y="995"/>
      <point x="727" y="983" type="qcurve"/>
      <point x="688" y="991" type="line"/>
      <point x="648" y="1037"/>
      <point x="564" y="1093"/>
      <point x="522" y="1105" type="qcurve"/>
      <point x="522" y="728" type="line"/>
      <point x="584" y="704"/>
      <point x="706" y="648"/>
      <point x="802" y="567"/>
      <point x="862" y="456"/>
      <point x="862" y="377" type="qcurve" smooth="yes"/>
      <point x="862" y="318"/>
      <point x="823" y="198"/>
      <point x="740" y="94"/>
      <point x="611" y="16"/>
      <point x="522" y="0" type="qcurve"/>
      <point x="522" y="-143" type="line"/>
    </contour>
  </outline>
</glyph>
<glyph name="percent" format="1">
  <advance width="1413"/>
  <unicode hex="0025"/>
  <outline>
    <contour>
      <point x="1194" y="289" type="qcurve" smooth="yes"/>
      <point x="1194" y="359"/>
      <point x="1169" y="463"/>
      <point x="1127" y="532"/>
      <point x="1073" y="565"/>
      <point x="1044" y="565" type="qcurve" smooth="yes"/>
      <point x="1022" y="565"/>
      <point x="979" y="536"/>
      <point x="945" y="478"/>
      <point x="924" y="391"/>
      <point x="924" y="332" type="qcurve" smooth="yes"/>
      <point x="924" y="260"/>
      <point x="946" y="154"/>
      <point x="985" y="85"/>
      <point x="1039" y="51"/>
      <point x="1071" y="51" type="qcurve" smooth="yes"/>
      <point x="1096" y="51"/>
      <point x="1140" y="81"/>
      <point x="1174" y="141"/>
      <point x="1194" y="230"/>
    </contour>
    <contour>
      <point x="492" y="877" type="qcurve" smooth="yes"/>
      <point x="492" y="948"/>
      <point x="467" y="1052"/>
      <point x="425" y="1120"/>
      <point x="371" y="1153"/>
      <point x="342" y="1153" type="qcurve" smooth="yes"/>
      <point x="320" y="1153"/>
      <point x="277" y="1124"/>
      <point x="242" y="1066"/>
      <point x="221" y="979"/>
      <point x="221" y="920" type="qcurve" smooth="yes"/>
      <point x="221" y="848"/>
      <point x="243" y="742"/>
      <point x="282" y="673"/>
      <point x="337" y="639"/>
      <point x="369" y="639" type="qcurve" smooth="yes"/>
      <point x="393" y="639"/>
      <point x="438" y="669"/>
      <point x="472" y="729"/>
      <point x="492" y="818"/>
    </contour>
    <contour>
      <point x="358" y="17" type="line" smooth="yes"/>
      <point x="349" y="10"/>
      <point x="314" y="-5"/>
      <point x="274" y="-18"/>
      <point x="235" y="-30"/>
      <point x="223" y="-34" type="qcurve"/>
      <point x="199" y="1" type="line"/>
      <point x="1055" y="1188" type="line"/>
      <point x="1083" y="1205"/>
      <point x="1157" y="1229"/>
      <point x="1188" y="1237" type="qcurve"/>
      <point x="1217" y="1204" type="line"/>
    </contour>
    <contour>
      <point x="1337" y="309" type="qcurve" smooth="yes"/>
      <point x="1337" y="240"/>
      <point x="1289" y="117"/>
      <point x="1209" y="24"/>
      <point x="1102" y="-30"/>
      <point x="1044" y="-30" type="qcurve" smooth="yes"/>
      <point x="986" y="-30"/>
      <point x="888" y="24"/>
      <point x="818" y="117"/>
      <point x="778" y="240"/>
      <point x="778" y="309" type="qcurve" smooth="yes"/>
      <point x="778" y="378"/>
      <point x="827" y="501"/>
      <point x="908" y="593"/>
      <point x="1014" y="646"/>
      <point x="1071" y="646" type="qcurve" smooth="yes"/>
      <point x="1131" y="646"/>
      <point x="1229" y="593"/>
      <point x="1299" y="502"/>
      <point x="1337" y="379"/>
    </contour>
    <contour>
      <point x="637" y="897" type="qcurve" smooth="yes"/>
      <point x="637" y="828"/>
      <point x="589" y="705"/>
      <point x="508" y="612"/>
      <point x="401" y="558"/>
      <point x="342" y="558" type="qcurve" smooth="yes"/>
      <point x="283" y="558"/>
      <point x="186" y="612"/>
      <point x="115" y="705"/>
      <point x="76" y="828"/>
      <point x="76" y="897" type="qcurve" smooth="yes"/>
      <point x="76" y="966"/>
      <point x="124" y="1089"/>
      <point x="205" y="1180"/>
      <point x="311" y="1234"/>
      <point x="369" y="1234" type="qcurve" smooth="yes"/>
      <point x="429" y="1234"/>
      <point x="527" y="1181"/>
      <point x="598" y="1089"/>
      <point x="637" y="967"/>
    </contour>
  </outline>
</glyph>
<glyph name="quotesingle" format="1">
  <advance width="512"/>
  <unicode hex="0027"/>
  <outline>
    <contour>
      <point x="309" y="834" type="line"/>
      <point x="301" y="830"/>
      <point x="278" y="822"/>
      <point x="252" y="816"/>
      <point x="225" y="813"/>
      <point x="213" y="813" type="qcurve"/>
      <point x="160" y="1426" type="line"/>
      <point x="171" y="1432"/>
      <point x="213" y="1449"/>
      <point x="258" y="1465"/>
      <point x="298" y="1478"/>
      <point x="309" y="1480" type="qcurve"/>
      <point x="352" y="1459" type="line"/>
    </contour>
  </outline>
</glyph>
<glyph name="parenleft" format="1">
  <advance width="649"/>
  <unicode hex="0028"/>
  <outline>
    <contour>
      <point x="578" y="-315" type="line"/>
      <point x="465" y="-263"/>
      <point x="294" y="-76"/>
      <point x="179" y="170"/>
      <point x="121" y="464"/>
      <point x="121" y="623" type="qcurve" smooth="yes"/>
      <point x="121" y="787"/>
      <point x="186" y="1093"/>
      <point x="306" y="1351"/>
      <point x="475" y="1546"/>
      <point x="578" y="1600" type="qcurve"/>
      <point x="610" y="1555" type="line"/>
      <point x="545" y="1501"/>
      <point x="429" y="1325"/>
      <point x="342" y="1093"/>
      <point x="291" y="811"/>
      <point x="291" y="651" type="qcurve" smooth="yes"/>
      <point x="291" y="505"/>
      <point x="333" y="228"/>
      <point x="415" y="-13"/>
      <point x="533" y="-207"/>
      <point x="610" y="-270" type="qcurve"/>
    </contour>
  </outline>
</glyph>
<glyph name="plus" format="1">
  <advance width="840"/>
  <unicode hex="002B"/>
  <outline>
    <contour>
      <point x="477" y="236" type="line"/>
      <point x="457" y="226"/>
      <point x="409" y="210"/>
      <point x="387" y="205" type="qcurve"/>
      <point x="362" y="227" type="line"/>
      <point x="362" y="506" type="line"/>
      <point x="86" y="506" type="line"/>
      <point x="61" y="530" type="line"/>
      <point x="66" y="550"/>
      <point x="83" y="598"/>
      <point x="92" y="618" type="qcurve"/>
      <point x="362" y="618" type="line"/>
      <point x="362" y="891" type="line"/>
      <point x="381" y="897"/>
      <point x="431" y="915"/>
      <point x="453" y="920" type="qcurve"/>
      <point x="477" y="897" type="line"/>
      <point x="477" y="618" type="line"/>
      <point x="754" y="618" type="line"/>
      <point x="778" y="594" type="line"/>
      <point x="773" y="574"/>
      <point x="756" y="523"/>
      <point x="748" y="506" type="qcurve"/>
      <point x="477" y="506" type="line"/>
      <point x="477" y="236" type="line"/>
    </contour>
  </outline>
</glyph>
<glyph name="two" format="1">
  <advance width="961"/>
  <unicode hex="0032"/>
  <outline>
    <contour>
      <point x="821" y="0" type="line"/>
      <point x="127" y="0" type="line"/>
      <point x="98" y="74" type="line"/>
      <point x="217" y="212"/>
      <point x="394" y="424"/>
      <point x="520" y="587"/>
      <point x="602" y="710"/>
      <point x="650" y="807"/>
      <point x="668" y="886"/>
      <point x="668" y="924" type="qcurve" smooth="yes"/>
      <point x="668" y="970"/>
      <point x="646" y="1049"/>
      <point x="598" y="1108"/>
      <point x="521" y="1141"/>
      <point x="467" y="1141" type="qcurve" smooth="yes"/>
      <point x="426" y="1141"/>
      <point x="358" y="1103"/>
      <point x="308" y="1043"/>
      <point x="281" y="969"/>
      <point x="281" y="934" type="qcurve"/>
      <point x="264" y="925"/>
      <point x="237" y="909"/>
      <point x="208" y="896"/>
      <point x="175" y="887"/>
      <point x="152" y="885" type="qcurve"/>
      <point x="125" y="915" type="line"/>
      <point x="125" y="967"/>
      <point x="195" y="1080"/>
      <point x="311" y="1174"/>
      <point x="458" y="1235"/>
      <point x="535" y="1235" type="qcurve" smooth="yes"/>
      <point x="595" y="1235"/>
      <point x="700" y="1201"/>
      <point x="777" y="1132"/>
      <point x="821" y="1025"/>
      <point x="821" y="952" type="qcurve" smooth="yes"/>
      <point x="821" y="908"/>
      <point x="796" y="817"/>
      <point x="741" y="712"/>
      <point x="654" y="588"/>
      <point x="530" y="433"/>
      <point x="368" y="241"/>
      <point x="266" y="121" type="qcurve"/>
      <point x="684" y="121" type="line" smooth="yes"/>
      <point x="711" y="121"/>
      <point x="748" y="158"/>
      <point x="770" y="209"/>
      <point x="782" y="263"/>
      <point x="786" y="298"/>
      <point x="786" y="299" type="qcurve" smooth="yes"/>
      <point x="836" y="287" type="line"/>
    </contour>
  </outline>
</glyph>
<glyph name="three" format="1">
  <advance width="961"/>
  <unicode hex="0033"/>
  <outline>
    <contour>
      <point x="825" y="381" type="qcurve" smooth="yes"/>
      <point x="825" y="297"/>
      <point x="771" y="147"/>
      <point x="665" y="35"/>
      <point x="509" y="-30"/>
      <point x="406" y="-30" type="qcurve" smooth="yes"/>
      <point x="367" y="-30"/>
      <point x="285" y="-16"/>
      <point x="200" y="19"/>
      <point x="113" y="76"/>
      <point x="68" y="119" type="qcurve"/>
      <point x="102" y="186" type="line"/>
      <point x="147" y="152"/>
      <point x="222" y="108"/>
      <point x="289" y="82"/>
      <point x="355" y="72"/>
      <point x="393" y="72" type="qcurve" smooth="yes"/>
      <point x="454" y="72"/>
      <point x="554" y="110"/>
      <point x="626" y="182"/>
      <point x="666" y="284"/>
      <point x="666" y="348" type="qcurve" smooth="yes"/>
      <point x="666" y="423"/>
      <point x="619" y="528"/>
      <point x="545" y="594"/>
      <point x="454" y="623"/>
      <point x="410" y="623" type="qcurve" smooth="yes"/>
      <point x="396" y="623"/>
      <point x="389" y="623" type="qcurve" smooth="yes"/>
      <point x="383" y="623"/>
      <point x="372" y="621"/>
      <point x="357" y="619"/>
      <point x="342" y="616" type="qcurve"/>
      <point x="328" y="676" type="line"/>
      <point x="420" y="701"/>
      <point x="530" y="767"/>
      <point x="589" y="838"/>
      <point x="608" y="909"/>
      <point x="608" y="940" type="qcurve" smooth="yes"/>
      <point x="608" y="974"/>
      <point x="587" y="1046"/>
      <point x="542" y="1104"/>
      <point x="474" y="1141"/>
      <point x="426" y="1141" type="qcurve" smooth="yes"/>
      <point x="386" y="1141"/>
      <point x="323" y="1114"/>
      <point x="281" y="1068"/>
      <point x="264" y="1007"/>
      <point x="270" y="973" type="qcurve"/>
      <point x="236" y="956"/>
      <point x="174" y="937"/>
      <point x="131" y="934" type="qcurve"/>
      <point x="104" y="965" type="line"/>
      <point x="104" y="1007"/>
      <point x="166" y="1102"/>
      <point x="270" y="1182"/>
      <point x="407" y="1235"/>
      <point x="483" y="1235" type="qcurve" smooth="yes"/>
      <point x="558" y="1235"/>
      <point x="665" y="1187"/>
      <point x="734" y="1108"/>
      <point x="766" y="1009"/>
      <point x="766" y="958" type="qcurve" smooth="yes"/>
      <point x="766" y="920"/>
      <point x="737" y="846"/>
      <point x="682" y="778"/>
      <point x="604" y="720"/>
      <point x="555" y="698" type="qcurve"/>
      <point x="612" y="691"/>
      <point x="711" y="636"/>
      <point x="783" y="551"/>
      <point x="825" y="442"/>
    </contour>
  </outline>
</glyph>
<glyph name="four" format="1">
  <advance width="961"/>
  <unicode hex="0034"/>
  <outline>
    <contour>
      <point x="586" y="1040" type="line"/>
      <point x="213" y="461" type="line"/>
      <point x="586" y="461" type="line"/>
    </contour>
    <contour>
      <point x="874" y="430" type="line"/>
      <point x="853" y="398"/>
      <point x="818" y="367"/>
      <point x="795" y="350" type="qcurve"/>
      <point x="725" y="350" type="line"/>
      <point x="725" y="104" type="line" smooth="yes"/>
      <point x="725" y="96"/>
      <point x="737" y="83"/>
      <point x="769" y="68"/>
      <point x="823" y="52"/>
      <point x="864" y="43" type="qcurve"/>
      <point x="864" y="0" type="line"/>
      <point x="375" y="0" type="line"/>
      <point x="375" y="43" type="line"/>
      <point x="440" y="54"/>
      <point x="522" y="73"/>
      <point x="569" y="90"/>
      <point x="586" y="106"/>
      <point x="586" y="115" type="qcurve" smooth="yes"/>
      <point x="586" y="350" type="line"/>
      <point x="88" y="350" type="line"/>
      <point x="55" y="383" type="line"/>
      <point x="551" y="1174" type="line"/>
      <point x="593" y="1192"/>
      <point x="659" y="1230"/>
      <point x="688" y="1245" type="qcurve"/>
      <point x="725" y="1210" type="line"/>
      <point x="725" y="461" type="line"/>
      <point x="848" y="461" type="line"/>
      <point x="874" y="430" type="line"/>
    </contour>
  </outline>
</glyph>
<glyph name="eight" format="1">
  <advance width="961"/>
  <unicode hex="0038"/>
  <outline>
    <contour>
      <point x="274" y="950" type="qcurve" smooth="yes"/>
      <point x="274" y="906"/>
      <point x="317" y="841"/>
      <point x="389" y="789"/>
      <point x="482" y="746"/>
      <point x="532" y="724" type="qcurve"/>
      <point x="606" y="777"/>
      <point x="668" y="884"/>
      <point x="668" y="938" type="qcurve" smooth="yes"/>
      <point x="668" y="990"/>
      <point x="637" y="1067"/>
      <point x="580" y="1117"/>
      <point x="500" y="1141"/>
      <point x="451" y="1141" type="qcurve" smooth="yes"/>
      <point x="406" y="1141"/>
      <point x="340" y="1107"/>
      <point x="296" y="1052"/>
      <point x="274" y="984"/>
    </contour>
    <contour>
      <point x="707" y="309" type="qcurve" smooth="yes"/>
      <point x="707" y="375"/>
      <point x="660" y="469"/>
      <point x="584" y="537"/>
      <point x="486" y="587"/>
      <point x="434" y="610" type="qcurve"/>
      <point x="386" y="575"/>
      <point x="318" y="508"/>
      <point x="275" y="438"/>
      <point x="254" y="360"/>
      <point x="254" y="315" type="qcurve" smooth="yes"/>
      <point x="254" y="263"/>
      <point x="288" y="173"/>
      <point x="352" y="107"/>
      <point x="443" y="70"/>
      <point x="500" y="70" type="qcurve" smooth="yes"/>
      <point x="555" y="70"/>
      <point x="634" y="112"/>
      <point x="684" y="180"/>
      <point x="707" y="265"/>
    </contour>
    <contour>
      <point x="864" y="352" type="qcurve" smooth="yes"/>
      <point x="864" y="274"/>
      <point x="799" y="136"/>
      <point x="686" y="31"/>
      <point x="536" y="-30"/>
      <point x="451" y="-30" type="qcurve" smooth="yes"/>
      <point x="365" y="-30"/>
      <point x="233" y="22"/>
      <point x="141" y="110"/>
      <point x="94" y="223"/>
      <point x="94" y="285" type="qcurve" smooth="yes"/>
      <point x="94" y="339"/>
      <point x="131" y="440"/>
      <point x="200" y="531"/>
      <point x="297" y="611"/>
      <point x="357" y="644" type="qcurve"/>
      <point x="314" y="664"/>
      <point x="237" y="712"/>
      <point x="179" y="776"/>
      <point x="145" y="859"/>
      <point x="145" y="915" type="qcurve" smooth="yes"/>
      <point x="145" y="984"/>
      <point x="200" y="1102"/>
      <point x="296" y="1187"/>
      <point x="427" y="1235"/>
      <point x="502" y="1235" type="qcurve" smooth="yes"/>
      <point x="577" y="1235"/>
      <point x="694" y="1195"/>
      <point x="773" y="1125"/>
      <point x="815" y="1027"/>
      <point x="815" y="969" type="qcurve" smooth="yes"/>
      <point x="815" y="927"/>
      <point x="785" y="852"/>
      <point x="731" y="783"/>
      <point x="656" y="719"/>
      <point x="612" y="688" type="qcurve"/>
      <point x="661" y="664"/>
      <point x="753" y="605"/>
      <point x="822" y="525"/>
      <point x="864" y="421"/>
    </contour>
  </outline>
</glyph>
<glyph name="equal" format="1">
  <advance width="899"/>
  <unicode hex="003D"/>
  <outline>
    <contour>
      <point x="838" y="743" type="line"/>
      <point x="833" y="723"/>
      <point x="815" y="672"/>
      <point x="809" y="655" type="qcurve"/>
      <point x="86" y="655" type="line"/>
      <point x="61" y="680" type="line"/>
      <point x="66" y="700"/>
      <point x="83" y="749"/>
      <point x="92" y="768" type="qcurve"/>
      <point x="813" y="768" type="line"/>
      <point x="838" y="743" type="line"/>
    </contour>
    <contour>
      <point x="838" y="444" type="line"/>
      <point x="833" y="423"/>
      <point x="815" y="373"/>
      <point x="809" y="354" type="qcurve"/>
      <point x="86" y="354" type="line"/>
      <point x="61" y="381" type="line"/>
      <point x="66" y="401"/>
      <point x="83" y="449"/>
      <point x="92" y="469" type="qcurve"/>
      <point x="813" y="469" type="line"/>
      <point x="838" y="444" type="line"/>
    </contour>
  </outline>
</glyph>
<glyph name="D" format="1">
  <advance width="1214"/>
  <unicode hex="0044"/>
  <outline>
    <contour>
      <point x="453" y="1206" type="qcurve" smooth="yes"/>
      <point x="403" y="1206"/>
      <point x="355" y="1203" type="qcurve"/>
      <point x="355" y="154" type="line" smooth="yes"/>
      <point x="355" y="132"/>
      <point x="365" y="118" type="qcurve" smooth="yes"/>
      <point x="379" y="101"/>
      <point x="459" y="84"/>
      <point x="537" y="84" type="qcurve" smooth="yes"/>
      <point x="606" y="84"/>
      <point x="753" y="151"/>
      <point x="874" y="288"/>
      <point x="952" y="496"/>
      <point x="952" y="637" type="qcurve" smooth="yes"/>
      <point x="952" y="770"/>
      <point x="886" y="981"/>
      <point x="759" y="1128"/>
      <point x="573" y="1206"/>
    </contour>
    <contour>
      <point x="1124" y="676" type="qcurve" smooth="yes"/>
      <point x="1124" y="551"/>
      <point x="1073" y="354"/>
      <point x="987" y="203"/>
      <point x="873" y="98"/>
      <point x="748" y="31"/>
      <point x="618" y="0"/>
      <point x="559" y="0" type="qcurve" smooth="yes"/>
      <point x="50" y="0" type="line"/>
      <point x="50" y="43" type="line"/>
      <point x="118" y="57"/>
      <point x="195" y="90"/>
      <point x="195" y="104" type="qcurve" smooth="yes"/>
      <point x="195" y="1188" type="line"/>
      <point x="155" y="1183"/>
      <point x="83" y="1173"/>
      <point x="50" y="1168" type="qcurve"/>
      <point x="41" y="1230" type="line"/>
      <point x="85" y="1242"/>
      <point x="200" y="1264"/>
      <point x="328" y="1281"/>
      <point x="459" y="1290"/>
      <point x="518" y="1290" type="qcurve" smooth="yes"/>
      <point x="657" y="1290"/>
      <point x="881" y="1207"/>
      <point x="1039" y="1049"/>
      <point x="1124" y="821"/>
    </contour>
  </outline>
</glyph>
<glyph name="F" format="1">
  <advance width="979"/>
  <unicode hex="0046"/>
  <outline>
    <contour>
      <point x="50" y="0" type="line"/>
      <point x="50" y="43" type="line"/>
      <point x="118" y="57"/>
      <point x="195" y="90"/>
      <point x="195" y="104" type="qcurve" smooth="yes"/>
      <point x="195" y="1155" type="line" smooth="yes"/>
      <point x="195" y="1167"/>
      <point x="122" y="1203"/>
      <point x="50" y="1217" type="qcurve"/>
      <point x="50" y="1260" type="line"/>
      <point x="866" y="1260" type="line"/>
      <point x="897" y="1235" type="line"/>
      <point x="896" y="1209"/>
      <point x="888" y="1147"/>
      <point x="877" y="1085"/>
      <point x="864" y="1029"/>
      <point x="858" y="1010" type="qcurve"/>
      <point x="811" y="1010" type="line"/>
      <point x="809" y="1056"/>
      <point x="798" y="1118"/>
      <point x="777" y="1155"/>
      <point x="748" y="1170"/>
      <point x="729" y="1170" type="qcurve" smooth="yes"/>
      <point x="355" y="1170" type="line"/>
      <point x="355" y="735" type="line"/>
      <point x="729" y="735" type="line"/>
      <point x="758" y="707" type="line"/>
      <point x="749" y="693"/>
      <point x="725" y="662"/>
      <point x="699" y="633"/>
      <point x="674" y="608"/>
      <point x="664" y="600" type="qcurve"/>
      <point x="649" y="615"/>
      <point x="615" y="635"/>
      <point x="570" y="649"/>
      <point x="509" y="655"/>
      <point x="467" y="655" type="qcurve" smooth="yes"/>
      <point x="355" y="655" type="line"/>
      <point x="355" y="104" type="line" smooth="yes"/>
      <point x="355" y="92"/>
      <point x="432" y="62"/>
      <point x="530" y="43" type="qcurve"/>
      <point x="530" y="0" type="line"/>
    </contour>
  </outline>
</glyph>
<glyph name="P" format="1">
  <advance width="1071"/>
  <unicode hex="0050"/>
  <outline>
    <contour>
      <point x="50" y="0" type="line"/>
      <point x="50" y="43" type="line"/>
      <point x="118" y="57"/>
      <point x="195" y="90"/>
      <point x="195" y="104" type="qcurve" smooth="yes"/>
      <point x="195" y="1190" type="line"/>
      <point x="158" y="1185"/>
      <point x="85" y="1174"/>
      <point x="50" y="1168" type="qcurve"/>
      <point x="41" y="1230" type="line"/>
      <point x="89" y="1243"/>
      <point x="202" y="1265"/>
      <point x="324" y="1281"/>
      <point x="449" y="1290"/>
      <point x="510" y="1290" type="qcurve" smooth="yes"/>
      <point x="618" y="1290"/>
      <point x="792" y="1244"/>
      <point x="915" y="1154"/>
      <point x="982" y="1022"/>
      <point x="982" y="936" type="qcurve" smooth="yes"/>
      <point x="982" y="867"/>
      <point x="943" y="753"/>
      <point x="878" y="664"/>
      <point x="794" y="599"/>
      <point x="703" y="556"/>
      <point x="612" y="535"/>
      <point x="573" y="535" type="qcurve" smooth="yes"/>
      <point x="479" y="535"/>
      <point x="412" y="565" type="qcurve"/>
      <point x="389" y="641" type="line"/>
      <point x="431" y="622"/>
      <point x="508" y="611"/>
      <point x="543" y="611" type="qcurve" smooth="yes"/>
      <point x="589" y="611"/>
      <point x="689" y="647"/>
      <point x="773" y="718"/>
      <point x="827" y="824"/>
      <point x="827" y="895" type="qcurve" smooth="yes"/>
      <point x="827" y="977"/>
      <point x="768" y="1095"/>
      <point x="666" y="1170"/>
      <point x="530" y="1206"/>
      <point x="453" y="1206" type="qcurve" smooth="yes"/>
      <point x="428" y="1206"/>
      <point x="379" y="1205"/>
      <point x="355" y="1204" type="qcurve"/>
      <point x="355" y="104" type="line" smooth="yes"/>
      <point x="355" y="98"/>
      <point x="371" y="84"/>
      <point x="410" y="68"/>
      <point x="478" y="52"/>
      <point x="530" y="43" type="qcurve"/>
      <point x="530" y="0" type="line"/>
    </contour>
  </outline>
</glyph>
<glyph name="Q" format="1">
  <advance width="1229"/>
  <unicode hex="0051"/>
  <outline>
    <contour>
      <point x="983" y="629" type="qcurve" smooth="yes"/>
      <point x="983" y="698"/>
      <point x="958" y="833"/>
      <point x="912" y="954"/>
      <point x="845" y="1058"/>
      <point x="761" y="1133"/>
      <point x="661" y="1176"/>
      <point x="604" y="1176" type="qcurve" smooth="yes"/>
      <point x="515" y="1176"/>
      <point x="374" y="1100"/>
      <point x="277" y="961"/>
      <point x="225" y="763"/>
      <point x="225" y="641" type="qcurve" smooth="yes"/>
      <point x="225" y="529"/>
      <point x="286" y="329"/>
      <point x="389" y="178"/>
      <point x="527" y="90"/>
      <point x="604" y="90" type="qcurve" smooth="yes"/>
      <point x="687" y="90"/>
      <point x="826" y="159"/>
      <point x="927" y="295"/>
      <point x="983" y="497"/>
    </contour>
    <contour>
      <point x="1282" y="-117" type="line"/>
      <point x="1258" y="-161"/>
      <point x="1208" y="-230"/>
      <point x="1160" y="-279"/>
      <point x="1117" y="-305"/>
      <point x="1102" y="-305" type="qcurve" smooth="yes"/>
      <point x="1040" y="-305"/>
      <point x="919" y="-244"/>
      <point x="799" y="-157"/>
      <point x="680" y="-62"/>
      <point x="620" y="-27" type="qcurve"/>
      <point x="597" y="-30"/>
      <point x="575" y="-30" type="qcurve" smooth="yes"/>
      <point x="465" y="-30"/>
      <point x="279" y="72"/>
      <point x="145" y="246"/>
      <point x="70" y="480"/>
      <point x="70" y="612" type="qcurve" smooth="yes"/>
      <point x="70" y="748"/>
      <point x="158" y="994"/>
      <point x="310" y="1180"/>
      <point x="515" y="1290"/>
      <point x="633" y="1290" type="qcurve" smooth="yes"/>
      <point x="757" y="1290"/>
      <point x="945" y="1181"/>
      <point x="1073" y="1001"/>
      <point x="1138" y="769"/>
      <point x="1138" y="647" type="qcurve" smooth="yes"/>
      <point x="1138" y="541"/>
      <point x="1082" y="343"/>
      <point x="982" y="176"/>
      <point x="845" y="48"/>
      <point x="765" y="12" type="qcurve"/>
      <point x="811" y="-12"/>
      <point x="902" y="-72"/>
      <point x="989" y="-124"/>
      <point x="1071" y="-160"/>
      <point x="1108" y="-160" type="qcurve" smooth="yes"/>
      <point x="1120" y="-160"/>
      <point x="1147" y="-152"/>
      <point x="1181" y="-134"/>
      <point x="1225" y="-104"/>
      <point x="1255" y="-82" type="qcurve"/>
      <point x="1282" y="-117" type="line"/>
    </contour>
  </outline>
</glyph>
<glyph name="S" format="1">
  <advance width="975"/>
  <unicode hex="0053"/>
  <outline>
    <contour>
      <point x="885" y="377" type="qcurve" smooth="yes"/>
      <point x="885" y="332"/>
      <point x="861" y="238"/>
      <point x="812" y="147"/>
      <point x="739" y="66"/>
      <point x="640" y="6"/>
      <point x="515" y="-30"/>
      <point x="440" y="-30" type="qcurve" smooth="yes"/>
      <point x="407" y="-30"/>
      <point x="329" y="-16"/>
      <point x="247" y="9"/>
      <point x="166" y="45"/>
      <point x="131" y="68" type="qcurve" smooth="yes"/>
      <point x="124" y="72"/>
      <point x="117" y="132"/>
      <point x="117" y="172" type="qcurve" smooth="yes"/>
      <point x="117" y="213"/>
      <point x="123" y="297"/>
      <point x="131" y="324" type="qcurve"/>
      <point x="172" y="319" type="line"/>
      <point x="195" y="260"/>
      <point x="264" y="174"/>
      <point x="348" y="117"/>
      <point x="445" y="90"/>
      <point x="496" y="90" type="qcurve" smooth="yes"/>
      <point x="541" y="90"/>
      <point x="632" y="127"/>
      <point x="706" y="191"/>
      <point x="752" y="276"/>
      <point x="752" y="324" type="qcurve" smooth="yes"/>
      <point x="752" y="385"/>
      <point x="698" y="473"/>
      <point x="610" y="541"/>
      <point x="498" y="595"/>
      <point x="381" y="649"/>
      <point x="269" y="709"/>
      <point x="181" y="789"/>
      <point x="127" y="894"/>
      <point x="127" y="967" type="qcurve" smooth="yes"/>
      <point x="127" y="998"/>
      <point x="145" y="1070"/>
      <point x="185" y="1142"/>
      <point x="248" y="1209"/>
      <point x="337" y="1260"/>
      <point x="453" y="1290"/>
      <point x="526" y="1290" type="qcurve" smooth="yes"/>
      <point x="571" y="1290"/>
      <point x="662" y="1276"/>
      <point x="741" y="1252"/>
      <point x="805" y="1218"/>
      <point x="823" y="1198" type="qcurve" smooth="yes"/>
      <point x="830" y="1192"/>
      <point x="817" y="1157"/>
      <point x="790" y="1116"/>
      <point x="757" y="1076"/>
      <point x="745" y="1065" type="qcurve"/>
      <point x="709" y="1071" type="line"/>
      <point x="681" y="1104"/>
      <point x="620" y="1148"/>
      <point x="557" y="1175"/>
      <point x="495" y="1186"/>
      <point x="467" y="1186" type="qcurve" smooth="yes"/>
      <point x="411" y="1186"/>
      <point x="331" y="1154"/>
      <point x="279" y="1103"/>
      <point x="254" y="1042"/>
      <point x="254" y="1014" type="qcurve" smooth="yes"/>
      <point x="254" y="967"/>
      <point x="308" y="894"/>
      <point x="397" y="833"/>
      <point x="510" y="779"/>
      <point x="629" y="720"/>
      <point x="742" y="652"/>
      <point x="831" y="564"/>
      <point x="885" y="451"/>
    </contour>
  </outline>
</glyph>
<glyph name="T" format="1">
  <advance width="1128"/>
  <unicode hex="0054"/>
  <outline>
    <contour>
      <point x="307" y="0" type="line"/>
      <point x="307" y="43" type="line"/>
      <point x="353" y="52"/>
      <point x="416" y="72"/>
      <point x="454" y="91"/>
      <point x="471" y="108"/>
      <point x="471" y="115" type="qcurve" smooth="yes"/>
      <point x="471" y="1170" type="line"/>
      <point x="172" y="1170" type="line" smooth="yes"/>
      <point x="157" y="1170"/>
      <point x="132" y="1159"/>
      <point x="107" y="1123"/>
      <point x="75" y="1053"/>
      <point x="53" y="995" type="qcurve"/>
      <point x="10" y="1014" type="line"/>
      <point x="15" y="1073"/>
      <point x="32" y="1207"/>
      <point x="43" y="1260" type="qcurve"/>
      <point x="1053" y="1260" type="line"/>
      <point x="1083" y="1235" type="line"/>
      <point x="1081" y="1184"/>
      <point x="1065" y="1063"/>
      <point x="1053" y="1000" type="qcurve"/>
      <point x="1008" y="1000" type="line"/>
      <point x="999" y="1042"/>
      <point x="984" y="1106"/>
      <point x="965" y="1149"/>
      <point x="937" y="1170"/>
      <point x="915" y="1170" type="qcurve" smooth="yes"/>
      <point x="631" y="1170" type="line"/>
      <point x="631" y="115" type="line" smooth="yes"/>
      <point x="631" y="102"/>
      <point x="703" y="62"/>
      <point x="795" y="43" type="qcurve"/>
      <point x="795" y="0" type="line"/>
    </contour>
  </outline>
</glyph>
<glyph name="U" format="1">
  <advance width="1339"/>
  <unicode hex="0055"/>
  <outline>
    <contour>
      <point x="1275" y="1217" type="line"/>
      <point x="1207" y="1203"/>
      <point x="1130" y="1169"/>
      <point x="1130" y="1155" type="qcurve" smooth="yes"/>
      <point x="1130" y="524" type="line" smooth="yes"/>
      <point x="1130" y="393"/>
      <point x="1066" y="187"/>
      <point x="946" y="45"/>
      <point x="774" y="-30"/>
      <point x="666" y="-30" type="qcurve" smooth="yes"/>
      <point x="563" y="-30"/>
      <point x="390" y="27"/>
      <point x="265" y="144"/>
      <point x="195" y="322"/>
      <point x="195" y="444" type="qcurve" smooth="yes"/>
      <point x="195" y="1155" type="line" smooth="yes"/>
      <point x="195" y="1167"/>
      <point x="122" y="1203"/>
      <point x="50" y="1217" type="qcurve"/>
      <point x="50" y="1260" type="line"/>
      <point x="500" y="1260" type="line"/>
      <point x="500" y="1217" type="line"/>
      <point x="432" y="1203"/>
      <point x="355" y="1169"/>
      <point x="355" y="1155" type="qcurve" smooth="yes"/>
      <point x="355" y="494" type="line" smooth="yes"/>
      <point x="355" y="398"/>
      <point x="400" y="246"/>
      <point x="489" y="140"/>
      <point x="619" y="84"/>
      <point x="705" y="84" type="qcurve" smooth="yes"/>
      <point x="776" y="84"/>
      <point x="886" y="153"/>
      <point x="961" y="265"/>
      <point x="1000" y="409"/>
      <point x="1000" y="483" type="qcurve" smooth="yes"/>
      <point x="1000" y="1155" type="line" smooth="yes"/>
      <point x="1000" y="1167"/>
      <point x="927" y="1203"/>
      <point x="855" y="1217" type="qcurve"/>
      <point x="855" y="1260" type="line"/>
      <point x="1275" y="1260" type="line"/>
      <point x="1275" y="1217" type="line"/>
    </contour>
  </outline>
</glyph>
<glyph name="backslash" format="1">
  <advance width="961"/>
  <unicode hex="005C"/>
  <outline>
    <contour>
      <point x="870" y="-335" type="line"/>
      <point x="858" y="-331"/>
      <point x="826" y="-319"/>
      <point x="794" y="-306"/>
      <point x="765" y="-291"/>
      <point x="756" y="-284" type="qcurve"/>
      <point x="55" y="1578" type="line"/>
      <point x="92" y="1600" type="line"/>
      <point x="150" y="1585"/>
      <point x="205" y="1551" type="qcurve"/>
      <point x="905" y="-310" type="line"/>
    </contour>
  </outline>
</glyph>
<glyph name="asciicircum" format="1">
  <advance width="1008"/>
  <unicode hex="005E"/>
  <outline>
    <contour>
      <point x="907" y="635" type="line"/>
      <point x="882" y="612"/>
      <point x="835" y="581"/>
      <point x="801" y="565" type="qcurve"/>
      <point x="764" y="592" type="line"/>
      <point x="481" y="1315" type="line"/>
      <point x="231" y="635" type="line"/>
      <point x="220" y="625"/>
      <point x="192" y="604"/>
      <point x="162" y="585"/>
      <point x="133" y="570"/>
      <point x="123" y="565" type="qcurve"/>
      <point x="100" y="592" type="line"/>
      <point x="422" y="1462" type="line"/>
      <point x="434" y="1474"/>
      <point x="469" y="1499"/>
      <point x="505" y="1523"/>
      <point x="541" y="1543"/>
      <point x="555" y="1550" type="qcurve"/>
      <point x="907" y="635" type="line"/>
    </contour>
  </outline>
</glyph>
<glyph name="m" format="1">
  <advance width="1645"/>
  <unicode hex="006D"/>
  <outline>
    <contour>
      <point x="1186" y="0" type="line"/>
      <point x="1186" y="43" type="line"/>
      <point x="1258" y="62"/>
      <point x="1325" y="90"/>
      <point x="1325" y="104" type="qcurve" smooth="yes"/>
      <point x="1325" y="633" type="line" smooth="yes"/>
      <point x="1325" y="694"/>
      <point x="1312" y="775"/>
      <point x="1285" y="821"/>
      <point x="1242" y="840"/>
      <point x="1212" y="840" type="qcurve" smooth="yes"/>
      <point x="1179" y="840"/>
      <point x="1105" y="803"/>
      <point x="1027" y="734"/>
      <point x="948" y="635"/>
      <point x="910" y="573" type="qcurve"/>
      <point x="910" y="104" type="line" smooth="yes"/>
      <point x="910" y="90"/>
      <point x="972" y="63"/>
      <point x="1051" y="43" type="qcurve"/>
      <point x="1051" y="0" type="line"/>
      <point x="621" y="0" type="line"/>
      <point x="621" y="43" type="line"/>
      <point x="693" y="62"/>
      <point x="760" y="90"/>
      <point x="760" y="104" type="qcurve" smooth="yes"/>
      <point x="760" y="633" type="line" smooth="yes"/>
      <point x="760" y="694"/>
      <point x="748" y="775"/>
      <point x="721" y="821"/>
      <point x="678" y="840"/>
      <point x="647" y="840" type="qcurve" smooth="yes"/>
      <point x="579" y="840"/>
      <point x="430" y="700"/>
      <point x="345" y="573" type="qcurve"/>
      <point x="345" y="104" type="line" smooth="yes"/>
      <point x="345" y="89"/>
      <point x="420" y="57"/>
      <point x="485" y="43" type="qcurve"/>
      <point x="485" y="0" type="line"/>
      <point x="55" y="0" type="line"/>
      <point x="55" y="43" type="line"/>
      <point x="121" y="60"/>
      <point x="195" y="87"/>
      <point x="195" y="104" type="qcurve" smooth="yes"/>
      <point x="195" y="711" type="line" smooth="yes"/>
      <point x="195" y="751"/>
      <point x="188" y="797"/>
      <point x="159" y="822"/>
      <point x="103" y="834"/>
      <point x="55" y="840" type="qcurve"/>
      <point x="55" y="880" type="line"/>
      <point x="93" y="886"/>
      <point x="157" y="903"/>
      <point x="215" y="923"/>
      <point x="268" y="947"/>
      <point x="295" y="960" type="qcurve"/>
      <point x="330" y="925" type="line"/>
      <point x="341" y="696" type="line"/>
      <point x="386" y="762"/>
      <point x="478" y="861"/>
      <point x="568" y="927"/>
      <point x="652" y="960"/>
      <point x="688" y="960" type="qcurve" smooth="yes"/>
      <point x="736" y="960"/>
      <point x="817" y="936"/>
      <point x="876" y="880"/>
      <point x="910" y="790"/>
      <point x="910" y="723" type="qcurve" smooth="yes"/>
      <point x="910" y="704" type="line"/>
      <point x="952" y="767"/>
      <point x="1042" y="862"/>
      <point x="1131" y="927"/>
      <point x="1216" y="960"/>
      <point x="1253" y="960" type="qcurve" smooth="yes"/>
      <point x="1301" y="960"/>
      <point x="1382" y="934"/>
      <point x="1441" y="880"/>
      <point x="1475" y="797"/>
      <point x="1475" y="741" type="qcurve" smooth="yes"/>
      <point x="1475" y="104" type="line" smooth="yes"/>
      <point x="1475" y="90"/>
      <point x="1537" y="63"/>
      <point x="1616" y="43" type="qcurve"/>
      <point x="1616" y="0" type="line"/>
    </contour>
  </outline>
</glyph>
<glyph name="o" format="1">
  <advance width="1030"/>
  <unicode hex="006F"/>
  <outline>
    <contour>
      <point x="797" y="455" type="qcurve" smooth="yes"/>
      <point x="797" y="534"/>
      <point x="745" y="677"/>
      <point x="661" y="786"/>
      <point x="557" y="850"/>
      <point x="506" y="850" type="qcurve" smooth="yes"/>
      <point x="430" y="850"/>
      <point x="326" y="792"/>
      <point x="261" y="691"/>
      <point x="233" y="553"/>
      <point x="233" y="473" type="qcurve" smooth="yes"/>
      <point x="233" y="394"/>
      <point x="289" y="251"/>
      <point x="375" y="143"/>
      <point x="478" y="80"/>
      <point x="524" y="80" type="qcurve" smooth="yes"/>
      <point x="595" y="80"/>
      <point x="698" y="133"/>
      <point x="765" y="231"/>
      <point x="797" y="369"/>
    </contour>
    <contour>
      <point x="950" y="485" type="qcurve" smooth="yes"/>
      <point x="950" y="419"/>
      <point x="916" y="290"/>
      <point x="856" y="176"/>
      <point x="772" y="79"/>
      <point x="671" y="9"/>
      <point x="557" y="-30"/>
      <point x="496" y="-30" type="qcurve" smooth="yes"/>
      <point x="401" y="-30"/>
      <point x="248" y="42"/>
      <point x="139" y="168"/>
      <point x="80" y="342"/>
      <point x="80" y="444" type="qcurve" smooth="yes"/>
      <point x="80" y="510"/>
      <point x="113" y="638"/>
      <point x="172" y="753"/>
      <point x="255" y="850"/>
      <point x="356" y="920"/>
      <point x="472" y="960"/>
      <point x="535" y="960" type="qcurve" smooth="yes"/>
      <point x="629" y="960"/>
      <point x="782" y="888"/>
      <point x="891" y="761"/>
      <point x="950" y="587"/>
    </contour>
  </outline>
</glyph>
<glyph name="p" format="1">
  <advance width="1085"/>
  <unicode hex="0070"/>
  <outline>
    <contour>
      <point x="871" y="426" type="qcurve" smooth="yes"/>
      <point x="871" y="513"/>
      <point x="830" y="663"/>
      <point x="761" y="772"/>
      <point x="671" y="834"/>
      <point x="623" y="834" type="qcurve" smooth="yes"/>
      <point x="605" y="834"/>
      <point x="547" y="812"/>
      <point x="473" y="761"/>
      <point x="389" y="674"/>
      <point x="345" y="610" type="qcurve"/>
      <point x="345" y="213" type="line"/>
      <point x="390" y="179"/>
      <point x="467" y="135"/>
      <point x="534" y="110"/>
      <point x="594" y="100"/>
      <point x="621" y="100" type="qcurve" smooth="yes"/>
      <point x="675" y="100"/>
      <point x="766" y="142"/>
      <point x="833" y="224"/>
      <point x="871" y="346"/>
    </contour>
    <contour>
      <point x="1004" y="492" type="qcurve" smooth="yes"/>
      <point x="1004" y="434"/>
      <point x="975" y="312"/>
      <point x="922" y="196"/>
      <point x="851" y="92"/>
      <point x="766" y="15"/>
      <point x="672" y="-30"/>
      <point x="623" y="-30" type="qcurve" smooth="yes"/>
      <point x="564" y="-30"/>
      <point x="416" y="36"/>
      <point x="345" y="98" type="qcurve"/>
      <point x="345" y="-375" type="line" smooth="yes"/>
      <point x="345" y="-391"/>
      <point x="420" y="-423"/>
      <point x="514" y="-437" type="qcurve"/>
      <point x="514" y="-480" type="line"/>
      <point x="55" y="-480" type="line"/>
      <point x="55" y="-437" type="line"/>
      <point x="121" y="-421"/>
      <point x="195" y="-392"/>
      <point x="195" y="-375" type="qcurve" smooth="yes"/>
      <point x="195" y="711" type="line" smooth="yes"/>
      <point x="195" y="748"/>
      <point x="187" y="796"/>
      <point x="158" y="825"/>
      <point x="103" y="838"/>
      <point x="55" y="840" type="qcurve"/>
      <point x="55" y="880" type="line"/>
      <point x="89" y="887"/>
      <point x="151" y="904"/>
      <point x="209" y="923"/>
      <point x="266" y="946"/>
      <point x="295" y="960" type="qcurve"/>
      <point x="330" y="925" type="line"/>
      <point x="339" y="727" type="line"/>
      <point x="389" y="787"/>
      <point x="490" y="875"/>
      <point x="582" y="932"/>
      <point x="661" y="960"/>
      <point x="690" y="960" type="qcurve" smooth="yes"/>
      <point x="758" y="960"/>
      <point x="873" y="896"/>
      <point x="957" y="775"/>
      <point x="1004" y="601"/>
    </contour>
  </outline>
</glyph>
<glyph name="r" format="1">
  <advance width="811"/>
  <unicode hex="0072"/>
  <outline>
    <contour>
      <point x="770" y="923" type="qcurve" smooth="yes"/>
      <point x="779" y="917"/>
      <point x="778" y="859"/>
      <point x="763" y="783"/>
      <point x="739" y="703"/>
      <point x="727" y="676" type="qcurve"/>
      <point x="684" y="676" type="line"/>
      <point x="678" y="716"/>
      <point x="656" y="772"/>
      <point x="627" y="805"/>
      <point x="592" y="820"/>
      <point x="573" y="820" type="qcurve" smooth="yes"/>
      <point x="551" y="820"/>
      <point x="492" y="783"/>
      <point x="430" y="704"/>
      <point x="369" y="581"/>
      <point x="345" y="496" type="qcurve"/>
      <point x="345" y="104" type="line" smooth="yes"/>
      <point x="345" y="89"/>
      <point x="420" y="57"/>
      <point x="514" y="43" type="qcurve"/>
      <point x="514" y="0" type="line"/>
      <point x="55" y="0" type="line"/>
      <point x="55" y="43" type="line"/>
      <point x="121" y="58"/>
      <point x="195" y="87"/>
      <point x="195" y="104" type="qcurve" smooth="yes"/>
      <point x="195" y="686" type="line" smooth="yes"/>
      <point x="195" y="719"/>
      <point x="191" y="764"/>
      <point x="185" y="792"/>
      <point x="176" y="808"/>
      <point x="172" y="813" type="qcurve" smooth="yes"/>
      <point x="165" y="820"/>
      <point x="148" y="829"/>
      <point x="121" y="835"/>
      <point x="83" y="838"/>
      <point x="55" y="840" type="qcurve"/>
      <point x="55" y="880" type="line"/>
      <point x="120" y="897"/>
      <point x="245" y="932"/>
      <point x="295" y="960" type="qcurve"/>
      <point x="330" y="925" type="line"/>
      <point x="343" y="698" type="line"/>
      <point x="370" y="753"/>
      <point x="433" y="849"/>
      <point x="505" y="920"/>
      <point x="584" y="960"/>
      <point x="627" y="960" type="qcurve" smooth="yes"/>
      <point x="659" y="960"/>
      <point x="733" y="944"/>
    </contour>
  </outline>
</glyph>
<glyph name="v" format="1">
  <advance width="1010"/>
  <unicode hex="0076"/>
  <outline>
    <contour>
      <point x="989" y="887" type="line"/>
      <point x="959" y="880"/>
      <point x="921" y="868"/>
      <point x="897" y="853"/>
      <point x="884" y="834"/>
      <point x="879" y="819" type="qcurve" smooth="yes"/>
      <point x="596" y="59" type="line" smooth="yes"/>
      <point x="587" y="37"/>
      <point x="553" y="6"/>
      <point x="513" y="-15"/>
      <point x="474" y="-27"/>
      <point x="461" y="-30" type="qcurve"/>
      <point x="131" y="819" type="line" smooth="yes"/>
      <point x="122" y="847"/>
      <point x="70" y="876"/>
      <point x="20" y="887" type="qcurve"/>
      <point x="20" y="930" type="line"/>
      <point x="406" y="930" type="line"/>
      <point x="406" y="887" type="line"/>
      <point x="367" y="882"/>
      <point x="318" y="872"/>
      <point x="291" y="857"/>
      <point x="287" y="835"/>
      <point x="293" y="819" type="qcurve" smooth="yes"/>
      <point x="539" y="178" type="line"/>
      <point x="770" y="819" type="line" smooth="yes"/>
      <point x="775" y="834"/>
      <point x="772" y="855"/>
      <point x="748" y="870"/>
      <point x="703" y="881"/>
      <point x="666" y="887" type="qcurve"/>
      <point x="666" y="930" type="line"/>
      <point x="989" y="930" type="line"/>
      <point x="989" y="887" type="line"/>
    </contour>
  </outline>
</glyph>
<glyph name="w" format="1">
  <advance width="1446"/>
  <unicode hex="0077"/>
  <outline>
    <contour>
      <point x="1425" y="887" type="line"/>
      <point x="1394" y="880"/>
      <point x="1358" y="867"/>
      <point x="1337" y="854"/>
      <point x="1328" y="837"/>
      <point x="1325" y="825" type="qcurve" smooth="yes"/>
      <point x="1104" y="59" type="line" smooth="yes"/>
      <point x="1098" y="37"/>
      <point x="1063" y="6"/>
      <point x="1021" y="-15"/>
      <point x="980" y="-27"/>
      <point x="967" y="-30" type="qcurve"/>
      <point x="729" y="648" type="line"/>
      <point x="524" y="59" type="line" smooth="yes"/>
      <point x="516" y="36"/>
      <point x="483" y="5"/>
      <point x="443" y="-16"/>
      <point x="404" y="-27"/>
      <point x="391" y="-30" type="qcurve"/>
      <point x="129" y="825" type="line" smooth="yes"/>
      <point x="120" y="864"/>
      <point x="20" y="887" type="qcurve"/>
      <point x="20" y="930" type="line"/>
      <point x="406" y="930" type="line"/>
      <point x="406" y="887" type="line"/>
      <point x="357" y="882"/>
      <point x="303" y="869"/>
      <point x="279" y="852"/>
      <point x="278" y="834"/>
      <point x="281" y="825" type="qcurve" smooth="yes"/>
      <point x="469" y="190" type="line"/>
      <point x="715" y="930" type="line"/>
      <point x="784" y="930" type="line"/>
      <point x="1044" y="190" type="line"/>
      <point x="1217" y="825" type="line" smooth="yes"/>
      <point x="1223" y="848"/>
      <point x="1169" y="876"/>
      <point x="1100" y="887" type="qcurve"/>
      <point x="1100" y="930" type="line"/>
      <point x="1425" y="930" type="line"/>
      <point x="1425" y="887" type="line"/>
    </contour>
  </outline>
</glyph>
<glyph name="y" format="1">
  <advance width="1010"/>
  <unicode hex="0079"/>
  <outline>
    <contour>
      <point x="989" y="887" type="line"/>
      <point x="959" y="880"/>
      <point x="921" y="868"/>
      <point x="897" y="853"/>
      <point x="884" y="834"/>
      <point x="879" y="819" type="qcurve" smooth="yes"/>
      <point x="545" y="-82" type="line" smooth="yes"/>
      <point x="503" y="-193"/>
      <point x="400" y="-351"/>
      <point x="289" y="-452"/>
      <point x="177" y="-500"/>
      <point x="127" y="-500" type="qcurve" smooth="yes"/>
      <point x="89" y="-500"/>
      <point x="25" y="-490"/>
      <point x="-21" y="-475"/>
      <point x="-47" y="-456"/>
      <point x="-47" y="-447" type="qcurve" smooth="yes"/>
      <point x="-47" y="-441"/>
      <point x="-23" y="-405"/>
      <point x="13" y="-362"/>
      <point x="54" y="-322"/>
      <point x="70" y="-312" type="qcurve"/>
      <point x="118" y="-340"/>
      <point x="213" y="-344"/>
      <point x="250" y="-330" type="qcurve" smooth="yes"/>
      <point x="268" y="-324"/>
      <point x="316" y="-280"/>
      <point x="365" y="-216"/>
      <point x="412" y="-135"/>
      <point x="430" y="-92" type="qcurve" smooth="yes"/>
      <point x="459" y="-23" type="line"/>
      <point x="131" y="819" type="line" smooth="yes"/>
      <point x="122" y="847"/>
      <point x="70" y="876"/>
      <point x="20" y="887" type="qcurve"/>
      <point x="20" y="930" type="line"/>
      <point x="406" y="930" type="line"/>
      <point x="406" y="887" type="line"/>
      <point x="367" y="882"/>
      <point x="318" y="872"/>
      <point x="291" y="857"/>
      <point x="287" y="835"/>
      <point x="293" y="819" type="qcurve" smooth="yes"/>
      <point x="539" y="182" type="line"/>
      <point x="770" y="819" type="line" smooth="yes"/>
      <point x="775" y="834"/>
      <point x="768" y="855"/>
      <point x="741" y="870"/>
      <point x="692" y="881"/>
      <point x="655" y="887" type="qcurve"/>
      <point x="655" y="930" type="line"/>
      <point x="989" y="930" type="line"/>
    </contour>
  </outline>
</glyph>
<glyph name="z" format="1">
  <advance width="905"/>
  <unicode hex="007A"/>
  <outline>
    <contour>
      <point x="829" y="248" type="line"/>
      <point x="829" y="216"/>
      <point x="827" y="144"/>
      <point x="824" y="76"/>
      <point x="820" y="18"/>
      <point x="817" y="0" type="qcurve"/>
      <point x="102" y="0" type="line"/>
      <point x="76" y="45" type="line"/>
      <point x="631" y="840" type="line"/>
      <point x="285" y="840" type="line" smooth="yes"/>
      <point x="269" y="840"/>
      <point x="236" y="828"/>
      <point x="205" y="795"/>
      <point x="178" y="736"/>
      <point x="168" y="690" type="qcurve"/>
      <point x="119" y="702" type="line"/>
      <point x="137" y="946" type="line"/>
      <point x="159" y="940"/>
      <point x="195" y="933"/>
      <point x="234" y="930"/>
      <point x="257" y="930" type="qcurve" smooth="yes"/>
      <point x="281" y="930"/>
      <point x="313" y="930" type="qcurve" smooth="yes"/>
      <point x="805" y="930" type="line"/>
      <point x="827" y="887" type="line"/>
      <point x="270" y="90" type="line"/>
      <point x="692" y="90" type="line" smooth="yes"/>
      <point x="717" y="90"/>
      <point x="759" y="167"/>
      <point x="782" y="258" type="qcurve"/>
      <point x="829" y="248" type="line"/>
    </contour>
  </outline>
</glyph>
<glyph name="asciitilde" format="1">
  <advance width="999"/>
  <unicode hex="007E"/>
  <outline>
    <contour>
      <point x="950" y="774" type="line"/>
      <point x="929" y="725"/>
      <point x="865" y="620"/>
      <point x="786" y="533"/>
      <point x="695" y="477"/>
      <point x="647" y="477" type="qcurve" smooth="yes"/>
      <point x="605" y="477"/>
      <point x="511" y="527"/>
      <point x="414" y="587"/>
      <point x="319" y="637"/>
      <point x="276" y="637" type="qcurve" smooth="yes"/>
      <point x="227" y="637"/>
      <point x="144" y="559"/>
      <point x="102" y="475" type="qcurve"/>
      <point x="49" y="502" type="line"/>
      <point x="70" y="551"/>
      <point x="135" y="656"/>
      <point x="214" y="743"/>
      <point x="304" y="799"/>
      <point x="352" y="799" type="qcurve" smooth="yes"/>
      <point x="398" y="799"/>
      <point x="495" y="749"/>
      <point x="590" y="689"/>
      <point x="681" y="639"/>
      <point x="721" y="639" type="qcurve" smooth="yes"/>
      <point x="769" y="639"/>
      <point x="855" y="717"/>
      <point x="897" y="799" type="qcurve"/>
      <point x="950" y="774" type="line"/>
    </contour>
  </outline>
</glyph>
<glyph name="cent" format="1">
  <advance width="961"/>
  <unicode hex="00A2"/>
  <outline>
    <contour>
      <point x="256" y="616" type="qcurve" smooth="yes"/>
      <point x="256" y="546"/>
      <point x="290" y="432"/>
      <point x="349" y="346"/>
      <point x="429" y="289"/>
      <point x="475" y="275" type="qcurve"/>
      <point x="475" y="966" type="line"/>
      <point x="430" y="957"/>
      <point x="351" y="907"/>
      <point x="291" y="821"/>
      <point x="256" y="698"/>
    </contour>
    <contour>
      <point x="565" y="-8" type="line"/>
      <point x="556" y="-16"/>
      <point x="542" y="-25"/>
      <point x="529" y="-32"/>
      <point x="512" y="-37"/>
      <point x="500" y="-41" type="qcurve"/>
      <point x="475" y="-16" type="line"/>
      <point x="475" y="129" type="line"/>
      <point x="404" y="132"/>
      <point x="271" y="194"/>
      <point x="167" y="309"/>
      <point x="104" y="477"/>
      <point x="104" y="586" type="qcurve" smooth="yes"/>
      <point x="104" y="674"/>
      <point x="159" y="830"/>
      <point x="257" y="953"/>
      <point x="394" y="1040"/>
      <point x="475" y="1061" type="qcurve"/>
      <point x="475" y="1214" type="line"/>
      <point x="489" y="1223"/>
      <point x="501" y="1232"/>
      <point x="510" y="1237"/>
      <point x="524" y="1241"/>
      <point x="539" y="1245" type="qcurve"/>
      <point x="565" y="1223" type="line"/>
      <point x="565" y="1077" type="line"/>
      <point x="577" y="1078"/>
      <point x="601" y="1079"/>
      <point x="614" y="1079" type="qcurve" smooth="yes"/>
      <point x="647" y="1079"/>
      <point x="716" y="1068"/>
      <point x="780" y="1047"/>
      <point x="833" y="1018"/>
      <point x="850" y="999" type="qcurve"/>
      <point x="852" y="988"/>
      <point x="842" y="944"/>
      <point x="824" y="896"/>
      <point x="802" y="851"/>
      <point x="793" y="838" type="qcurve"/>
      <point x="758" y="848" type="line"/>
      <point x="749" y="864"/>
      <point x="718" y="902"/>
      <point x="671" y="936"/>
      <point x="607" y="963"/>
      <point x="565" y="968" type="qcurve"/>
      <point x="565" y="262" type="line"/>
      <point x="592" y="262"/>
      <point x="640" y="267"/>
      <point x="697" y="292"/>
      <point x="771" y="344"/>
      <point x="825" y="391" type="qcurve"/>
      <point x="864" y="350" type="line"/>
      <point x="813" y="290"/>
      <point x="731" y="210"/>
      <point x="660" y="161"/>
      <point x="597" y="137"/>
      <point x="565" y="133" type="qcurve"/>
      <point x="565" y="-8" type="line"/>
    </contour>
  </outline>
</glyph>
<glyph name="currency" format="1">
  <advance width="961"/>
  <unicode hex="00A4"/>
  <outline>
    <contour>
      <point x="363" y="721" type="qcurve" smooth="yes"/>
      <point x="338" y="696"/>
      <point x="313" y="633"/>
      <point x="313" y="601" type="qcurve" smooth="yes"/>
      <point x="313" y="569"/>
      <point x="337" y="508"/>
      <point x="362" y="484" type="qcurve" smooth="yes"/>
      <point x="388" y="458"/>
      <point x="450" y="434"/>
      <point x="482" y="434" type="qcurve" smooth="yes"/>
      <point x="514" y="434"/>
      <point x="576" y="458"/>
      <point x="601" y="483" type="qcurve" smooth="yes"/>
      <point x="625" y="508"/>
      <point x="650" y="570"/>
      <point x="650" y="602" type="qcurve" smooth="yes"/>
      <point x="650" y="634"/>
      <point x="625" y="696"/>
      <point x="600" y="721" type="qcurve" smooth="yes"/>
      <point x="575" y="746"/>
      <point x="514" y="770"/>
      <point x="482" y="770" type="qcurve" smooth="yes"/>
      <point x="450" y="770"/>
      <point x="388" y="746"/>
    </contour>
    <contour>
      <point x="738" y="280" type="line"/>
      <point x="633" y="385" type="line"/>
      <point x="599" y="362"/>
      <point x="522" y="339"/>
      <point x="482" y="339" type="qcurve" smooth="yes"/>
      <point x="442" y="339"/>
      <point x="364" y="362"/>
      <point x="330" y="386" type="qcurve"/>
      <point x="222" y="279" type="line"/>
      <point x="189" y="281" type="line"/>
      <point x="181" y="295"/>
      <point x="165" y="327"/>
      <point x="158" y="343" type="qcurve"/>
      <point x="265" y="450" type="line"/>
      <point x="241" y="483"/>
      <point x="218" y="560"/>
      <point x="218" y="600" type="qcurve" smooth="yes"/>
      <point x="218" y="640"/>
      <point x="242" y="718"/>
      <point x="266" y="752" type="qcurve"/>
      <point x="159" y="860" type="line"/>
      <point x="161" y="893" type="line"/>
      <point x="175" y="901"/>
      <point x="207" y="917"/>
      <point x="223" y="924" type="qcurve"/>
      <point x="330" y="817" type="line"/>
      <point x="364" y="841"/>
      <point x="442" y="866"/>
      <point x="482" y="866" type="qcurve" smooth="yes"/>
      <point x="522" y="866"/>
      <point x="598" y="842"/>
      <point x="632" y="817" type="qcurve"/>
      <point x="738" y="923" type="line"/>
      <point x="772" y="924" type="line"/>
      <point x="802" y="858" type="line"/>
      <point x="696" y="752" type="line"/>
      <point x="720" y="718"/>
      <point x="745" y="640"/>
      <point x="745" y="600" type="qcurve" smooth="yes"/>
      <point x="745" y="560"/>
      <point x="721" y="483"/>
      <point x="697" y="449" type="qcurve"/>
      <point x="803" y="344" type="line"/>
      <point x="804" y="310" type="line"/>
    </contour>
  </outline>
</glyph>
<glyph name="section" format="1">
  <advance width="961"/>
  <unicode hex="00A7"/>
  <outline>
    <contour>
      <point x="538" y="529" type="qcurve" smooth="yes"/>
      <point x="564" y="515"/>
      <point x="617" y="488"/>
      <point x="642" y="473" type="qcurve"/>
      <point x="674" y="493"/>
      <point x="711" y="556"/>
      <point x="711" y="594" type="qcurve" smooth="yes"/>
      <point x="711" y="640"/>
      <point x="674" y="715"/>
      <point x="598" y="786"/>
      <point x="483" y="857"/>
      <point x="405" y="899" type="qcurve" smooth="yes"/>
      <point x="382" y="911"/>
      <point x="340" y="938"/>
      <point x="320" y="952" type="qcurve"/>
      <point x="302" y="946"/>
      <point x="276" y="916"/>
      <point x="259" y="878"/>
      <point x="250" y="838"/>
      <point x="250" y="822" type="qcurve" smooth="yes"/>
      <point x="250" y="776"/>
      <point x="284" y="705"/>
      <point x="354" y="640"/>
      <point x="463" y="572"/>
    </contour>
    <contour>
      <point x="842" y="656" type="qcurve" smooth="yes"/>
      <point x="842" y="612"/>
      <point x="823" y="536"/>
      <point x="790" y="473"/>
      <point x="748" y="425"/>
      <point x="726" y="408" type="qcurve"/>
      <point x="752" y="380"/>
      <point x="783" y="310"/>
      <point x="783" y="263" type="qcurve" smooth="yes"/>
      <point x="783" y="192"/>
      <point x="743" y="94"/>
      <point x="679" y="29"/>
      <point x="601" y="-8"/>
      <point x="525" y="-26"/>
      <point x="458" y="-30"/>
      <point x="439" y="-30" type="qcurve" smooth="yes"/>
      <point x="415" y="-30"/>
      <point x="356" y="-18"/>
      <point x="291" y="4"/>
      <point x="222" y="35"/>
      <point x="189" y="53" type="qcurve" smooth="yes"/>
      <point x="182" y="56"/>
      <point x="177" y="115"/>
      <point x="180" y="192"/>
      <point x="189" y="270"/>
      <point x="196" y="293" type="qcurve"/>
      <point x="239" y="282" type="line"/>
      <point x="241" y="240"/>
      <point x="281" y="163"/>
      <point x="348" y="103"/>
      <point x="437" y="68"/>
      <point x="489" y="68" type="qcurve" smooth="yes"/>
      <point x="561" y="68"/>
      <point x="653" y="136"/>
      <point x="653" y="207" type="qcurve" smooth="yes"/>
      <point x="653" y="247"/>
      <point x="610" y="305"/>
      <point x="539" y="352"/>
      <point x="450" y="394"/>
      <point x="405" y="419" type="qcurve" smooth="yes"/>
      <point x="339" y="455"/>
      <point x="233" y="528"/>
      <point x="159" y="611"/>
      <point x="119" y="711"/>
      <point x="119" y="775" type="qcurve" smooth="yes"/>
      <point x="119" y="812"/>
      <point x="142" y="881"/>
      <point x="181" y="942"/>
      <point x="232" y="991"/>
      <point x="260" y="1009" type="qcurve"/>
      <point x="225" y="1049"/>
      <point x="187" y="1143"/>
      <point x="187" y="1200" type="qcurve" smooth="yes"/>
      <point x="187" y="1262"/>
      <point x="237" y="1353"/>
      <point x="320" y="1412"/>
      <point x="427" y="1440"/>
      <point x="484" y="1440" type="qcurve" smooth="yes"/>
      <point x="515" y="1440"/>
      <point x="590" y="1426"/>
      <point x="663" y="1402"/>
      <point x="727" y="1371"/>
      <point x="747" y="1353" type="qcurve" smooth="yes"/>
      <point x="753" y="1347"/>
      <point x="744" y="1305"/>
      <point x="725" y="1255"/>
      <point x="703" y="1211"/>
      <point x="697" y="1203" type="qcurve"/>
      <point x="658" y="1211" type="line"/>
      <point x="610" y="1283"/>
      <point x="507" y="1350"/>
      <point x="458" y="1350" type="qcurve" smooth="yes"/>
      <point x="392" y="1350"/>
      <point x="317" y="1293"/>
      <point x="317" y="1240" type="qcurve" smooth="yes"/>
      <point x="317" y="1205"/>
      <point x="345" y="1148"/>
      <point x="400" y="1094"/>
      <point x="483" y="1040"/>
      <point x="538" y="1009" type="qcurve" smooth="yes"/>
      <point x="605" y="971"/>
      <point x="716" y="902"/>
      <point x="797" y="823"/>
      <point x="842" y="725"/>
    </contour>
  </outline>
</glyph>
<glyph name="copyright" format="1">
  <advance width="1460"/>
  <unicode hex="00A9"/>
  <outline>
    <contour>
      <point x="1018" y="369" type="qcurve"/>
      <point x="973" y="326"/>
      <point x="892" y="268"/>
      <point x="816" y="232"/>
      <point x="743" y="217"/>
      <point x="707" y="217" type="qcurve" smooth="yes"/>
      <point x="642" y="217"/>
      <point x="517" y="269"/>
      <point x="419" y="368"/>
      <point x="358" y="511"/>
      <point x="358" y="602" type="qcurve" smooth="yes"/>
      <point x="358" y="702"/>
      <point x="425" y="866"/>
      <point x="541" y="981"/>
      <point x="694" y="1044"/>
      <point x="780" y="1044" type="qcurve" smooth="yes"/>
      <point x="856" y="1044"/>
      <point x="968" y="1007"/>
      <point x="1006" y="981" type="qcurve" smooth="yes"/>
      <point x="1010" y="978"/>
      <point x="997" y="952"/>
      <point x="976" y="920"/>
      <point x="951" y="890"/>
      <point x="942" y="883" type="qcurve"/>
      <point x="918" y="887" type="line"/>
      <point x="882" y="915"/>
      <point x="792" y="963"/>
      <point x="731" y="963" type="qcurve" smooth="yes"/>
      <point x="699" y="963"/>
      <point x="615" y="931"/>
      <point x="540" y="854"/>
      <point x="489" y="724"/>
      <point x="489" y="627" type="qcurve" smooth="yes"/>
      <point x="489" y="547"/>
      <point x="548" y="427"/>
      <point x="637" y="346"/>
      <point x="738" y="305"/>
      <point x="780" y="305" type="qcurve" smooth="yes"/>
      <point x="802" y="305"/>
      <point x="844" y="313"/>
      <point x="894" y="333"/>
      <point x="953" y="369"/>
      <point x="991" y="397" type="qcurve"/>
      <point x="999" y="394"/>
      <point x="1013" y="372"/>
    </contour>
    <contour>
      <point x="1274" y="631" type="qcurve" smooth="yes"/>
      <point x="1274" y="749"/>
      <point x="1193" y="958"/>
      <point x="1048" y="1114"/>
      <point x="848" y="1204"/>
      <point x="729" y="1204" type="qcurve" smooth="yes"/>
      <point x="611" y="1204"/>
      <point x="412" y="1114"/>
      <point x="267" y="958"/>
      <point x="186" y="749"/>
      <point x="186" y="631" type="qcurve" smooth="yes"/>
      <point x="186" y="512"/>
      <point x="267" y="302"/>
      <point x="412" y="146"/>
      <point x="611" y="56"/>
      <point x="729" y="56" type="qcurve" smooth="yes"/>
      <point x="848" y="56"/>
      <point x="1048" y="146"/>
      <point x="1193" y="302"/>
      <point x="1274" y="512"/>
    </contour>
    <contour>
      <point x="1360" y="631" type="qcurve" smooth="yes"/>
      <point x="1360" y="540"/>
      <point x="1317" y="371"/>
      <point x="1238" y="224"/>
      <point x="1125" y="103"/>
      <point x="985" y="17"/>
      <point x="820" y="-30"/>
      <point x="729" y="-30" type="qcurve" smooth="yes"/>
      <point x="592" y="-30"/>
      <point x="362" y="74"/>
      <point x="194" y="253"/>
      <point x="100" y="494"/>
      <point x="100" y="631" type="qcurve" smooth="yes"/>
      <point x="100" y="767"/>
      <point x="194" y="1008"/>
      <point x="362" y="1186"/>
      <point x="592" y="1290"/>
      <point x="729" y="1290" type="qcurve" smooth="yes"/>
      <point x="820" y="1290"/>
      <point x="985" y="1243"/>
      <point x="1125" y="1157"/>
      <point x="1238" y="1037"/>
      <point x="1317" y="890"/>
      <point x="1360" y="722"/>
    </contour>
  </outline>
</glyph>
<glyph name="ordfeminine" format="1">
  <advance width="524"/>
  <unicode hex="00AA"/>
  <outline>
    <contour>
      <point x="338" y="846" type="line"/>
      <point x="338" y="992" type="line"/>
      <point x="295" y="981" type="line" smooth="yes"/>
      <point x="251" y="969"/>
      <point x="194" y="940"/>
      <point x="160" y="907"/>
      <point x="147" y="869"/>
      <point x="147" y="848" type="qcurve" smooth="yes"/>
      <point x="147" y="827"/>
      <point x="158" y="801"/>
      <point x="174" y="786"/>
      <point x="192" y="780"/>
      <point x="199" y="780" type="qcurve" smooth="yes"/>
      <point x="230" y="780"/>
      <point x="300" y="809"/>
      <point x="338" y="840" type="qcurve"/>
    </contour>
    <contour>
      <point x="51" y="586" type="line"/>
      <point x="51" y="659" type="line"/>
      <point x="485" y="659" type="line"/>
      <point x="485" y="586" type="line"/>
    </contour>
    <contour>
      <point x="514" y="768" type="line"/>
      <point x="468" y="737"/>
      <point x="407" y="711"/>
      <point x="391" y="711" type="qcurve" smooth="yes"/>
      <point x="377" y="711"/>
      <point x="348" y="751"/>
      <point x="341" y="794" type="qcurve"/>
      <point x="293" y="749"/>
      <point x="200" y="711"/>
      <point x="166" y="711" type="qcurve" smooth="yes"/>
      <point x="146" y="711"/>
      <point x="105" y="723"/>
      <point x="71" y="750"/>
      <point x="49" y="793"/>
      <point x="49" y="825" type="qcurve" smooth="yes"/>
      <point x="49" y="887"/>
      <point x="144" y="982"/>
      <point x="246" y="1010" type="qcurve" smooth="yes"/>
      <point x="338" y="1034" type="line"/>
      <point x="338" y="1051" type="line" smooth="yes"/>
      <point x="338" y="1082"/>
      <point x="331" y="1129"/>
      <point x="313" y="1161"/>
      <point x="279" y="1178"/>
      <point x="252" y="1178" type="qcurve" smooth="yes"/>
      <point x="237" y="1178"/>
      <point x="205" y="1164"/>
      <point x="181" y="1139"/>
      <point x="170" y="1104"/>
      <point x="178" y="1083" type="qcurve" smooth="yes"/>
      <point x="179" y="1078"/>
      <point x="152" y="1067"/>
      <point x="116" y="1058"/>
      <point x="81" y="1053"/>
      <point x="74" y="1055" type="qcurve"/>
      <point x="66" y="1075" type="line"/>
      <point x="70" y="1106"/>
      <point x="125" y="1164"/>
      <point x="197" y="1209"/>
      <point x="273" y="1235"/>
      <point x="299" y="1235" type="qcurve" smooth="yes"/>
      <point x="335" y="1235"/>
      <point x="385" y="1215"/>
      <point x="416" y="1169"/>
      <point x="430" y="1093"/>
      <point x="430" y="1038" type="qcurve" smooth="yes"/>
      <point x="430" y="842" type="line" smooth="yes"/>
      <point x="430" y="814"/>
      <point x="438" y="789"/>
      <point x="444" y="782" type="qcurve" smooth="yes"/>
      <point x="449" y="779"/>
      <point x="480" y="782"/>
      <point x="508" y="793" type="qcurve"/>
      <point x="514" y="768" type="line"/>
    </contour>
  </outline>
</glyph>
<glyph name="guillemotleft" format="1">
  <advance width="994"/>
  <unicode hex="00AB"/>
  <outline>
    <contour>
      <point x="80" y="430" type="line"/>
      <point x="80" y="430"/>
      <point x="80" y="441" type="qcurve" smooth="yes"/>
      <point x="80" y="452"/>
      <point x="80" y="465" type="qcurve" smooth="yes"/>
      <point x="80" y="479"/>
      <point x="81" y="502"/>
      <point x="82" y="503" type="qcurve" smooth="yes"/>
      <point x="441" y="913" type="line"/>
      <point x="483" y="883" type="line"/>
      <point x="483" y="883"/>
      <point x="463" y="847"/>
      <point x="431" y="788"/>
      <point x="389" y="713"/>
      <point x="345" y="635"/>
      <point x="304" y="560"/>
      <point x="272" y="502"/>
      <point x="252" y="467"/>
      <point x="253" y="467" type="qcurve" smooth="yes"/>
      <point x="484" y="47" type="line"/>
      <point x="441" y="17" type="line"/>
    </contour>
    <contour>
      <point x="450" y="430" type="line"/>
      <point x="450" y="430"/>
      <point x="450" y="441" type="qcurve" smooth="yes"/>
      <point x="450" y="452"/>
      <point x="450" y="465" type="qcurve" smooth="yes"/>
      <point x="450" y="479"/>
      <point x="451" y="502"/>
      <point x="452" y="503" type="qcurve" smooth="yes"/>
      <point x="811" y="913" type="line"/>
      <point x="853" y="883" type="line"/>
      <point x="853" y="883"/>
      <point x="833" y="847"/>
      <point x="801" y="788"/>
      <point x="759" y="713"/>
      <point x="715" y="635"/>
      <point x="674" y="560"/>
      <point x="642" y="502"/>
      <point x="622" y="467"/>
      <point x="623" y="467" type="qcurve" smooth="yes"/>
      <point x="854" y="47" type="line"/>
      <point x="811" y="17" type="line"/>
    </contour>
  </outline>
</glyph>
<glyph name="logicalnot" format="1">
  <advance width="961"/>
  <unicode hex="00AC"/>
  <outline>
    <contour>
      <point x="891" y="233" type="line"/>
      <point x="871" y="218"/>
      <point x="830" y="190"/>
      <point x="805" y="182" type="qcurve"/>
      <point x="780" y="207" type="line"/>
      <point x="780" y="506" type="line"/>
      <point x="86" y="506" type="line"/>
      <point x="61" y="530" type="line"/>
      <point x="66" y="550"/>
      <point x="83" y="598"/>
      <point x="92" y="618" type="qcurve"/>
      <point x="862" y="618" type="line"/>
      <point x="891" y="596" type="line"/>
      <point x="891" y="233" type="line"/>
    </contour>
  </outline>
</glyph>
<glyph name="degree" format="1">
  <advance width="733"/>
  <unicode hex="00B0"/>
  <outline>
    <contour>
      <point x="484" y="995" type="qcurve" smooth="yes"/>
      <point x="484" y="1024"/>
      <point x="469" y="1077"/>
      <point x="442" y="1118"/>
      <point x="402" y="1142"/>
      <point x="378" y="1142" type="qcurve" smooth="yes"/>
      <point x="353" y="1142"/>
      <point x="307" y="1122"/>
      <point x="271" y="1084"/>
      <point x="250" y="1031"/>
      <point x="250" y="998" type="qcurve" smooth="yes"/>
      <point x="250" y="970"/>
      <point x="264" y="917"/>
      <point x="291" y="876"/>
      <point x="330" y="851"/>
      <point x="355" y="851" type="qcurve" smooth="yes"/>
      <point x="379" y="851"/>
      <point x="425" y="870"/>
      <point x="462" y="907"/>
      <point x="484" y="960"/>
    </contour>
    <contour>
      <point x="593" y="1045" type="qcurve" smooth="yes"/>
      <point x="593" y="983"/>
      <point x="545" y="879"/>
      <point x="469" y="802"/>
      <point x="375" y="759"/>
      <point x="329" y="759" type="qcurve" smooth="yes"/>
      <point x="288" y="759"/>
      <point x="218" y="789"/>
      <point x="168" y="841"/>
      <point x="140" y="909"/>
      <point x="140" y="948" type="qcurve" smooth="yes"/>
      <point x="140" y="1010"/>
      <point x="187" y="1115"/>
      <point x="263" y="1192"/>
      <point x="357" y="1235"/>
      <point x="404" y="1235" type="qcurve" smooth="yes"/>
      <point x="443" y="1235"/>
      <point x="512" y="1204"/>
      <point x="563" y="1152"/>
      <point x="593" y="1083"/>
    </contour>
  </outline>
</glyph>
<glyph name="twosuperior" format="1">
  <advance width="673"/>
  <unicode hex="00B2"/>
  <outline>
    <contour>
      <point x="585" y="620" type="line"/>
      <point x="79" y="620" type="line"/>
      <point x="59" y="664" type="line"/>
      <point x="142" y="747"/>
      <point x="266" y="874"/>
      <point x="354" y="972"/>
      <point x="412" y="1046"/>
      <point x="445" y="1104"/>
      <point x="458" y="1151"/>
      <point x="458" y="1174" type="qcurve" smooth="yes"/>
      <point x="458" y="1230"/>
      <point x="399" y="1295"/>
      <point x="327" y="1295" type="qcurve" smooth="yes"/>
      <point x="300" y="1295"/>
      <point x="256" y="1275"/>
      <point x="225" y="1243"/>
      <point x="207" y="1201"/>
      <point x="207" y="1180" type="qcurve"/>
      <point x="183" y="1169"/>
      <point x="128" y="1154"/>
      <point x="96" y="1151" type="qcurve"/>
      <point x="78" y="1169" type="line"/>
      <point x="78" y="1200"/>
      <point x="127" y="1268"/>
      <point x="210" y="1324"/>
      <point x="317" y="1361"/>
      <point x="375" y="1361" type="qcurve" smooth="yes"/>
      <point x="421" y="1361"/>
      <point x="498" y="1341"/>
      <point x="554" y="1299"/>
      <point x="585" y="1235"/>
      <point x="585" y="1191" type="qcurve" smooth="yes"/>
      <point x="585" y="1151"/>
      <point x="547" y="1069"/>
      <point x="459" y="960"/>
      <point x="314" y="811"/>
      <point x="206" y="703" type="qcurve"/>
      <point x="479" y="703" type="line" smooth="yes"/>
      <point x="503" y="703"/>
      <point x="531" y="733"/>
      <point x="546" y="769"/>
      <point x="550" y="799"/>
      <point x="550" y="799" type="qcurve"/>
      <point x="595" y="792" type="line"/>
    </contour>
  </outline>
</glyph>
<glyph name="acute" format="1">
  <advance width="653"/>
  <unicode hex="00B4"/>
  <outline>
    <contour>
      <point x="274" y="1047" type="line"/>
      <point x="256" y="1051"/>
      <point x="229" y="1066"/>
      <point x="217" y="1075" type="qcurve"/>
      <point x="451" y="1489" type="line"/>
      <point x="463" y="1488"/>
      <point x="503" y="1483"/>
      <point x="546" y="1476"/>
      <point x="585" y="1469"/>
      <point x="596" y="1466" type="qcurve"/>
      <point x="619" y="1427" type="line"/>
    </contour>
  </outline>
</glyph>
<glyph name="paragraph" format="1">
  <advance width="1135"/>
  <unicode hex="00B6"/>
  <outline>
    <contour>
      <point x="791" y="1159" type="line"/>
      <point x="771" y="1166"/>
      <point x="731" y="1176"/>
      <point x="711" y="1181" type="qcurve"/>
      <point x="711" y="-145" type="line" smooth="yes"/>
      <point x="711" y="-156"/>
      <point x="740" y="-173"/>
      <point x="750" y="-176" type="qcurve"/>
      <point x="762" y="-173"/>
      <point x="791" y="-156"/>
      <point x="791" y="-145" type="qcurve" smooth="yes"/>
    </contour>
    <contour>
      <point x="591" y="610" type="line"/>
      <point x="592" y="1200" type="line"/>
      <point x="530" y="1206"/>
      <point x="489" y="1206" type="qcurve" smooth="yes"/>
      <point x="429" y="1206"/>
      <point x="329" y="1164"/>
      <point x="256" y="1092"/>
      <point x="215" y="994"/>
      <point x="215" y="938" type="qcurve" smooth="yes"/>
      <point x="215" y="884"/>
      <point x="253" y="768"/>
      <point x="334" y="672"/>
      <point x="459" y="610"/>
      <point x="547" y="610" type="qcurve" smooth="yes"/>
    </contour>
    <contour>
      <point x="444" y="-250" type="line"/>
      <point x="444" y="-207" type="line"/>
      <point x="513" y="-193"/>
      <point x="590" y="-159"/>
      <point x="590" y="-145" type="qcurve" smooth="yes"/>
      <point x="591" y="532" type="line"/>
      <point x="573" y="529"/>
      <point x="531" y="526"/>
      <point x="504" y="526" type="qcurve" smooth="yes"/>
      <point x="411" y="526"/>
      <point x="246" y="573"/>
      <point x="121" y="668"/>
      <point x="49" y="809"/>
      <point x="49" y="903" type="qcurve" smooth="yes"/>
      <point x="49" y="988"/>
      <point x="116" y="1130"/>
      <point x="238" y="1233"/>
      <point x="407" y="1290"/>
      <point x="508" y="1290" type="qcurve" smooth="yes"/>
      <point x="537" y="1290"/>
      <point x="630" y="1286"/>
      <point x="736" y="1279"/>
      <point x="843" y="1271"/>
      <point x="929" y="1264"/>
      <point x="983" y="1260"/>
      <point x="983" y="1260" type="qcurve"/>
      <point x="1055" y="1260" type="line"/>
      <point x="1055" y="1217" type="line"/>
      <point x="987" y="1203"/>
      <point x="909" y="1169"/>
      <point x="909" y="1155" type="qcurve" smooth="yes"/>
      <point x="909" y="-145" type="line" smooth="yes"/>
      <point x="909" y="-158"/>
      <point x="982" y="-193"/>
      <point x="1055" y="-207" type="qcurve"/>
      <point x="1055" y="-250" type="line"/>
    </contour>
  </outline>
</glyph>
<glyph name="onehalf" format="1">
  <advance width="1200"/>
  <unicode hex="00BD"/>
  <outline>
    <contour>
      <point x="97" y="637" type="line"/>
      <point x="97" y="671" type="line"/>
      <point x="141" y="675"/>
      <point x="197" y="686"/>
      <point x="228" y="697"/>
      <point x="240" y="709"/>
      <point x="240" y="714" type="qcurve" smooth="yes"/>
      <point x="240" y="1080" type="line" smooth="yes"/>
      <point x="240" y="1100"/>
      <point x="238" y="1121"/>
      <point x="230" y="1127" type="qcurve" smooth="yes"/>
      <point x="227" y="1130"/>
      <point x="210" y="1134"/>
      <point x="179" y="1133"/>
      <point x="129" y="1127"/>
      <point x="92" y="1120" type="qcurve"/>
      <point x="80" y="1153" type="line"/>
      <point x="103" y="1159"/>
      <point x="170" y="1179"/>
      <point x="239" y="1202"/>
      <point x="302" y="1226"/>
      <point x="320" y="1235" type="qcurve"/>
      <point x="340" y="1218" type="line"/>
      <point x="340" y="714" type="line" smooth="yes"/>
      <point x="340" y="709"/>
      <point x="350" y="698"/>
      <point x="378" y="686"/>
      <point x="430" y="675"/>
      <point x="472" y="671" type="qcurve"/>
      <point x="472" y="637" type="line"/>
    </contour>
    <contour>
      <point x="1112" y="0" type="line"/>
      <point x="707" y="0" type="line"/>
      <point x="691" y="35" type="line"/>
      <point x="791" y="134"/>
      <point x="915" y="266"/>
      <point x="985" y="356"/>
      <point x="1010" y="416"/>
      <point x="1010" y="443" type="qcurve" smooth="yes"/>
      <point x="1010" y="488"/>
      <point x="963" y="540"/>
      <point x="906" y="540" type="qcurve" smooth="yes"/>
      <point x="885" y="540"/>
      <point x="849" y="524"/>
      <point x="824" y="498"/>
      <point x="810" y="465"/>
      <point x="810" y="448" type="qcurve"/>
      <point x="790" y="439"/>
      <point x="747" y="427"/>
      <point x="721" y="425" type="qcurve"/>
      <point x="706" y="439" type="line"/>
      <point x="706" y="464"/>
      <point x="746" y="519"/>
      <point x="812" y="564"/>
      <point x="898" y="593"/>
      <point x="944" y="593" type="qcurve" smooth="yes"/>
      <point x="981" y="593"/>
      <point x="1042" y="577"/>
      <point x="1087" y="543"/>
      <point x="1112" y="492"/>
      <point x="1112" y="457" type="qcurve" smooth="yes"/>
      <point x="1112" y="425"/>
      <point x="1082" y="359"/>
      <point x="1011" y="272"/>
      <point x="895" y="153"/>
      <point x="809" y="66" type="qcurve"/>
      <point x="1027" y="66" type="line" smooth="yes"/>
      <point x="1046" y="66"/>
      <point x="1069" y="90"/>
      <point x="1081" y="119"/>
      <point x="1084" y="143"/>
      <point x="1084" y="143" type="qcurve"/>
      <point x="1120" y="138" type="line"/>
    </contour>
    <contour>
      <point x="316" y="3" type="line"/>
      <point x="293" y="-8"/>
      <point x="250" y="-23"/>
      <point x="223" y="-30" type="qcurve"/>
      <point x="198" y="0" type="line"/>
      <point x="960" y="1203" type="line"/>
      <point x="980" y="1211"/>
      <point x="1027" y="1230"/>
      <point x="1049" y="1235" type="qcurve"/>
      <point x="1074" y="1207" type="line"/>
    </contour>
  </outline>
</glyph>
<glyph name="questiondown" format="1">
  <advance width="887"/>
  <unicode hex="00BF"/>
  <outline>
    <contour>
      <point x="586" y="848" type="qcurve" smooth="yes"/>
      <point x="586" y="814"/>
      <point x="564" y="755"/>
      <point x="525" y="710"/>
      <point x="474" y="684"/>
      <point x="446" y="684" type="qcurve" smooth="yes"/>
      <point x="395" y="684"/>
      <point x="348" y="743"/>
      <point x="348" y="799" type="qcurve" smooth="yes"/>
      <point x="348" y="833"/>
      <point x="369" y="891"/>
      <point x="406" y="935"/>
      <point x="456" y="960"/>
      <point x="485" y="960" type="qcurve" smooth="yes"/>
      <point x="538" y="960"/>
      <point x="586" y="902"/>
    </contour>
    <contour>
      <point x="807" y="-233" type="qcurve" smooth="yes"/>
      <point x="807" y="-304"/>
      <point x="738" y="-423"/>
      <point x="621" y="-510"/>
      <point x="469" y="-559"/>
      <point x="385" y="-559" type="qcurve" smooth="yes"/>
      <point x="311" y="-559"/>
      <point x="197" y="-513"/>
      <point x="120" y="-430"/>
      <point x="80" y="-315"/>
      <point x="80" y="-246" type="qcurve" smooth="yes"/>
      <point x="80" y="-171"/>
      <point x="127" y="-50"/>
      <point x="199" y="54"/>
      <point x="283" y="150"/>
      <point x="359" y="251"/>
      <point x="413" y="364"/>
      <point x="418" y="434" type="qcurve" smooth="yes"/>
      <point x="424" y="530" type="line"/>
      <point x="441" y="546"/>
      <point x="472" y="563"/>
      <point x="498" y="571" type="qcurve"/>
      <point x="524" y="551" type="line"/>
      <point x="530" y="434" type="line" smooth="yes"/>
      <point x="534" y="377"/>
      <point x="495" y="265"/>
      <point x="431" y="155"/>
      <point x="356" y="49"/>
      <point x="290" y="-54"/>
      <point x="246" y="-153"/>
      <point x="246" y="-201" type="qcurve" smooth="yes"/>
      <point x="246" y="-325"/>
      <point x="358" y="-465"/>
      <point x="463" y="-465" type="qcurve" smooth="yes"/>
      <point x="499" y="-465"/>
      <point x="564" y="-432"/>
      <point x="614" y="-377"/>
      <point x="643" y="-305"/>
      <point x="643" y="-266" type="qcurve" smooth="yes"/>
      <point x="643" y="-251"/>
      <point x="635" y="-223"/>
      <point x="629" y="-209" type="qcurve"/>
      <point x="663" y="-190"/>
      <point x="733" y="-173"/>
      <point x="778" y="-170" type="qcurve"/>
      <point x="805" y="-201" type="line" smooth="yes"/>
      <point x="807" y="-209"/>
      <point x="807" y="-217" type="qcurve" smooth="yes"/>
      <point x="807" y="-225"/>
    </contour>
  </outline>
</glyph>
<glyph name="Eth" format="1">
  <advance width="1214"/>
  <unicode hex="00D0"/>
  <outline>
    <contour>
      <point x="614" y="615" type="line"/>
      <point x="354" y="615" type="line"/>
      <point x="354" y="154" type="line" smooth="yes"/>
      <point x="354" y="132"/>
      <point x="364" y="118" type="qcurve" smooth="yes"/>
      <point x="378" y="101"/>
      <point x="459" y="84"/>
      <point x="537" y="84" type="qcurve" smooth="yes"/>
      <point x="606" y="84"/>
      <point x="753" y="152"/>
      <point x="874" y="286"/>
      <point x="952" y="485"/>
      <point x="952" y="616" type="qcurve" smooth="yes"/>
      <point x="952" y="759"/>
      <point x="886" y="979"/>
      <point x="759" y="1129"/>
      <point x="573" y="1206"/>
      <point x="453" y="1206" type="qcurve" smooth="yes"/>
      <point x="402" y="1206"/>
      <point x="354" y="1203" type="qcurve"/>
      <point x="354" y="705" type="line"/>
      <point x="614" y="705" type="line"/>
      <point x="639" y="682" type="line"/>
    </contour>
    <contour>
      <point x="1124" y="676" type="qcurve" smooth="yes"/>
      <point x="1124" y="549"/>
      <point x="1076" y="350"/>
      <point x="994" y="200"/>
      <point x="885" y="95"/>
      <point x="764" y="30"/>
      <point x="638" y="0"/>
      <point x="580" y="0" type="qcurve" smooth="yes"/>
      <point x="82" y="0" type="line"/>
      <point x="84" y="1" type="line"/>
      <point x="49" y="0" type="line"/>
      <point x="49" y="43" type="line"/>
      <point x="117" y="57"/>
      <point x="195" y="90"/>
      <point x="195" y="104" type="qcurve" smooth="yes"/>
      <point x="195" y="615" type="line"/>
      <point x="49" y="615" type="line"/>
      <point x="27" y="640" type="line"/>
      <point x="32" y="655"/>
      <point x="43" y="689"/>
      <point x="49" y="705" type="qcurve"/>
      <point x="195" y="705" type="line"/>
      <point x="195" y="1188" type="line"/>
      <point x="155" y="1183"/>
      <point x="82" y="1173"/>
      <point x="49" y="1168" type="qcurve"/>
      <point x="41" y="1230" type="line"/>
      <point x="85" y="1242"/>
      <point x="200" y="1264"/>
      <point x="328" y="1281"/>
      <point x="459" y="1290"/>
      <point x="518" y="1290" type="qcurve" smooth="yes"/>
      <point x="657" y="1290"/>
      <point x="881" y="1210"/>
      <point x="1039" y="1055"/>
      <point x="1124" y="826"/>
    </contour>
  </outline>
</glyph>
<glyph name="multiply" format="1">
  <advance width="840"/>
  <unicode hex="00D7"/>
  <outline>
    <contour>
      <point x="93" y="314" type="line"/>
      <point x="341" y="562" type="line"/>
      <point x="95" y="808" type="line"/>
      <point x="94" y="842" type="line"/>
      <point x="114" y="851"/>
      <point x="165" y="868"/>
      <point x="187" y="873" type="qcurve"/>
      <point x="419" y="640" type="line"/>
      <point x="652" y="873" type="line"/>
      <point x="674" y="868"/>
      <point x="725" y="851"/>
      <point x="745" y="842" type="qcurve"/>
      <point x="745" y="808" type="line"/>
      <point x="498" y="561" type="line"/>
      <point x="746" y="314" type="line"/>
      <point x="746" y="280" type="line"/>
      <point x="726" y="272"/>
      <point x="672" y="254"/>
      <point x="654" y="249" type="qcurve"/>
      <point x="420" y="483" type="line"/>
      <point x="186" y="249" type="line"/>
      <point x="167" y="254"/>
      <point x="113" y="272"/>
      <point x="93" y="280" type="qcurve"/>
    </contour>
  </outline>
</glyph>
<glyph name="Thorn" format="1">
  <advance width="1071"/>
  <unicode hex="00DE"/>
  <outline>
    <contour>
      <point x="49" y="0" type="line"/>
      <point x="49" y="43" type="line"/>
      <point x="117" y="57"/>
      <point x="195" y="90"/>
      <point x="195" y="104" type="qcurve" smooth="yes"/>
      <point x="195" y="1155" type="line" smooth="yes"/>
      <point x="195" y="1167"/>
      <point x="121" y="1203"/>
      <point x="49" y="1217" type="qcurve"/>
      <point x="49" y="1260" type="line"/>
      <point x="530" y="1260" type="line"/>
      <point x="530" y="1217" type="line"/>
      <point x="479" y="1208"/>
      <point x="411" y="1192"/>
      <point x="370" y="1177"/>
      <point x="354" y="1162"/>
      <point x="354" y="1155" type="qcurve" smooth="yes"/>
      <point x="354" y="1014" type="line"/>
      <point x="418" y="1020"/>
      <point x="510" y="1020" type="qcurve" smooth="yes"/>
      <point x="618" y="1020"/>
      <point x="792" y="974"/>
      <point x="915" y="884"/>
      <point x="981" y="752"/>
      <point x="981" y="666" type="qcurve" smooth="yes"/>
      <point x="981" y="597"/>
      <point x="942" y="483"/>
      <point x="878" y="394"/>
      <point x="793" y="328"/>
      <point x="703" y="285"/>
      <point x="612" y="264"/>
      <point x="573" y="264" type="qcurve" smooth="yes"/>
      <point x="527" y="264"/>
      <point x="446" y="280"/>
      <point x="412" y="297" type="qcurve"/>
      <point x="389" y="371" type="line"/>
      <point x="431" y="352"/>
      <point x="508" y="342"/>
      <point x="543" y="342" type="qcurve" smooth="yes"/>
      <point x="589" y="342"/>
      <point x="690" y="377"/>
      <point x="774" y="448"/>
      <point x="829" y="554"/>
      <point x="829" y="625" type="qcurve" smooth="yes"/>
      <point x="829" y="708"/>
      <point x="769" y="826"/>
      <point x="667" y="902"/>
      <point x="530" y="938"/>
      <point x="453" y="938" type="qcurve" smooth="yes"/>
      <point x="403" y="938"/>
      <point x="354" y="935" type="qcurve"/>
      <point x="354" y="104" type="line" smooth="yes"/>
      <point x="354" y="98"/>
      <point x="370" y="84"/>
      <point x="410" y="68"/>
      <point x="478" y="52"/>
      <point x="530" y="43" type="qcurve"/>
      <point x="530" y="0" type="line"/>
    </contour>
  </outline>
</glyph>
<glyph name="germandbls" format="1">
  <advance width="1157"/>
  <unicode hex="00DF"/>
  <outline>
    <contour>
      <point x="1067" y="283" type="qcurve" smooth="yes"/>
      <point x="1067" y="224"/>
      <point x="1029" y="112"/>
      <point x="947" y="24"/>
      <point x="819" y="-30"/>
      <point x="729" y="-30" type="qcurve" smooth="yes"/>
      <point x="701" y="-30"/>
      <point x="619" y="-15"/>
      <point x="539" y="7"/>
      <point x="476" y="35"/>
      <point x="469" y="47" type="qcurve" smooth="yes"/>
      <point x="466" y="52"/>
      <point x="463" y="87"/>
      <point x="463" y="111" type="qcurve" smooth="yes"/>
      <point x="463" y="135"/>
      <point x="465" y="189"/>
      <point x="470" y="239"/>
      <point x="478" y="276"/>
      <point x="483" y="283" type="qcurve"/>
      <point x="522" y="270" type="line"/>
      <point x="529" y="216"/>
      <point x="579" y="140"/>
      <point x="649" y="91"/>
      <point x="730" y="68"/>
      <point x="768" y="68" type="qcurve" smooth="yes"/>
      <point x="803" y="68"/>
      <point x="865" y="90"/>
      <point x="910" y="129"/>
      <point x="936" y="184"/>
      <point x="936" y="217" type="qcurve" smooth="yes"/>
      <point x="936" y="286"/>
      <point x="869" y="378"/>
      <point x="768" y="447"/>
      <point x="651" y="503"/>
      <point x="550" y="571"/>
      <point x="483" y="661"/>
      <point x="483" y="729" type="qcurve" smooth="yes"/>
      <point x="483" y="796"/>
      <point x="532" y="881"/>
      <point x="606" y="936"/>
      <point x="692" y="974"/>
      <point x="766" y="1016"/>
      <point x="815" y="1074"/>
      <point x="815" y="1122" type="qcurve" smooth="yes"/>
      <point x="815" y="1173"/>
      <point x="787" y="1281"/>
      <point x="727" y="1370"/>
      <point x="632" y="1427"/>
      <point x="565" y="1427" type="qcurve" smooth="yes"/>
      <point x="517" y="1427"/>
      <point x="435" y="1391"/>
      <point x="377" y="1299"/>
      <point x="344" y="1140"/>
      <point x="344" y="1016" type="qcurve" smooth="yes"/>
      <point x="344" y="0" type="line"/>
      <point x="55" y="0" type="line"/>
      <point x="55" y="43" type="line"/>
      <point x="123" y="55"/>
      <point x="195" y="90"/>
      <point x="195" y="102" type="qcurve" smooth="yes"/>
      <point x="195" y="961" type="line" smooth="yes"/>
      <point x="195" y="1081"/>
      <point x="228" y="1243"/>
      <point x="282" y="1353"/>
      <point x="354" y="1426"/>
      <point x="393" y="1458" type="qcurve" smooth="yes"/>
      <point x="447" y="1502"/>
      <point x="581" y="1550"/>
      <point x="653" y="1550" type="qcurve" smooth="yes"/>
      <point x="739" y="1550"/>
      <point x="859" y="1479"/>
      <point x="934" y="1371"/>
      <point x="967" y="1245"/>
      <point x="967" y="1190" type="qcurve" smooth="yes"/>
      <point x="967" y="1108"/>
      <point x="916" y="1004"/>
      <point x="840" y="938"/>
      <point x="750" y="896"/>
      <point x="674" y="858"/>
      <point x="623" y="810"/>
      <point x="623" y="770" type="qcurve" smooth="yes"/>
      <point x="623" y="737"/>
      <point x="661" y="688"/>
      <point x="724" y="646"/>
      <point x="803" y="607"/>
      <point x="887" y="563"/>
      <point x="966" y="510"/>
      <point x="1029" y="439"/>
      <point x="1067" y="345"/>
    </contour>
  </outline>
</glyph>
<glyph name="eth" format="1">
  <advance width="1020"/>
  <unicode hex="00F0"/>
  <outline>
    <contour>
      <point x="786" y="551" type="qcurve" smooth="yes"/>
      <point x="786" y="560"/>
      <point x="786" y="569" type="qcurve" smooth="yes"/>
      <point x="786" y="578"/>
      <point x="785" y="586" type="qcurve" smooth="yes"/>
      <point x="766" y="643"/>
      <point x="697" y="740"/>
      <point x="612" y="811"/>
      <point x="518" y="850"/>
      <point x="475" y="850" type="qcurve" smooth="yes"/>
      <point x="416" y="850"/>
      <point x="325" y="792"/>
      <point x="264" y="691"/>
      <point x="233" y="553"/>
      <point x="233" y="473" type="qcurve" smooth="yes"/>
      <point x="233" y="394"/>
      <point x="286" y="251"/>
      <point x="367" y="143"/>
      <point x="463" y="80"/>
      <point x="506" y="80" type="qcurve" smooth="yes"/>
      <point x="561" y="80"/>
      <point x="662" y="135"/>
      <point x="740" y="250"/>
      <point x="786" y="428"/>
    </contour>
    <contour>
      <point x="934" y="592" type="qcurve" smooth="yes"/>
      <point x="934" y="476"/>
      <point x="890" y="294"/>
      <point x="818" y="156"/>
      <point x="725" y="59"/>
      <point x="628" y="-2"/>
      <point x="534" y="-30"/>
      <point x="496" y="-30" type="qcurve" smooth="yes"/>
      <point x="398" y="-30"/>
      <point x="244" y="42"/>
      <point x="137" y="168"/>
      <point x="80" y="342"/>
      <point x="80" y="444" type="qcurve" smooth="yes"/>
      <point x="80" y="543"/>
      <point x="152" y="730"/>
      <point x="271" y="874"/>
      <point x="425" y="961"/>
      <point x="506" y="961" type="qcurve" smooth="yes"/>
      <point x="536" y="961"/>
      <point x="600" y="940"/>
      <point x="664" y="904"/>
      <point x="724" y="856"/>
      <point x="750" y="829" type="qcurve"/>
      <point x="721" y="930"/>
      <point x="621" y="1093"/>
      <point x="550" y="1165" type="qcurve"/>
      <point x="324" y="1067" type="line"/>
      <point x="305" y="1069"/>
      <point x="285" y="1071"/>
      <point x="269" y="1074"/>
      <point x="250" y="1080"/>
      <point x="233" y="1085" type="qcurve"/>
      <point x="223" y="1122" type="line"/>
      <point x="478" y="1233" type="line"/>
      <point x="451" y="1257"/>
      <point x="392" y="1296"/>
      <point x="326" y="1323"/>
      <point x="253" y="1333"/>
      <point x="211" y="1327" type="qcurve"/>
      <point x="205" y="1368" type="line"/>
      <point x="406" y="1440" type="line"/>
      <point x="519" y="1365"/>
      <point x="603" y="1287" type="qcurve"/>
      <point x="811" y="1378" type="line"/>
      <point x="835" y="1374"/>
      <point x="860" y="1370"/>
      <point x="877" y="1366"/>
      <point x="892" y="1360"/>
      <point x="905" y="1356" type="qcurve"/>
      <point x="911" y="1321" type="line"/>
      <point x="673" y="1218" type="line"/>
      <point x="742" y="1143"/>
      <point x="841" y="988"/>
      <point x="904" y="830"/>
      <point x="934" y="670"/>
    </contour>
  </outline>
</glyph>
<glyph name="dcroat" format="1">
  <advance width="1065"/>
  <unicode hex="0111"/>
  <outline>
    <contour>
      <point x="745" y="272" type="line"/>
      <point x="745" y="730" type="line"/>
      <point x="712" y="787"/>
      <point x="592" y="850"/>
      <point x="520" y="850" type="qcurve" smooth="yes"/>
      <point x="456" y="850"/>
      <point x="350" y="803"/>
      <point x="273" y="709"/>
      <point x="230" y="569"/>
      <point x="230" y="475" type="qcurve" smooth="yes"/>
      <point x="230" y="390"/>
      <point x="279" y="252"/>
      <point x="355" y="155"/>
      <point x="446" y="102"/>
      <point x="487" y="102" type="qcurve" smooth="yes"/>
      <point x="521" y="102"/>
      <point x="587" y="129"/>
      <point x="652" y="174"/>
      <point x="714" y="231"/>
      <point x="745" y="261" type="qcurve"/>
    </contour>
    <contour>
      <point x="1051" y="84" type="line"/>
      <point x="1005" y="53"/>
      <point x="934" y="10"/>
      <point x="881" y="-18"/>
      <point x="843" y="-31"/>
      <point x="829" y="-31" type="qcurve" smooth="yes"/>
      <point x="796" y="-31"/>
      <point x="754" y="60"/>
      <point x="747" y="169" type="qcurve"/>
      <point x="709" y="123"/>
      <point x="634" y="49"/>
      <point x="555" y="-2"/>
      <point x="467" y="-30"/>
      <point x="416" y="-30" type="qcurve" smooth="yes"/>
      <point x="360" y="-30"/>
      <point x="242" y="35"/>
      <point x="143" y="157"/>
      <point x="80" y="333"/>
      <point x="80" y="444" type="qcurve" smooth="yes"/>
      <point x="80" y="501"/>
      <point x="111" y="623"/>
      <point x="169" y="737"/>
      <point x="253" y="839"/>
      <point x="357" y="916"/>
      <point x="481" y="960"/>
      <point x="551" y="960" type="qcurve" smooth="yes"/>
      <point x="598" y="960"/>
      <point x="691" y="937"/>
      <point x="745" y="897" type="qcurve"/>
      <point x="745" y="1140" type="line"/>
      <point x="465" y="1140" type="line"/>
      <point x="442" y="1162" type="line"/>
      <point x="447" y="1178"/>
      <point x="457" y="1214"/>
      <point x="465" y="1230" type="qcurve"/>
      <point x="745" y="1230" type="line"/>
      <point x="745" y="1274" type="line" smooth="yes"/>
      <point x="745" y="1329"/>
      <point x="739" y="1394"/>
      <point x="711" y="1429"/>
      <point x="653" y="1442"/>
      <point x="600" y="1446" type="qcurve"/>
      <point x="600" y="1485" type="line"/>
      <point x="682" y="1496"/>
      <point x="812" y="1533"/>
      <point x="864" y="1550" type="qcurve"/>
      <point x="895" y="1520" type="line"/>
      <point x="895" y="1230" type="line"/>
      <point x="1040" y="1230" type="line"/>
      <point x="1063" y="1205" type="line"/>
      <point x="1040" y="1140" type="line"/>
      <point x="895" y="1140" type="line"/>
      <point x="895" y="254" type="line" smooth="yes"/>
      <point x="895" y="219"/>
      <point x="898" y="169"/>
      <point x="904" y="135"/>
      <point x="912" y="113"/>
      <point x="918" y="106" type="qcurve" smooth="yes"/>
      <point x="927" y="95"/>
      <point x="978" y="104"/>
      <point x="1038" y="127" type="qcurve"/>
      <point x="1051" y="84" type="line"/>
    </contour>
  </outline>
</glyph>
<glyph name="eng" format="1">
  <advance width="1120"/>
  <unicode hex="014B"/>
  <outline>
    <contour>
      <point x="961" y="88" type="line"/>
      <point x="961" y="-29"/>
      <point x="924" y="-189"/>
      <point x="863" y="-300"/>
      <point x="785" y="-375"/>
      <point x="745" y="-407" type="qcurve" smooth="yes"/>
      <point x="718" y="-430"/>
      <point x="650" y="-464"/>
      <point x="582" y="-488"/>
      <point x="521" y="-500"/>
      <point x="502" y="-500" type="qcurve" smooth="yes"/>
      <point x="468" y="-500"/>
      <point x="389" y="-480"/>
      <point x="320" y="-450"/>
      <point x="274" y="-416"/>
      <point x="274" y="-401" type="qcurve" smooth="yes"/>
      <point x="274" y="-392"/>
      <point x="304" y="-361"/>
      <point x="345" y="-327"/>
      <point x="389" y="-297"/>
      <point x="403" y="-290" type="qcurve"/>
      <point x="432" y="-317"/>
      <point x="493" y="-351"/>
      <point x="550" y="-372"/>
      <point x="598" y="-380"/>
      <point x="613" y="-380" type="qcurve" smooth="yes"/>
      <point x="641" y="-380"/>
      <point x="710" y="-343"/>
      <point x="770" y="-249"/>
      <point x="811" y="-89"/>
      <point x="811" y="35" type="qcurve" smooth="yes"/>
      <point x="811" y="633" type="line" smooth="yes"/>
      <point x="811" y="694"/>
      <point x="797" y="770"/>
      <point x="766" y="813"/>
      <point x="717" y="829"/>
      <point x="682" y="829" type="qcurve" smooth="yes"/>
      <point x="651" y="829"/>
      <point x="574" y="800"/>
      <point x="487" y="734"/>
      <point x="392" y="627"/>
      <point x="344" y="549" type="qcurve"/>
      <point x="344" y="104" type="line" smooth="yes"/>
      <point x="344" y="89"/>
      <point x="420" y="57"/>
      <point x="485" y="43" type="qcurve"/>
      <point x="485" y="0" type="line"/>
      <point x="55" y="0" type="line"/>
      <point x="55" y="43" type="line"/>
      <point x="121" y="60"/>
      <point x="195" y="87"/>
      <point x="195" y="104" type="qcurve" smooth="yes"/>
      <point x="195" y="711" type="line" smooth="yes"/>
      <point x="195" y="750"/>
      <point x="189" y="796"/>
      <point x="162" y="822"/>
      <point x="106" y="834"/>
      <point x="55" y="840" type="qcurve"/>
      <point x="55" y="881" type="line"/>
      <point x="123" y="892"/>
      <point x="239" y="933"/>
      <point x="295" y="961" type="qcurve"/>
      <point x="330" y="926" type="line"/>
      <point x="340" y="676" type="line"/>
      <point x="384" y="743"/>
      <point x="490" y="848"/>
      <point x="598" y="921"/>
      <point x="700" y="960"/>
      <point x="739" y="960" type="qcurve" smooth="yes"/>
      <point x="782" y="960"/>
      <point x="862" y="934"/>
      <point x="924" y="880"/>
      <point x="961" y="797"/>
      <point x="961" y="741" type="qcurve" smooth="yes"/>
      <point x="961" y="88" type="line"/>
    </contour>
  </outline>
</glyph>
<glyph name="OE" format="1">
  <advance width="1634"/>
  <unicode hex="0152"/>
  <outline>
    <contour>
      <point x="604" y="90" type="qcurve" smooth="yes"/>
      <point x="644" y="90"/>
      <point x="714" y="93"/>
      <point x="775" y="103"/>
      <point x="829" y="122"/>
      <point x="854" y="139" type="qcurve"/>
      <point x="854" y="1099" type="line"/>
      <point x="801" y="1140"/>
      <point x="675" y="1176"/>
      <point x="604" y="1176" type="qcurve" smooth="yes"/>
      <point x="515" y="1176"/>
      <point x="374" y="1100"/>
      <point x="277" y="961"/>
      <point x="225" y="763"/>
      <point x="225" y="641" type="qcurve" smooth="yes"/>
      <point x="225" y="529"/>
      <point x="286" y="329"/>
      <point x="389" y="178"/>
      <point x="527" y="90"/>
    </contour>
    <contour>
      <point x="1575" y="244" type="line"/>
      <point x="1567" y="157"/>
      <point x="1542" y="29"/>
      <point x="1534" y="0" type="qcurve"/>
      <point x="880" y="0" type="line" smooth="yes"/>
      <point x="827" y="-1"/>
      <point x="751" y="-10"/>
      <point x="685" y="-21"/>
      <point x="619" y="-30"/>
      <point x="575" y="-30" type="qcurve" smooth="yes"/>
      <point x="455" y="-30"/>
      <point x="267" y="76"/>
      <point x="138" y="254"/>
      <point x="70" y="486"/>
      <point x="70" y="612" type="qcurve" smooth="yes"/>
      <point x="70" y="748"/>
      <point x="158" y="994"/>
      <point x="310" y="1180"/>
      <point x="515" y="1290"/>
      <point x="633" y="1290" type="qcurve" smooth="yes"/>
      <point x="673" y="1290"/>
      <point x="732" y="1281"/>
      <point x="786" y="1270"/>
      <point x="845" y="1261"/>
      <point x="885" y="1260" type="qcurve" smooth="yes"/>
      <point x="1477" y="1260" type="line"/>
      <point x="1507" y="1235" type="line"/>
      <point x="1505" y="1209"/>
      <point x="1498" y="1147"/>
      <point x="1487" y="1085"/>
      <point x="1474" y="1029"/>
      <point x="1468" y="1010" type="qcurve"/>
      <point x="1421" y="1010" type="line"/>
      <point x="1419" y="1056"/>
      <point x="1407" y="1117"/>
      <point x="1387" y="1154"/>
      <point x="1358" y="1169"/>
      <point x="1339" y="1169" type="qcurve" smooth="yes"/>
      <point x="1016" y="1169" type="line"/>
      <point x="1016" y="735" type="line"/>
      <point x="1378" y="735" type="line"/>
      <point x="1407" y="707" type="line"/>
      <point x="1398" y="693"/>
      <point x="1374" y="662"/>
      <point x="1349" y="633"/>
      <point x="1325" y="608"/>
      <point x="1315" y="600" type="qcurve"/>
      <point x="1300" y="615"/>
      <point x="1265" y="635"/>
      <point x="1220" y="649"/>
      <point x="1158" y="655"/>
      <point x="1116" y="655" type="qcurve" smooth="yes"/>
      <point x="1016" y="655" type="line"/>
      <point x="1016" y="154" type="line" smooth="yes"/>
      <point x="1016" y="139"/>
      <point x="1018" y="116"/>
      <point x="1046" y="99"/>
      <point x="1114" y="90"/>
      <point x="1180" y="90" type="qcurve" smooth="yes"/>
      <point x="1309" y="90" type="line" smooth="yes"/>
      <point x="1355" y="90"/>
      <point x="1420" y="100"/>
      <point x="1469" y="135"/>
      <point x="1510" y="203"/>
      <point x="1532" y="262" type="qcurve"/>
      <point x="1575" y="244" type="line"/>
    </contour>
  </outline>
</glyph>
<glyph name="oe" format="1">
  <advance width="1624"/>
  <unicode hex="0153"/>
  <outline>
    <contour>
      <point x="1184" y="856" type="qcurve" smooth="yes"/>
      <point x="1136" y="856"/>
      <point x="1054" y="816"/>
      <point x="990" y="744"/>
      <point x="946" y="642"/>
      <point x="937" y="580" type="qcurve"/>
      <point x="1339" y="580" type="line" smooth="yes"/>
      <point x="1361" y="580"/>
      <point x="1378" y="595"/>
      <point x="1378" y="616" type="qcurve" smooth="yes"/>
      <point x="1378" y="643"/>
      <point x="1363" y="725"/>
      <point x="1321" y="801"/>
      <point x="1245" y="856"/>
    </contour>
    <contour>
      <point x="776" y="455" type="qcurve" smooth="yes"/>
      <point x="776" y="535"/>
      <point x="725" y="678"/>
      <point x="640" y="786"/>
      <point x="532" y="850"/>
      <point x="475" y="850" type="qcurve" smooth="yes"/>
      <point x="421" y="850"/>
      <point x="332" y="792"/>
      <point x="268" y="691"/>
      <point x="233" y="553"/>
      <point x="233" y="473" type="qcurve" smooth="yes"/>
      <point x="233" y="394"/>
      <point x="287" y="251"/>
      <point x="373" y="143"/>
      <point x="481" y="80"/>
      <point x="535" y="80" type="qcurve" smooth="yes"/>
      <point x="589" y="80"/>
      <point x="677" y="137"/>
      <point x="741" y="238"/>
      <point x="776" y="375"/>
    </contour>
    <contour>
      <point x="1544" y="557" type="qcurve"/>
      <point x="1524" y="537"/>
      <point x="1464" y="502"/>
      <point x="1432" y="489" type="qcurve"/>
      <point x="930" y="489" type="line"/>
      <point x="930" y="487" type="line" smooth="yes"/>
      <point x="930" y="412"/>
      <point x="970" y="273"/>
      <point x="1044" y="166"/>
      <point x="1149" y="102"/>
      <point x="1214" y="102" type="qcurve" smooth="yes"/>
      <point x="1242" y="102"/>
      <point x="1296" y="109"/>
      <point x="1361" y="136"/>
      <point x="1443" y="190"/>
      <point x="1499" y="236" type="qcurve"/>
      <point x="1512" y="229"/>
      <point x="1531" y="203"/>
      <point x="1536" y="195" type="qcurve"/>
      <point x="1470" y="122"/>
      <point x="1369" y="33"/>
      <point x="1282" y="-15"/>
      <point x="1200" y="-30"/>
      <point x="1153" y="-30" type="qcurve" smooth="yes"/>
      <point x="1104" y="-30"/>
      <point x="1010" y="-1"/>
      <point x="927" y="54"/>
      <point x="857" y="133"/>
      <point x="832" y="183" type="qcurve"/>
      <point x="800" y="136"/>
      <point x="719" y="58"/>
      <point x="627" y="1"/>
      <point x="527" y="-30"/>
      <point x="475" y="-30" type="qcurve" smooth="yes"/>
      <point x="390" y="-30"/>
      <point x="245" y="42"/>
      <point x="140" y="168"/>
      <point x="80" y="342"/>
      <point x="80" y="444" type="qcurve" smooth="yes"/>
      <point x="80" y="510"/>
      <point x="114" y="638"/>
      <point x="175" y="753"/>
      <point x="259" y="850"/>
      <point x="360" y="920"/>
      <point x="474" y="960"/>
      <point x="535" y="960" type="qcurve" smooth="yes"/>
      <point x="644" y="960"/>
      <point x="817" y="847"/>
      <point x="868" y="750" type="qcurve"/>
      <point x="894" y="788"/>
      <point x="957" y="854"/>
      <point x="995" y="880" type="qcurve" smooth="yes"/>
      <point x="1017" y="895"/>
      <point x="1074" y="924"/>
      <point x="1132" y="947"/>
      <point x="1189" y="960"/>
      <point x="1212" y="960" type="qcurve" smooth="yes"/>
      <point x="1274" y="960"/>
      <point x="1371" y="924"/>
      <point x="1445" y="863"/>
      <point x="1497" y="782"/>
      <point x="1529" y="692"/>
      <point x="1544" y="599"/>
    </contour>
  </outline>
</glyph>
<glyph name="Tbar" format="1">
  <advance width="1128"/>
  <unicode hex="0166"/>
  <outline>
    <contour>
      <point x="306" y="0" type="line"/>
      <point x="306" y="43" type="line"/>
      <point x="352" y="52"/>
      <point x="415" y="72"/>
      <point x="453" y="91"/>
      <point x="470" y="108"/>
      <point x="470" y="115" type="qcurve" smooth="yes"/>
      <point x="470" y="615" type="line"/>
      <point x="192" y="615" type="line"/>
      <point x="170" y="640" type="line"/>
      <point x="175" y="655"/>
      <point x="186" y="689"/>
      <point x="192" y="705" type="qcurve"/>
      <point x="470" y="705" type="line"/>
      <point x="470" y="1170" type="line"/>
      <point x="171" y="1170" type="line" smooth="yes"/>
      <point x="156" y="1170"/>
      <point x="131" y="1159"/>
      <point x="106" y="1123"/>
      <point x="74" y="1053"/>
      <point x="52" y="995" type="qcurve"/>
      <point x="9" y="1014" type="line"/>
      <point x="14" y="1073"/>
      <point x="31" y="1207"/>
      <point x="42" y="1260" type="qcurve"/>
      <point x="1052" y="1260" type="line"/>
      <point x="1082" y="1235" type="line"/>
      <point x="1080" y="1184"/>
      <point x="1064" y="1063"/>
      <point x="1052" y="1000" type="qcurve"/>
      <point x="1007" y="1000" type="line"/>
      <point x="998" y="1042"/>
      <point x="983" y="1106"/>
      <point x="964" y="1149"/>
      <point x="936" y="1170"/>
      <point x="914" y="1170" type="qcurve" smooth="yes"/>
      <point x="630" y="1170" type="line"/>
      <point x="630" y="705" type="line"/>
      <point x="905" y="705" type="line"/>
      <point x="930" y="683" type="line"/>
      <point x="905" y="615" type="line"/>
      <point x="630" y="615" type="line"/>
      <point x="630" y="115" type="line" smooth="yes"/>
      <point x="630" y="102"/>
      <point x="702" y="62"/>
      <point x="794" y="43" type="qcurve"/>
      <point x="794" y="0" type="line"/>
    </contour>
  </outline>
</glyph>
<glyph name="tbar" format="1">
  <advance width="705"/>
  <unicode hex="0167"/>
  <outline>
    <contour>
      <point x="510" y="415" type="line"/>
      <point x="320" y="415" type="line"/>
      <point x="320" y="307" type="line" smooth="yes"/>
      <point x="320" y="247"/>
      <point x="331" y="168"/>
      <point x="357" y="121"/>
      <point x="398" y="102"/>
      <point x="428" y="102" type="qcurve" smooth="yes"/>
      <point x="463" y="102"/>
      <point x="569" y="128"/>
      <point x="647" y="168" type="qcurve"/>
      <point x="676" y="117" type="line"/>
      <point x="627" y="81"/>
      <point x="531" y="26"/>
      <point x="444" y="-11"/>
      <point x="370" y="-30"/>
      <point x="344" y="-30" type="qcurve" smooth="yes"/>
      <point x="309" y="-30"/>
      <point x="246" y="-4"/>
      <point x="198" y="55"/>
      <point x="170" y="151"/>
      <point x="170" y="221" type="qcurve" smooth="yes"/>
      <point x="170" y="415" type="line"/>
      <point x="53" y="415" type="line"/>
      <point x="30" y="437" type="line"/>
      <point x="35" y="453"/>
      <point x="45" y="489"/>
      <point x="53" y="505" type="qcurve"/>
      <point x="170" y="505" type="line"/>
      <point x="170" y="836" type="line"/>
      <point x="41" y="836" type="line"/>
      <point x="20" y="864" type="line"/>
      <point x="98" y="930" type="line"/>
      <point x="170" y="930" type="line"/>
      <point x="170" y="1176" type="line"/>
      <point x="289" y="1280" type="line"/>
      <point x="320" y="1255" type="line"/>
      <point x="320" y="930" type="line"/>
      <point x="647" y="930" type="line"/>
      <point x="676" y="901" type="line"/>
      <point x="667" y="887"/>
      <point x="640" y="856"/>
      <point x="612" y="827"/>
      <point x="585" y="805"/>
      <point x="575" y="801" type="qcurve"/>
      <point x="551" y="813"/>
      <point x="453" y="836"/>
      <point x="372" y="836" type="qcurve" smooth="yes"/>
      <point x="320" y="836" type="line"/>
      <point x="320" y="505" type="line"/>
      <point x="510" y="505" type="line"/>
      <point x="532" y="480" type="line"/>
    </contour>
  </outline>
</glyph>
<glyph name="uni0180" format="1">
  <advance width="1040"/>
  <unicode hex="0180"/>
  <outline>
    <contour>
      <point x="816" y="408" type="qcurve" smooth="yes"/>
      <point x="816" y="508"/>
      <point x="774" y="663"/>
      <point x="705" y="769"/>
      <point x="615" y="825"/>
      <point x="567" y="825" type="qcurve" smooth="yes"/>
      <point x="549" y="825"/>
      <point x="490" y="804"/>
      <point x="416" y="755"/>
      <point x="332" y="672"/>
      <point x="290" y="610" type="qcurve"/>
      <point x="290" y="203" type="line"/>
      <point x="330" y="173"/>
      <point x="413" y="133"/>
      <point x="488" y="110"/>
      <point x="549" y="100"/>
      <point x="567" y="100" type="qcurve" smooth="yes"/>
      <point x="628" y="100"/>
      <point x="721" y="153"/>
      <point x="784" y="240"/>
      <point x="816" y="350"/>
    </contour>
    <contour>
      <point x="598" y="1140" type="line"/>
      <point x="290" y="1140" type="line"/>
      <point x="290" y="727" type="line"/>
      <point x="340" y="787"/>
      <point x="439" y="875"/>
      <point x="530" y="932"/>
      <point x="608" y="960"/>
      <point x="637" y="960" type="qcurve" smooth="yes"/>
      <point x="705" y="960"/>
      <point x="820" y="896"/>
      <point x="903" y="775"/>
      <point x="949" y="601"/>
      <point x="949" y="492" type="qcurve" smooth="yes"/>
      <point x="949" y="434"/>
      <point x="919" y="312"/>
      <point x="861" y="196"/>
      <point x="778" y="92"/>
      <point x="671" y="15"/>
      <point x="543" y="-30"/>
      <point x="469" y="-30" type="qcurve" smooth="yes"/>
      <point x="450" y="-30"/>
      <point x="383" y="-13"/>
      <point x="296" y="19"/>
      <point x="194" y="66"/>
      <point x="140" y="96" type="qcurve"/>
      <point x="140" y="1140" type="line"/>
      <point x="12" y="1140" type="line"/>
      <point x="-10" y="1162" type="line"/>
      <point x="-5" y="1178"/>
      <point x="4" y="1214"/>
      <point x="12" y="1230" type="qcurve"/>
      <point x="140" y="1230" type="line"/>
      <point x="140" y="1296" type="line" smooth="yes"/>
      <point x="140" y="1342"/>
      <point x="130" y="1392"/>
      <point x="102" y="1417"/>
      <point x="51" y="1425"/>
      <point x="10" y="1430" type="qcurve"/>
      <point x="10" y="1470" type="line"/>
      <point x="76" y="1486"/>
      <point x="196" y="1519"/>
      <point x="253" y="1550" type="qcurve"/>
      <point x="258" y="1545"/>
      <point x="276" y="1528"/>
      <point x="289" y="1517"/>
      <point x="290" y="1516" type="qcurve" smooth="yes"/>
      <point x="290" y="1230" type="line"/>
      <point x="598" y="1230" type="line"/>
      <point x="620" y="1205" type="line"/>
    </contour>
  </outline>
</glyph>
<glyph name="uni0182" format="1">
  <advance width="1126"/>
  <unicode hex="0182"/>
  <outline>
    <contour>
      <point x="520" y="649" type="qcurve" smooth="yes"/>
      <point x="472" y="649"/>
      <point x="391" y="641"/>
      <point x="355" y="635" type="qcurve"/>
      <point x="355" y="104" type="line" smooth="yes"/>
      <point x="355" y="95"/>
      <point x="363" y="90" type="qcurve" smooth="yes"/>
      <point x="380" y="84"/>
      <point x="424" y="76"/>
      <point x="471" y="72"/>
      <point x="517" y="70"/>
      <point x="537" y="70" type="qcurve" smooth="yes"/>
      <point x="609" y="70"/>
      <point x="725" y="107"/>
      <point x="808" y="173"/>
      <point x="852" y="266"/>
      <point x="852" y="322" type="qcurve" smooth="yes"/>
      <point x="852" y="377"/>
      <point x="813" y="493"/>
      <point x="732" y="588"/>
      <point x="607" y="649"/>
    </contour>
    <contour>
      <point x="948" y="1235" type="line"/>
      <point x="946" y="1209"/>
      <point x="936" y="1129"/>
      <point x="921" y="1042"/>
      <point x="904" y="958"/>
      <point x="897" y="930" type="qcurve"/>
      <point x="849" y="930" type="line"/>
      <point x="846" y="994"/>
      <point x="838" y="1085"/>
      <point x="823" y="1143"/>
      <point x="799" y="1170"/>
      <point x="780" y="1170" type="qcurve" smooth="yes"/>
      <point x="355" y="1170" type="line"/>
      <point x="355" y="720" type="line"/>
      <point x="400" y="729"/>
      <point x="504" y="739"/>
      <point x="559" y="739" type="qcurve" smooth="yes"/>
      <point x="668" y="739"/>
      <point x="839" y="683"/>
      <point x="955" y="581"/>
      <point x="1016" y="440"/>
      <point x="1016" y="356" type="qcurve" smooth="yes"/>
      <point x="1016" y="271"/>
      <point x="949" y="134"/>
      <point x="828" y="38"/>
      <point x="660" y="-14"/>
      <point x="559" y="-14" type="qcurve" smooth="yes"/>
      <point x="530" y="-14"/>
      <point x="442" y="-12"/>
      <point x="346" y="-9"/>
      <point x="249" y="-5"/>
      <point x="171" y="-2"/>
      <point x="123" y="0"/>
      <point x="123" y="0" type="qcurve"/>
      <point x="49" y="0" type="line"/>
      <point x="49" y="43" type="line"/>
      <point x="117" y="57"/>
      <point x="195" y="90"/>
      <point x="195" y="104" type="qcurve" smooth="yes"/>
      <point x="195" y="1155" type="line" smooth="yes"/>
      <point x="195" y="1167"/>
      <point x="121" y="1203"/>
      <point x="49" y="1217" type="qcurve"/>
      <point x="49" y="1260" type="line"/>
      <point x="917" y="1260" type="line"/>
      <point x="948" y="1235" type="line"/>
    </contour>
  </outline>
</glyph>
<glyph name="uni0183" format="1">
  <advance width="1040"/>
  <unicode hex="0183"/>
  <outline>
    <contour>
      <point x="816" y="408" type="qcurve" smooth="yes"/>
      <point x="816" y="508"/>
      <point x="774" y="663"/>
      <point x="705" y="769"/>
      <point x="615" y="825"/>
      <point x="567" y="825" type="qcurve" smooth="yes"/>
      <point x="549" y="825"/>
      <point x="490" y="804"/>
      <point x="416" y="755"/>
      <point x="332" y="672"/>
      <point x="290" y="610" type="qcurve"/>
      <point x="290" y="203" type="line"/>
      <point x="330" y="173"/>
      <point x="413" y="133"/>
      <point x="488" y="110"/>
      <point x="549" y="100"/>
      <point x="567" y="100" type="qcurve" smooth="yes"/>
      <point x="628" y="100"/>
      <point x="721" y="153"/>
      <point x="784" y="240"/>
      <point x="816" y="350"/>
    </contour>
    <contour>
      <point x="838" y="1495" type="line"/>
      <point x="836" y="1469"/>
      <point x="826" y="1389"/>
      <point x="811" y="1302"/>
      <point x="794" y="1218"/>
      <point x="787" y="1190" type="qcurve"/>
      <point x="739" y="1190" type="line"/>
      <point x="736" y="1254"/>
      <point x="728" y="1345"/>
      <point x="713" y="1403"/>
      <point x="689" y="1430"/>
      <point x="670" y="1430" type="qcurve" smooth="yes"/>
      <point x="280" y="1430" type="line"/>
      <point x="287" y="1374"/>
      <point x="290" y="1255"/>
      <point x="290" y="1193" type="qcurve" smooth="yes"/>
      <point x="290" y="727" type="line"/>
      <point x="340" y="787"/>
      <point x="439" y="875"/>
      <point x="530" y="932"/>
      <point x="608" y="960"/>
      <point x="637" y="960" type="qcurve" smooth="yes"/>
      <point x="705" y="960"/>
      <point x="820" y="896"/>
      <point x="903" y="775"/>
      <point x="949" y="601"/>
      <point x="949" y="492" type="qcurve" smooth="yes"/>
      <point x="949" y="434"/>
      <point x="919" y="312"/>
      <point x="861" y="196"/>
      <point x="778" y="92"/>
      <point x="671" y="15"/>
      <point x="543" y="-30"/>
      <point x="469" y="-30" type="qcurve" smooth="yes"/>
      <point x="450" y="-30"/>
      <point x="383" y="-13"/>
      <point x="296" y="19"/>
      <point x="194" y="66"/>
      <point x="140" y="96" type="qcurve"/>
      <point x="140" y="1147" type="line" smooth="yes"/>
      <point x="140" y="1205"/>
      <point x="131" y="1308"/>
      <point x="118" y="1389"/>
      <point x="104" y="1442"/>
      <point x="100" y="1450" type="qcurve"/>
      <point x="149" y="1466"/>
      <point x="221" y="1502"/>
      <point x="260" y="1520" type="qcurve"/>
      <point x="807" y="1520" type="line"/>
      <point x="838" y="1495" type="line"/>
    </contour>
  </outline>
</glyph>
<glyph name="uni0186" format="1">
  <advance width="1098"/>
  <unicode hex="0186"/>
  <outline>
    <contour>
      <point x="1018" y="678" type="qcurve" smooth="yes"/>
      <point x="1018" y="520"/>
      <point x="933" y="260"/>
      <point x="781" y="73"/>
      <point x="574" y="-30"/>
      <point x="451" y="-30" type="qcurve" smooth="yes"/>
      <point x="353" y="-30"/>
      <point x="207" y="26"/>
      <point x="109" y="115"/>
      <point x="61" y="223"/>
      <point x="61" y="274" type="qcurve" smooth="yes"/>
      <point x="61" y="316"/>
      <point x="87" y="394"/>
      <point x="121" y="432" type="qcurve"/>
      <point x="143" y="444"/>
      <point x="192" y="465"/>
      <point x="241" y="484"/>
      <point x="285" y="500"/>
      <point x="303" y="506" type="qcurve"/>
      <point x="326" y="457" type="line"/>
      <point x="297" y="440"/>
      <point x="261" y="407"/>
      <point x="241" y="370"/>
      <point x="233" y="327"/>
      <point x="233" y="299" type="qcurve" smooth="yes"/>
      <point x="233" y="263"/>
      <point x="271" y="187"/>
      <point x="340" y="124"/>
      <point x="437" y="84"/>
      <point x="496" y="84" type="qcurve" smooth="yes"/>
      <point x="566" y="84"/>
      <point x="698" y="141"/>
      <point x="800" y="272"/>
      <point x="862" y="485"/>
      <point x="862" y="641" type="qcurve" smooth="yes"/>
      <point x="862" y="774"/>
      <point x="785" y="973"/>
      <point x="664" y="1107"/>
      <point x="516" y="1174"/>
      <point x="444" y="1174" type="qcurve" smooth="yes"/>
      <point x="417" y="1174"/>
      <point x="350" y="1163"/>
      <point x="267" y="1132"/>
      <point x="166" y="1078"/>
      <point x="106" y="1036" type="qcurve"/>
      <point x="101" y="1038"/>
      <point x="90" y="1051"/>
      <point x="80" y="1065"/>
      <point x="72" y="1078"/>
      <point x="70" y="1081" type="qcurve" smooth="yes"/>
      <point x="137" y="1148"/>
      <point x="255" y="1230"/>
      <point x="363" y="1275"/>
      <point x="463" y="1290"/>
      <point x="514" y="1290" type="qcurve" smooth="yes"/>
      <point x="608" y="1290"/>
      <point x="789" y="1208"/>
      <point x="931" y="1051"/>
      <point x="1018" y="823"/>
    </contour>
  </outline>
</glyph>
<glyph name="uni0187" format="1">
  <advance width="1098"/>
  <unicode hex="0187"/>
  <outline>
    <contour>
      <point x="1395" y="1463" type="qcurve" smooth="yes"/>
      <point x="1395" y="1455"/>
      <point x="1366" y="1424"/>
      <point x="1326" y="1391"/>
      <point x="1283" y="1362"/>
      <point x="1268" y="1355" type="qcurve"/>
      <point x="1247" y="1389"/>
      <point x="1206" y="1433"/>
      <point x="1167" y="1458"/>
      <point x="1133" y="1467"/>
      <point x="1119" y="1467" type="qcurve" smooth="yes"/>
      <point x="1056" y="1467"/>
      <point x="998" y="1332"/>
      <point x="998" y="1191" type="qcurve" smooth="yes"/>
      <point x="998" y="1190"/>
      <point x="999" y="1190" type="qcurve" smooth="yes"/>
      <point x="1005" y="1185"/>
      <point x="987" y="1155"/>
      <point x="956" y="1117"/>
      <point x="921" y="1079"/>
      <point x="909" y="1067" type="qcurve"/>
      <point x="874" y="1073" type="line"/>
      <point x="823" y="1120"/>
      <point x="683" y="1180"/>
      <point x="592" y="1180" type="qcurve" smooth="yes"/>
      <point x="558" y="1180"/>
      <point x="477" y="1155"/>
      <point x="395" y="1101"/>
      <point x="319" y="1014"/>
      <point x="260" y="890"/>
      <point x="225" y="727"/>
      <point x="225" y="623" type="qcurve" smooth="yes"/>
      <point x="225" y="490"/>
      <point x="302" y="290"/>
      <point x="423" y="157"/>
      <point x="572" y="90"/>
      <point x="643" y="90" type="qcurve" smooth="yes"/>
      <point x="697" y="90"/>
      <point x="871" y="164"/>
      <point x="981" y="256" type="qcurve"/>
      <point x="986" y="254"/>
      <point x="997" y="241"/>
      <point x="1007" y="227"/>
      <point x="1015" y="214"/>
      <point x="1018" y="211" type="qcurve"/>
      <point x="954" y="143"/>
      <point x="837" y="50"/>
      <point x="728" y="-6"/>
      <point x="623" y="-30"/>
      <point x="571" y="-30" type="qcurve" smooth="yes"/>
      <point x="478" y="-30"/>
      <point x="299" y="54"/>
      <point x="157" y="212"/>
      <point x="70" y="441"/>
      <point x="70" y="586" type="qcurve" smooth="yes"/>
      <point x="70" y="746"/>
      <point x="167" y="1006"/>
      <point x="333" y="1190"/>
      <point x="553" y="1290"/>
      <point x="676" y="1290" type="qcurve" smooth="yes"/>
      <point x="728" y="1290"/>
      <point x="819" y="1275"/>
      <point x="859" y="1262" type="qcurve"/>
      <point x="866" y="1301"/>
      <point x="889" y="1366"/>
      <point x="922" y="1423"/>
      <point x="967" y="1473"/>
      <point x="996" y="1498" type="qcurve" smooth="yes"/>
      <point x="1047" y="1543"/>
      <point x="1158" y="1590"/>
      <point x="1197" y="1590" type="qcurve" smooth="yes"/>
      <point x="1240" y="1590"/>
      <point x="1313" y="1557"/>
      <point x="1366" y="1514"/>
      <point x="1395" y="1472"/>
    </contour>
  </outline>
</glyph>
<glyph name="uni0188" format="1">
  <advance width="895"/>
  <unicode hex="0188"/>
  <outline>
    <contour>
      <point x="1222" y="1423" type="qcurve" smooth="yes"/>
      <point x="1222" y="1415"/>
      <point x="1193" y="1384"/>
      <point x="1153" y="1351"/>
      <point x="1110" y="1322"/>
      <point x="1095" y="1315" type="qcurve"/>
      <point x="1074" y="1349"/>
      <point x="1033" y="1393"/>
      <point x="994" y="1418"/>
      <point x="960" y="1427"/>
      <point x="946" y="1427" type="qcurve" smooth="yes"/>
      <point x="914" y="1427"/>
      <point x="869" y="1395"/>
      <point x="839" y="1320"/>
      <point x="825" y="1197"/>
      <point x="825" y="1106" type="qcurve" smooth="yes"/>
      <point x="825" y="881" type="line" smooth="yes"/>
      <point x="825" y="862"/>
      <point x="814" y="816"/>
      <point x="797" y="771"/>
      <point x="777" y="731"/>
      <point x="768" y="717" type="qcurve"/>
      <point x="731" y="727" type="line"/>
      <point x="723" y="745"/>
      <point x="687" y="787"/>
      <point x="630" y="825"/>
      <point x="551" y="850"/>
      <point x="500" y="850" type="qcurve" smooth="yes"/>
      <point x="447" y="850"/>
      <point x="350" y="803"/>
      <point x="275" y="709"/>
      <point x="230" y="569"/>
      <point x="230" y="475" type="qcurve" smooth="yes"/>
      <point x="230" y="390"/>
      <point x="281" y="252"/>
      <point x="366" y="155"/>
      <point x="477" y="102"/>
      <point x="537" y="102" type="qcurve" smooth="yes"/>
      <point x="565" y="102"/>
      <point x="613" y="107"/>
      <point x="670" y="131"/>
      <point x="745" y="183"/>
      <point x="801" y="231" type="qcurve"/>
      <point x="840" y="190" type="line"/>
      <point x="775" y="113"/>
      <point x="676" y="26"/>
      <point x="592" y="-19"/>
      <point x="512" y="-30"/>
      <point x="465" y="-30" type="qcurve" smooth="yes"/>
      <point x="392" y="-30"/>
      <point x="253" y="35"/>
      <point x="145" y="157"/>
      <point x="80" y="333"/>
      <point x="80" y="444" type="qcurve" smooth="yes"/>
      <point x="80" y="552"/>
      <point x="159" y="740"/>
      <point x="296" y="879"/>
      <point x="482" y="960"/>
      <point x="590" y="960" type="qcurve" smooth="yes"/>
      <point x="633" y="960"/>
      <point x="675" y="951" type="qcurve"/>
      <point x="675" y="1051" type="line" smooth="yes"/>
      <point x="675" y="1136"/>
      <point x="692" y="1259"/>
      <point x="728" y="1352"/>
      <point x="784" y="1424"/>
      <point x="823" y="1458" type="qcurve" smooth="yes"/>
      <point x="874" y="1503"/>
      <point x="985" y="1550"/>
      <point x="1024" y="1550" type="qcurve" smooth="yes"/>
      <point x="1067" y="1550"/>
      <point x="1140" y="1517"/>
      <point x="1193" y="1474"/>
      <point x="1222" y="1432"/>
    </contour>
  </outline>
</glyph>
<glyph name="uni018B" format="1">
  <advance width="1126"/>
  <unicode hex="018B"/>
  <outline>
    <contour>
      <point x="589" y="70" type="qcurve" smooth="yes"/>
      <point x="608" y="70"/>
      <point x="654" y="72"/>
      <point x="701" y="76"/>
      <point x="745" y="84"/>
      <point x="762" y="90" type="qcurve" smooth="yes"/>
      <point x="771" y="96"/>
      <point x="771" y="104" type="qcurve" smooth="yes"/>
      <point x="771" y="635" type="line"/>
      <point x="734" y="641"/>
      <point x="654" y="649"/>
      <point x="606" y="649" type="qcurve" smooth="yes"/>
      <point x="519" y="649"/>
      <point x="393" y="604"/>
      <point x="312" y="527"/>
      <point x="274" y="427"/>
      <point x="274" y="372" type="qcurve" smooth="yes"/>
      <point x="274" y="308"/>
      <point x="318" y="198"/>
      <point x="401" y="117"/>
      <point x="517" y="70"/>
    </contour>
    <contour>
      <point x="1003" y="0" type="line"/>
      <point x="1003" y="0"/>
      <point x="955" y="-2"/>
      <point x="877" y="-5"/>
      <point x="780" y="-9"/>
      <point x="684" y="-12"/>
      <point x="596" y="-14"/>
      <point x="567" y="-14" type="qcurve" smooth="yes"/>
      <point x="466" y="-14"/>
      <point x="298" y="29"/>
      <point x="177" y="118"/>
      <point x="110" y="253"/>
      <point x="110" y="346" type="qcurve" smooth="yes"/>
      <point x="110" y="423"/>
      <point x="171" y="565"/>
      <point x="287" y="674"/>
      <point x="457" y="739"/>
      <point x="567" y="739" type="qcurve" smooth="yes"/>
      <point x="622" y="739"/>
      <point x="726" y="729"/>
      <point x="771" y="720" type="qcurve"/>
      <point x="771" y="1170" type="line"/>
      <point x="364" y="1170" type="line" smooth="yes"/>
      <point x="349" y="1170"/>
      <point x="321" y="1137"/>
      <point x="292" y="1075"/>
      <point x="257" y="983"/>
      <point x="235" y="925" type="qcurve"/>
      <point x="192" y="944" type="line"/>
      <point x="192" y="973"/>
      <point x="198" y="1060"/>
      <point x="208" y="1150"/>
      <point x="220" y="1234"/>
      <point x="225" y="1260" type="qcurve"/>
      <point x="1077" y="1260" type="line"/>
      <point x="1077" y="1217" type="line"/>
      <point x="1005" y="1203"/>
      <point x="931" y="1167"/>
      <point x="931" y="1155" type="qcurve" smooth="yes"/>
      <point x="931" y="104" type="line" smooth="yes"/>
      <point x="931" y="90"/>
      <point x="1009" y="57"/>
      <point x="1077" y="43" type="qcurve"/>
      <point x="1077" y="0" type="line"/>
    </contour>
  </outline>
</glyph>
<glyph name="uni018C" format="1">
  <advance width="1065"/>
  <unicode hex="018C"/>
  <outline>
    <contour>
      <point x="745" y="272" type="line"/>
      <point x="745" y="730" type="line"/>
      <point x="712" y="787"/>
      <point x="592" y="850"/>
      <point x="520" y="850" type="qcurve" smooth="yes"/>
      <point x="456" y="850"/>
      <point x="350" y="803"/>
      <point x="273" y="709"/>
      <point x="230" y="569"/>
      <point x="230" y="475" type="qcurve" smooth="yes"/>
      <point x="230" y="390"/>
      <point x="279" y="252"/>
      <point x="355" y="155"/>
      <point x="446" y="102"/>
      <point x="487" y="102" type="qcurve" smooth="yes"/>
      <point x="521" y="102"/>
      <point x="587" y="129"/>
      <point x="652" y="174"/>
      <point x="714" y="231"/>
      <point x="745" y="261" type="qcurve"/>
    </contour>
    <contour>
      <point x="1051" y="84" type="line"/>
      <point x="1005" y="53"/>
      <point x="934" y="10"/>
      <point x="881" y="-17"/>
      <point x="843" y="-30"/>
      <point x="829" y="-30" type="qcurve" smooth="yes"/>
      <point x="796" y="-30"/>
      <point x="754" y="60"/>
      <point x="747" y="169" type="qcurve"/>
      <point x="709" y="123"/>
      <point x="634" y="49"/>
      <point x="555" y="-2"/>
      <point x="467" y="-30"/>
      <point x="416" y="-30" type="qcurve" smooth="yes"/>
      <point x="360" y="-30"/>
      <point x="242" y="35"/>
      <point x="143" y="157"/>
      <point x="80" y="333"/>
      <point x="80" y="444" type="qcurve" smooth="yes"/>
      <point x="80" y="501"/>
      <point x="111" y="623"/>
      <point x="169" y="737"/>
      <point x="253" y="839"/>
      <point x="357" y="916"/>
      <point x="481" y="960"/>
      <point x="551" y="960" type="qcurve" smooth="yes"/>
      <point x="598" y="960"/>
      <point x="691" y="937"/>
      <point x="745" y="897" type="qcurve"/>
      <point x="745" y="1135" type="line" smooth="yes"/>
      <point x="745" y="1209"/>
      <point x="746" y="1356"/>
      <point x="750" y="1430" type="qcurve"/>
      <point x="372" y="1430" type="line" smooth="yes"/>
      <point x="357" y="1430"/>
      <point x="329" y="1397"/>
      <point x="300" y="1335"/>
      <point x="265" y="1243"/>
      <point x="243" y="1185" type="qcurve"/>
      <point x="200" y="1204" type="line"/>
      <point x="200" y="1233"/>
      <point x="206" y="1320"/>
      <point x="216" y="1410"/>
      <point x="228" y="1494"/>
      <point x="233" y="1520" type="qcurve"/>
      <point x="688" y="1520" type="line" smooth="yes"/>
      <point x="745" y="1520"/>
      <point x="846" y="1534"/>
      <point x="884" y="1540" type="qcurve"/>
      <point x="915" y="1510" type="line"/>
      <point x="898" y="1425"/>
      <point x="895" y="1248"/>
      <point x="895" y="1162" type="qcurve" smooth="yes"/>
      <point x="895" y="254" type="line" smooth="yes"/>
      <point x="895" y="219"/>
      <point x="898" y="169"/>
      <point x="904" y="135"/>
      <point x="912" y="113"/>
      <point x="918" y="106" type="qcurve" smooth="yes"/>
      <point x="927" y="95"/>
      <point x="978" y="104"/>
      <point x="1038" y="127" type="qcurve"/>
      <point x="1051" y="84" type="line"/>
    </contour>
  </outline>
</glyph>
<glyph name="uni018D" format="1">
  <advance width="995"/>
  <unicode hex="018D"/>
  <outline>
    <contour>
      <point x="235" y="543" type="qcurve" smooth="yes"/>
      <point x="235" y="442"/>
      <point x="293" y="296"/>
      <point x="388" y="188"/>
      <point x="508" y="108"/>
      <point x="571" y="74" type="qcurve"/>
      <point x="665" y="137"/>
      <point x="760" y="326"/>
      <point x="760" y="443" type="qcurve" smooth="yes"/>
      <point x="760" y="518"/>
      <point x="715" y="660"/>
      <point x="634" y="769"/>
      <point x="522" y="836"/>
      <point x="456" y="836" type="qcurve" smooth="yes"/>
      <point x="412" y="836"/>
      <point x="332" y="793"/>
      <point x="271" y="716"/>
      <point x="235" y="608"/>
    </contour>
    <contour>
      <point x="95" y="-459" type="qcurve"/>
      <point x="128" y="-423"/>
      <point x="192" y="-361"/>
      <point x="247" y="-315"/>
      <point x="288" y="-289"/>
      <point x="298" y="-289" type="qcurve" smooth="yes"/>
      <point x="316" y="-289"/>
      <point x="399" y="-327"/>
      <point x="503" y="-372"/>
      <point x="612" y="-410"/>
      <point x="657" y="-410" type="qcurve" smooth="yes"/>
      <point x="675" y="-410"/>
      <point x="714" y="-394"/>
      <point x="746" y="-366"/>
      <point x="767" y="-326"/>
      <point x="767" y="-302" type="qcurve" smooth="yes"/>
      <point x="767" y="-253"/>
      <point x="708" y="-177"/>
      <point x="611" y="-110"/>
      <point x="488" y="-47"/>
      <point x="359" y="25"/>
      <point x="236" y="113"/>
      <point x="139" y="228"/>
      <point x="80" y="377"/>
      <point x="80" y="474" type="qcurve" smooth="yes"/>
      <point x="80" y="535"/>
      <point x="114" y="655"/>
      <point x="173" y="763"/>
      <point x="254" y="855"/>
      <point x="350" y="922"/>
      <point x="456" y="960"/>
      <point x="510" y="960" type="qcurve" smooth="yes"/>
      <point x="612" y="960"/>
      <point x="764" y="883"/>
      <point x="865" y="754"/>
      <point x="915" y="587"/>
      <point x="915" y="498" type="qcurve" smooth="yes"/>
      <point x="915" y="419"/>
      <point x="878" y="281"/>
      <point x="811" y="163"/>
      <point x="716" y="65"/>
      <point x="659" y="26" type="qcurve"/>
      <point x="706" y="0"/>
      <point x="789" y="-54"/>
      <point x="852" y="-120"/>
      <point x="888" y="-202"/>
      <point x="888" y="-254" type="qcurve" smooth="yes"/>
      <point x="888" y="-300"/>
      <point x="844" y="-389"/>
      <point x="772" y="-458"/>
      <point x="680" y="-500"/>
      <point x="631" y="-500" type="qcurve" smooth="yes"/>
      <point x="563" y="-500"/>
      <point x="456" y="-487"/>
      <point x="364" y="-470"/>
      <point x="280" y="-457"/>
      <point x="237" y="-457" type="qcurve" smooth="yes"/>
      <point x="224" y="-457"/>
      <point x="192" y="-463"/>
      <point x="161" y="-474"/>
      <point x="131" y="-488"/>
      <point x="121" y="-495" type="qcurve"/>
      <point x="114" y="-490"/>
      <point x="105" y="-473"/>
    </contour>
  </outline>
</glyph>
<glyph name="florin" format="1">
  <advance width="592"/>
  <unicode hex="0192"/>
  <outline>
    <contour>
      <point x="793" y="1454" type="qcurve" smooth="yes"/>
      <point x="793" y="1446"/>
      <point x="764" y="1414"/>
      <point x="724" y="1380"/>
      <point x="681" y="1350"/>
      <point x="666" y="1343" type="qcurve"/>
      <point x="641" y="1364"/>
      <point x="591" y="1395"/>
      <point x="546" y="1416"/>
      <point x="508" y="1427"/>
      <point x="496" y="1427" type="qcurve" smooth="yes"/>
      <point x="470" y="1427"/>
      <point x="410" y="1391"/>
      <point x="359" y="1299"/>
      <point x="326" y="1140"/>
      <point x="326" y="1016" type="qcurve" smooth="yes"/>
      <point x="326" y="930" type="line"/>
      <point x="584" y="930" type="line"/>
      <point x="612" y="901" type="line"/>
      <point x="603" y="887"/>
      <point x="577" y="856"/>
      <point x="549" y="827"/>
      <point x="522" y="805"/>
      <point x="512" y="801" type="qcurve"/>
      <point x="489" y="813"/>
      <point x="404" y="836"/>
      <point x="326" y="836" type="qcurve"/>
      <point x="326" y="98" type="line" smooth="yes"/>
      <point x="326" y="-19"/>
      <point x="294" y="-183"/>
      <point x="240" y="-298"/>
      <point x="167" y="-376"/>
      <point x="127" y="-407" type="qcurve" smooth="yes"/>
      <point x="99" y="-428"/>
      <point x="39" y="-463"/>
      <point x="-18" y="-487"/>
      <point x="-69" y="-500"/>
      <point x="-88" y="-500" type="qcurve" smooth="yes"/>
      <point x="-118" y="-500"/>
      <point x="-176" y="-484"/>
      <point x="-222" y="-461"/>
      <point x="-250" y="-438"/>
      <point x="-250" y="-431" type="qcurve" smooth="yes"/>
      <point x="-250" y="-423"/>
      <point x="-222" y="-391"/>
      <point x="-182" y="-357"/>
      <point x="-139" y="-327"/>
      <point x="-124" y="-320" type="qcurve"/>
      <point x="-104" y="-335"/>
      <point x="-70" y="-353"/>
      <point x="-38" y="-362"/>
      <point x="-5" y="-365"/>
      <point x="14" y="-365" type="qcurve" smooth="yes"/>
      <point x="42" y="-365"/>
      <point x="99" y="-330"/>
      <point x="145" y="-238"/>
      <point x="174" y="-79"/>
      <point x="174" y="45" type="qcurve" smooth="yes"/>
      <point x="174" y="836" type="line"/>
      <point x="41" y="836" type="line"/>
      <point x="20" y="864" type="line"/>
      <point x="98" y="930" type="line"/>
      <point x="174" y="930" type="line"/>
      <point x="174" y="961" type="line" smooth="yes"/>
      <point x="174" y="1079"/>
      <point x="207" y="1240"/>
      <point x="262" y="1351"/>
      <point x="335" y="1426"/>
      <point x="375" y="1458" type="qcurve" smooth="yes"/>
      <point x="402" y="1480"/>
      <point x="465" y="1514"/>
      <point x="527" y="1538"/>
      <point x="583" y="1550"/>
      <point x="602" y="1550" type="qcurve" smooth="yes"/>
      <point x="633" y="1550"/>
      <point x="700" y="1526"/>
      <point x="756" y="1495"/>
      <point x="793" y="1463"/>
    </contour>
  </outline>
</glyph>
<glyph name="uni0194" format="1">
  <advance width="1230"/>
  <unicode hex="0194"/>
  <outline>
    <contour>
      <point x="694" y="168" type="qcurve" smooth="yes"/>
      <point x="694" y="184"/>
      <point x="685" y="221"/>
      <point x="665" y="270"/>
      <point x="632" y="334"/>
      <point x="607" y="378" type="qcurve"/>
      <point x="528" y="254"/>
      <point x="528" y="199" type="qcurve" smooth="yes"/>
      <point x="528" y="164"/>
      <point x="543" y="118"/>
      <point x="567" y="89"/>
      <point x="599" y="77"/>
      <point x="616" y="77" type="qcurve" smooth="yes"/>
      <point x="647" y="77"/>
      <point x="694" y="122"/>
    </contour>
    <contour>
      <point x="1193" y="1217" type="line"/>
      <point x="1160" y="1211"/>
      <point x="1121" y="1201"/>
      <point x="1092" y="1180"/>
      <point x="1067" y="1144"/>
      <point x="1048" y="1113" type="qcurve" smooth="yes"/>
      <point x="699" y="524" type="line"/>
      <point x="715" y="497" type="line" smooth="yes"/>
      <point x="749" y="441"/>
      <point x="794" y="358"/>
      <point x="821" y="293"/>
      <point x="832" y="241"/>
      <point x="832" y="215" type="qcurve" smooth="yes"/>
      <point x="832" y="174"/>
      <point x="805" y="88"/>
      <point x="749" y="16"/>
      <point x="663" y="-30"/>
      <point x="603" y="-30" type="qcurve" smooth="yes"/>
      <point x="566" y="-30"/>
      <point x="496" y="-2"/>
      <point x="441" y="51"/>
      <point x="408" y="127"/>
      <point x="408" y="176" type="qcurve" smooth="yes"/>
      <point x="408" y="201"/>
      <point x="417" y="248"/>
      <point x="438" y="299"/>
      <point x="471" y="360"/>
      <point x="494" y="399" type="qcurve" smooth="yes"/>
      <point x="544" y="483" type="line"/>
      <point x="166" y="1115" type="line" smooth="yes"/>
      <point x="150" y="1142"/>
      <point x="123" y="1178"/>
      <point x="92" y="1201"/>
      <point x="50" y="1214"/>
      <point x="20" y="1217" type="qcurve"/>
      <point x="20" y="1260" type="line"/>
      <point x="411" y="1260" type="line"/>
      <point x="411" y="1217" type="line"/>
      <point x="372" y="1212"/>
      <point x="330" y="1199"/>
      <point x="317" y="1177"/>
      <point x="330" y="1142"/>
      <point x="346" y="1115" type="qcurve" smooth="yes"/>
      <point x="633" y="633" type="line"/>
      <point x="920" y="1113" type="line" smooth="yes"/>
      <point x="938" y="1143"/>
      <point x="950" y="1179"/>
      <point x="935" y="1200"/>
      <point x="892" y="1211"/>
      <point x="855" y="1217" type="qcurve"/>
      <point x="855" y="1260" type="line"/>
      <point x="1193" y="1260" type="line"/>
      <point x="1193" y="1217" type="line"/>
    </contour>
  </outline>
</glyph>
<glyph name="uni0196" format="1">
  <advance width="713"/>
  <unicode hex="0196"/>
  <outline>
    <contour>
      <point x="673" y="178" type="line"/>
      <point x="605" y="113"/>
      <point x="510" y="32"/>
      <point x="440" y="-13"/>
      <point x="386" y="-30"/>
      <point x="360" y="-30" type="qcurve" smooth="yes"/>
      <point x="297" y="-30"/>
      <point x="235" y="121"/>
      <point x="235" y="281" type="qcurve" smooth="yes"/>
      <point x="235" y="935" type="line" smooth="yes"/>
      <point x="235" y="1004"/>
      <point x="231" y="1086"/>
      <point x="198" y="1133"/>
      <point x="122" y="1154"/>
      <point x="50" y="1160" type="qcurve"/>
      <point x="50" y="1203" type="line"/>
      <point x="135" y="1220"/>
      <point x="293" y="1257"/>
      <point x="359" y="1290" type="qcurve"/>
      <point x="396" y="1290" type="line"/>
      <point x="396" y="415" type="line" smooth="yes"/>
      <point x="396" y="325"/>
      <point x="402" y="212"/>
      <point x="417" y="150"/>
      <point x="445" y="128"/>
      <point x="467" y="128" type="qcurve" smooth="yes"/>
      <point x="474" y="128"/>
      <point x="502" y="134"/>
      <point x="547" y="153"/>
      <point x="612" y="190"/>
      <point x="655" y="221" type="qcurve"/>
      <point x="673" y="178" type="line"/>
    </contour>
  </outline>
</glyph>
<glyph name="uni019A" format="1">
  <advance width="654"/>
  <unicode hex="019A"/>
  <outline>
    <contour>
      <point x="562" y="740" type="line"/>
      <point x="402" y="740" type="line"/>
      <point x="402" y="104" type="line" smooth="yes"/>
      <point x="402" y="89"/>
      <point x="470" y="57"/>
      <point x="552" y="43" type="qcurve"/>
      <point x="552" y="0" type="line"/>
      <point x="102" y="0" type="line"/>
      <point x="102" y="43" type="line"/>
      <point x="145" y="50"/>
      <point x="203" y="65"/>
      <point x="237" y="80"/>
      <point x="252" y="96"/>
      <point x="252" y="104" type="qcurve" smooth="yes"/>
      <point x="252" y="740" type="line"/>
      <point x="92" y="740" type="line"/>
      <point x="70" y="762" type="line"/>
      <point x="75" y="778"/>
      <point x="84" y="814"/>
      <point x="92" y="830" type="qcurve"/>
      <point x="252" y="830" type="line"/>
      <point x="252" y="1296" type="line" smooth="yes"/>
      <point x="252" y="1341"/>
      <point x="240" y="1391"/>
      <point x="208" y="1416"/>
      <point x="154" y="1425"/>
      <point x="112" y="1430" type="qcurve"/>
      <point x="112" y="1470" type="line"/>
      <point x="184" y="1484"/>
      <point x="304" y="1518"/>
      <point x="366" y="1550" type="qcurve"/>
      <point x="402" y="1516" type="line"/>
      <point x="402" y="830" type="line"/>
      <point x="562" y="830" type="line"/>
      <point x="584" y="805" type="line"/>
    </contour>
  </outline>
</glyph>
<glyph name="uni019C" format="1">
  <advance width="1962"/>
  <unicode hex="019C"/>
  <outline>
    <contour>
      <point x="500" y="1260" type="line"/>
      <point x="500" y="1217" type="line"/>
      <point x="424" y="1200"/>
      <point x="355" y="1169"/>
      <point x="355" y="1155" type="qcurve" smooth="yes"/>
      <point x="355" y="429" type="line" smooth="yes"/>
      <point x="355" y="335"/>
      <point x="376" y="212"/>
      <point x="418" y="139"/>
      <point x="479" y="110"/>
      <point x="519" y="110" type="qcurve" smooth="yes"/>
      <point x="559" y="110"/>
      <point x="652" y="157"/>
      <point x="751" y="246"/>
      <point x="854" y="376"/>
      <point x="905" y="459" type="qcurve"/>
      <point x="905" y="1155" type="line" smooth="yes"/>
      <point x="905" y="1169"/>
      <point x="827" y="1203"/>
      <point x="760" y="1217" type="qcurve"/>
      <point x="760" y="1260" type="line"/>
      <point x="1210" y="1260" type="line"/>
      <point x="1210" y="1217" type="line"/>
      <point x="1138" y="1202"/>
      <point x="1065" y="1169"/>
      <point x="1065" y="1155" type="qcurve" smooth="yes"/>
      <point x="1065" y="419" type="line" smooth="yes"/>
      <point x="1065" y="336"/>
      <point x="1085" y="219"/>
      <point x="1125" y="145"/>
      <point x="1186" y="110"/>
      <point x="1227" y="110" type="qcurve" smooth="yes"/>
      <point x="1311" y="110"/>
      <point x="1501" y="289"/>
      <point x="1615" y="459" type="qcurve"/>
      <point x="1615" y="1155" type="line" smooth="yes"/>
      <point x="1615" y="1169"/>
      <point x="1539" y="1203"/>
      <point x="1470" y="1217" type="qcurve"/>
      <point x="1470" y="1260" type="line"/>
      <point x="1920" y="1260" type="line"/>
      <point x="1920" y="1217" type="line"/>
      <point x="1848" y="1202"/>
      <point x="1775" y="1169"/>
      <point x="1775" y="1155" type="qcurve" smooth="yes"/>
      <point x="1775" y="234" type="line" smooth="yes"/>
      <point x="1775" y="190"/>
      <point x="1785" y="138"/>
      <point x="1816" y="110"/>
      <point x="1873" y="98"/>
      <point x="1920" y="93" type="qcurve"/>
      <point x="1920" y="50" type="line"/>
      <point x="1869" y="39"/>
      <point x="1800" y="24"/>
      <point x="1743" y="7"/>
      <point x="1688" y="-14"/>
      <point x="1652" y="-30" type="qcurve"/>
      <point x="1615" y="6" type="line"/>
      <point x="1615" y="294" type="line"/>
      <point x="1555" y="205"/>
      <point x="1438" y="82"/>
      <point x="1328" y="5"/>
      <point x="1227" y="-30"/>
      <point x="1182" y="-30" type="qcurve" smooth="yes"/>
      <point x="1103" y="-30"/>
      <point x="1001" y="27"/>
      <point x="940" y="119"/>
      <point x="914" y="235"/>
      <point x="911" y="293" type="qcurve"/>
      <point x="855" y="209"/>
      <point x="738" y="87"/>
      <point x="626" y="8"/>
      <point x="520" y="-30"/>
      <point x="474" y="-30" type="qcurve" smooth="yes"/>
      <point x="410" y="-30"/>
      <point x="307" y="10"/>
      <point x="234" y="96"/>
      <point x="195" y="230"/>
      <point x="195" y="324" type="qcurve" smooth="yes"/>
      <point x="195" y="1155" type="line" smooth="yes"/>
      <point x="195" y="1169"/>
      <point x="123" y="1202"/>
      <point x="50" y="1217" type="qcurve"/>
      <point x="50" y="1260" type="line"/>
    </contour>
  </outline>
</glyph>
<glyph name="uni019E" format="1">
  <advance width="1120"/>
  <unicode hex="019E"/>
  <outline>
    <contour>
      <point x="670" y="-480" type="line"/>
      <point x="670" y="-437" type="line"/>
      <point x="742" y="-418"/>
      <point x="810" y="-390"/>
      <point x="810" y="-376" type="qcurve" smooth="yes"/>
      <point x="810" y="633" type="line" smooth="yes"/>
      <point x="810" y="694"/>
      <point x="796" y="770"/>
      <point x="766" y="814"/>
      <point x="717" y="830"/>
      <point x="682" y="830" type="qcurve" smooth="yes"/>
      <point x="651" y="830"/>
      <point x="575" y="800"/>
      <point x="488" y="734"/>
      <point x="393" y="627"/>
      <point x="345" y="549" type="qcurve"/>
      <point x="345" y="104" type="line" smooth="yes"/>
      <point x="345" y="89"/>
      <point x="420" y="57"/>
      <point x="485" y="43" type="qcurve"/>
      <point x="485" y="0" type="line"/>
      <point x="55" y="0" type="line"/>
      <point x="55" y="43" type="line"/>
      <point x="121" y="60"/>
      <point x="195" y="87"/>
      <point x="195" y="104" type="qcurve" smooth="yes"/>
      <point x="195" y="711" type="line" smooth="yes"/>
      <point x="195" y="750"/>
      <point x="189" y="796"/>
      <point x="162" y="822"/>
      <point x="106" y="834"/>
      <point x="55" y="840" type="qcurve"/>
      <point x="55" y="880" type="line"/>
      <point x="123" y="891"/>
      <point x="239" y="932"/>
      <point x="295" y="960" type="qcurve"/>
      <point x="330" y="925" type="line"/>
      <point x="341" y="676" type="line"/>
      <point x="385" y="743"/>
      <point x="491" y="848"/>
      <point x="599" y="921"/>
      <point x="700" y="960"/>
      <point x="739" y="960" type="qcurve" smooth="yes"/>
      <point x="782" y="960"/>
      <point x="862" y="934"/>
      <point x="923" y="880"/>
      <point x="960" y="797"/>
      <point x="960" y="741" type="qcurve" smooth="yes"/>
      <point x="960" y="-376" type="line" smooth="yes"/>
      <point x="960" y="-390"/>
      <point x="1021" y="-417"/>
      <point x="1100" y="-437" type="qcurve"/>
      <point x="1100" y="-480" type="line"/>
    </contour>
  </outline>
</glyph>
<glyph name="uni019F" format="1">
  <advance width="1229"/>
  <unicode hex="019F"/>
  <outline>
    <contour>
      <point x="604" y="1176" type="qcurve" smooth="yes"/>
      <point x="521" y="1176"/>
      <point x="387" y="1110"/>
      <point x="291" y="988"/>
      <point x="233" y="813"/>
      <point x="227" y="705" type="qcurve"/>
      <point x="979" y="705" type="line"/>
      <point x="970" y="798"/>
      <point x="908" y="968"/>
      <point x="811" y="1098"/>
      <point x="681" y="1176"/>
    </contour>
    <contour>
      <point x="604" y="90" type="qcurve" smooth="yes"/>
      <point x="686" y="90"/>
      <point x="823" y="157"/>
      <point x="923" y="290"/>
      <point x="980" y="486"/>
      <point x="982" y="615" type="qcurve"/>
      <point x="225" y="615" type="line"/>
      <point x="229" y="507"/>
      <point x="292" y="316"/>
      <point x="395" y="173"/>
      <point x="529" y="90"/>
    </contour>
    <contour>
      <point x="1138" y="647" type="qcurve" smooth="yes"/>
      <point x="1138" y="511"/>
      <point x="1048" y="266"/>
      <point x="893" y="80"/>
      <point x="689" y="-30"/>
      <point x="575" y="-30" type="qcurve" smooth="yes"/>
      <point x="455" y="-30"/>
      <point x="267" y="76"/>
      <point x="138" y="254"/>
      <point x="70" y="486"/>
      <point x="70" y="612" type="qcurve" smooth="yes"/>
      <point x="70" y="748"/>
      <point x="158" y="994"/>
      <point x="310" y="1180"/>
      <point x="515" y="1290"/>
      <point x="633" y="1290" type="qcurve" smooth="yes"/>
      <point x="757" y="1290"/>
      <point x="945" y="1181"/>
      <point x="1073" y="1001"/>
      <point x="1138" y="769"/>
    </contour>
  </outline>
</glyph>
<glyph name="uni01A4" format="1">
  <advance width="1301"/>
  <unicode hex="01A4"/>
  <outline>
    <contour>
      <point x="280" y="0" type="line"/>
      <point x="280" y="43" type="line"/>
      <point x="348" y="57"/>
      <point x="425" y="90"/>
      <point x="425" y="104" type="qcurve" smooth="yes"/>
      <point x="425" y="1197" type="line"/>
      <point x="307" y="1182"/>
      <point x="194" y="1100"/>
      <point x="194" y="1036" type="qcurve" smooth="yes"/>
      <point x="194" y="1000"/>
      <point x="232" y="944"/>
      <point x="263" y="930" type="qcurve"/>
      <point x="260" y="924"/>
      <point x="229" y="902"/>
      <point x="185" y="880"/>
      <point x="136" y="860"/>
      <point x="115" y="856" type="qcurve"/>
      <point x="78" y="872"/>
      <point x="30" y="948"/>
      <point x="30" y="1003" type="qcurve" smooth="yes"/>
      <point x="30" y="1068"/>
      <point x="103" y="1174"/>
      <point x="251" y="1249"/>
      <point x="477" y="1290"/>
      <point x="629" y="1290" type="qcurve" smooth="yes"/>
      <point x="699" y="1290"/>
      <point x="799" y="1286"/>
      <point x="873" y="1278"/>
      <point x="927" y="1268"/>
      <point x="952" y="1261" type="qcurve" smooth="yes"/>
      <point x="1013" y="1244"/>
      <point x="1109" y="1188"/>
      <point x="1176" y="1107"/>
      <point x="1212" y="1002"/>
      <point x="1212" y="936" type="qcurve" smooth="yes"/>
      <point x="1212" y="867"/>
      <point x="1173" y="753"/>
      <point x="1108" y="664"/>
      <point x="1024" y="599"/>
      <point x="933" y="556"/>
      <point x="842" y="535"/>
      <point x="803" y="535" type="qcurve" smooth="yes"/>
      <point x="709" y="535"/>
      <point x="642" y="565" type="qcurve"/>
      <point x="619" y="641" type="line"/>
      <point x="661" y="622"/>
      <point x="738" y="611"/>
      <point x="773" y="611" type="qcurve" smooth="yes"/>
      <point x="819" y="611"/>
      <point x="919" y="647"/>
      <point x="1003" y="718"/>
      <point x="1057" y="824"/>
      <point x="1057" y="895" type="qcurve" smooth="yes"/>
      <point x="1057" y="1001"/>
      <point x="960" y="1144"/>
      <point x="876" y="1172" type="qcurve" smooth="yes"/>
      <point x="847" y="1181"/>
      <point x="798" y="1194"/>
      <point x="736" y="1202"/>
      <point x="650" y="1206"/>
      <point x="585" y="1206" type="qcurve"/>
      <point x="585" y="104" type="line" smooth="yes"/>
      <point x="585" y="98"/>
      <point x="601" y="84"/>
      <point x="640" y="68"/>
      <point x="708" y="52"/>
      <point x="760" y="43" type="qcurve"/>
      <point x="760" y="0" type="line"/>
    </contour>
  </outline>
</glyph>
<glyph name="uni01A7" format="1">
  <advance width="975"/>
  <unicode hex="01A7"/>
  <outline>
    <contour>
      <point x="115" y="337" type="qcurve" smooth="yes"/>
      <point x="115" y="422"/>
      <point x="169" y="550"/>
      <point x="258" y="648"/>
      <point x="371" y="721"/>
      <point x="490" y="782"/>
      <point x="603" y="836"/>
      <point x="692" y="896"/>
      <point x="746" y="967"/>
      <point x="746" y="1014" type="qcurve" smooth="yes"/>
      <point x="746" y="1042"/>
      <point x="721" y="1103"/>
      <point x="669" y="1154"/>
      <point x="588" y="1186"/>
      <point x="533" y="1186" type="qcurve" smooth="yes"/>
      <point x="486" y="1186"/>
      <point x="405" y="1162"/>
      <point x="340" y="1121"/>
      <point x="294" y="1064"/>
      <point x="281" y="1031" type="qcurve"/>
      <point x="245" y="1025" type="line"/>
      <point x="233" y="1036"/>
      <point x="203" y="1082"/>
      <point x="180" y="1131"/>
      <point x="170" y="1172"/>
      <point x="177" y="1178" type="qcurve" smooth="yes"/>
      <point x="195" y="1198"/>
      <point x="274" y="1238"/>
      <point x="373" y="1270"/>
      <point x="479" y="1290"/>
      <point x="524" y="1290" type="qcurve" smooth="yes"/>
      <point x="634" y="1290"/>
      <point x="770" y="1234"/>
      <point x="846" y="1147"/>
      <point x="873" y="1044"/>
      <point x="873" y="997" type="qcurve" smooth="yes"/>
      <point x="873" y="917"/>
      <point x="819" y="801"/>
      <point x="731" y="714"/>
      <point x="619" y="650"/>
      <point x="502" y="594"/>
      <point x="390" y="540"/>
      <point x="302" y="472"/>
      <point x="248" y="385"/>
      <point x="248" y="324" type="qcurve" smooth="yes"/>
      <point x="248" y="273"/>
      <point x="291" y="187"/>
      <point x="363" y="125"/>
      <point x="455" y="90"/>
      <point x="504" y="90" type="qcurve" smooth="yes"/>
      <point x="555" y="90"/>
      <point x="652" y="124"/>
      <point x="736" y="188"/>
      <point x="805" y="280"/>
      <point x="828" y="339" type="qcurve"/>
      <point x="869" y="344" type="line"/>
      <point x="876" y="317"/>
      <point x="883" y="233"/>
      <point x="883" y="192" type="qcurve" smooth="yes"/>
      <point x="883" y="152"/>
      <point x="876" y="92"/>
      <point x="869" y="88" type="qcurve" smooth="yes"/>
      <point x="834" y="65"/>
      <point x="748" y="23"/>
      <point x="651" y="-10"/>
      <point x="545" y="-30"/>
      <point x="490" y="-30" type="qcurve" smooth="yes"/>
      <point x="392" y="-30"/>
      <point x="250" y="35"/>
      <point x="159" y="139"/>
      <point x="115" y="270"/>
    </contour>
  </outline>
</glyph>
<glyph name="uni01AA" format="1">
  <advance width="512"/>
  <unicode hex="01AA"/>
  <outline>
    <contour>
      <point x="75" y="1213" type="qcurve" smooth="yes"/>
      <point x="98" y="1213"/>
      <point x="137" y="1228"/>
      <point x="169" y="1250"/>
      <point x="195" y="1278"/>
      <point x="204" y="1291" type="qcurve"/>
      <point x="174" y="1455"/>
      <point x="69" y="1455" type="qcurve" smooth="yes"/>
      <point x="47" y="1455"/>
      <point x="8" y="1435"/>
      <point x="-22" y="1401"/>
      <point x="-39" y="1357"/>
      <point x="-39" y="1334" type="qcurve" smooth="yes"/>
      <point x="-39" y="1307"/>
      <point x="-20" y="1262"/>
      <point x="12" y="1231"/>
      <point x="53" y="1213"/>
    </contour>
    <contour>
      <point x="-164" y="1282" type="qcurve" smooth="yes"/>
      <point x="-164" y="1326"/>
      <point x="-117" y="1421"/>
      <point x="-35" y="1499"/>
      <point x="77" y="1550"/>
      <point x="143" y="1550" type="qcurve" smooth="yes"/>
      <point x="204" y="1550"/>
      <point x="292" y="1492"/>
      <point x="349" y="1396"/>
      <point x="376" y="1272"/>
      <point x="376" y="1207" type="qcurve" smooth="yes"/>
      <point x="376" y="1055"/>
      <point x="362" y="740"/>
      <point x="345" y="434"/>
      <point x="331" y="146"/>
      <point x="331" y="21" type="qcurve" smooth="yes"/>
      <point x="331" y="-99"/>
      <point x="355" y="-262"/>
      <point x="400" y="-362"/>
      <point x="463" y="-405"/>
      <point x="503" y="-405" type="qcurve" smooth="yes"/>
      <point x="532" y="-405"/>
      <point x="579" y="-377"/>
      <point x="607" y="-335"/>
      <point x="612" y="-285"/>
      <point x="599" y="-264" type="qcurve" smooth="yes"/>
      <point x="596" y="-260"/>
      <point x="636" y="-235"/>
      <point x="692" y="-211"/>
      <point x="750" y="-194"/>
      <point x="765" y="-196" type="qcurve"/>
      <point x="784" y="-235" type="line"/>
      <point x="787" y="-273"/>
      <point x="732" y="-365"/>
      <point x="636" y="-446"/>
      <point x="508" y="-500"/>
      <point x="439" y="-500" type="qcurve" smooth="yes"/>
      <point x="371" y="-500"/>
      <point x="270" y="-436"/>
      <point x="204" y="-317"/>
      <point x="171" y="-147"/>
      <point x="171" y="-40" type="qcurve" smooth="yes"/>
      <point x="171" y="108"/>
      <point x="185" y="417"/>
      <point x="202" y="721"/>
      <point x="216" y="1014"/>
      <point x="216" y="1146" type="qcurve" smooth="yes"/>
      <point x="216" y="1156"/>
      <point x="215" y="1175"/>
      <point x="215" y="1185" type="qcurve"/>
      <point x="170" y="1136"/>
      <point x="70" y="1092"/>
      <point x="19" y="1092" type="qcurve" smooth="yes"/>
      <point x="-24" y="1092"/>
      <point x="-92" y="1121"/>
      <point x="-139" y="1172"/>
      <point x="-164" y="1242"/>
    </contour>
  </outline>
</glyph>
<glyph name="uni01AD" format="1">
  <advance width="705"/>
  <unicode hex="01AD"/>
  <outline>
    <contour>
      <point x="717" y="1423" type="qcurve" smooth="yes"/>
      <point x="717" y="1415"/>
      <point x="688" y="1384"/>
      <point x="648" y="1351"/>
      <point x="605" y="1322"/>
      <point x="590" y="1315" type="qcurve"/>
      <point x="569" y="1349"/>
      <point x="528" y="1393"/>
      <point x="489" y="1418"/>
      <point x="455" y="1427"/>
      <point x="441" y="1427" type="qcurve" smooth="yes"/>
      <point x="411" y="1427"/>
      <point x="366" y="1397"/>
      <point x="336" y="1329"/>
      <point x="321" y="1217"/>
      <point x="320" y="1135" type="qcurve" smooth="yes"/>
      <point x="320" y="930" type="line"/>
      <point x="647" y="930" type="line"/>
      <point x="676" y="901" type="line"/>
      <point x="667" y="887"/>
      <point x="640" y="856"/>
      <point x="612" y="827"/>
      <point x="585" y="805"/>
      <point x="575" y="801" type="qcurve"/>
      <point x="551" y="813"/>
      <point x="453" y="836"/>
      <point x="372" y="836" type="qcurve" smooth="yes"/>
      <point x="320" y="836" type="line"/>
      <point x="320" y="307" type="line" smooth="yes"/>
      <point x="320" y="247"/>
      <point x="331" y="168"/>
      <point x="357" y="121"/>
      <point x="398" y="102"/>
      <point x="428" y="102" type="qcurve" smooth="yes"/>
      <point x="463" y="102"/>
      <point x="569" y="128"/>
      <point x="647" y="168" type="qcurve"/>
      <point x="676" y="117" type="line"/>
      <point x="627" y="81"/>
      <point x="531" y="26"/>
      <point x="444" y="-11"/>
      <point x="370" y="-30"/>
      <point x="344" y="-30" type="qcurve" smooth="yes"/>
      <point x="309" y="-30"/>
      <point x="246" y="-4"/>
      <point x="198" y="55"/>
      <point x="170" y="151"/>
      <point x="170" y="221" type="qcurve" smooth="yes"/>
      <point x="170" y="836" type="line"/>
      <point x="41" y="836" type="line"/>
      <point x="20" y="864" type="line"/>
      <point x="98" y="930" type="line"/>
      <point x="170" y="930" type="line"/>
      <point x="170" y="1056" type="line" smooth="yes"/>
      <point x="170" y="1140"/>
      <point x="187" y="1261"/>
      <point x="223" y="1353"/>
      <point x="279" y="1424"/>
      <point x="318" y="1458" type="qcurve" smooth="yes"/>
      <point x="369" y="1503"/>
      <point x="480" y="1550"/>
      <point x="519" y="1550" type="qcurve" smooth="yes"/>
      <point x="562" y="1550"/>
      <point x="635" y="1517"/>
      <point x="688" y="1474"/>
      <point x="717" y="1432"/>
    </contour>
  </outline>
</glyph>
<glyph name="uni01AE" format="1">
  <advance width="1128"/>
  <unicode hex="01AE"/>
  <outline>
    <contour>
      <point x="1079" y="-115" type="line"/>
      <point x="1082" y="-153"/>
      <point x="1024" y="-245"/>
      <point x="922" y="-326"/>
      <point x="787" y="-380"/>
      <point x="714" y="-380" type="qcurve" smooth="yes"/>
      <point x="592" y="-380"/>
      <point x="471" y="-216"/>
      <point x="471" y="-47" type="qcurve" smooth="yes"/>
      <point x="471" y="1170" type="line"/>
      <point x="172" y="1170" type="line" smooth="yes"/>
      <point x="157" y="1170"/>
      <point x="132" y="1159"/>
      <point x="107" y="1123"/>
      <point x="75" y="1053"/>
      <point x="53" y="995" type="qcurve"/>
      <point x="10" y="1014" type="line"/>
      <point x="15" y="1073"/>
      <point x="32" y="1207"/>
      <point x="43" y="1260" type="qcurve"/>
      <point x="1053" y="1260" type="line"/>
      <point x="1083" y="1235" type="line"/>
      <point x="1081" y="1184"/>
      <point x="1065" y="1063"/>
      <point x="1053" y="1000" type="qcurve"/>
      <point x="1008" y="1000" type="line"/>
      <point x="999" y="1042"/>
      <point x="984" y="1106"/>
      <point x="965" y="1149"/>
      <point x="937" y="1170"/>
      <point x="915" y="1170" type="qcurve" smooth="yes"/>
      <point x="631" y="1170" type="line"/>
      <point x="631" y="14" type="line" smooth="yes"/>
      <point x="631" y="-70"/>
      <point x="653" y="-184"/>
      <point x="694" y="-254"/>
      <point x="752" y="-285"/>
      <point x="788" y="-285" type="qcurve" smooth="yes"/>
      <point x="817" y="-285"/>
      <point x="868" y="-257"/>
      <point x="899" y="-215"/>
      <point x="907" y="-165"/>
      <point x="894" y="-144" type="qcurve" smooth="yes"/>
      <point x="891" y="-140"/>
      <point x="931" y="-115"/>
      <point x="987" y="-91"/>
      <point x="1045" y="-74"/>
      <point x="1060" y="-76" type="qcurve"/>
      <point x="1079" y="-115" type="line"/>
    </contour>
  </outline>
</glyph>
<glyph name="uni01B1" format="1">
  <advance width="1302"/>
  <unicode hex="01B1"/>
  <outline>
    <contour>
      <point x="1212" y="1217" type="line"/>
      <point x="1210" y="1217"/>
      <point x="1159" y="1207"/>
      <point x="1082" y="1187"/>
      <point x="1016" y="1162"/>
      <point x="981" y="1129"/>
      <point x="997" y="1111" type="qcurve" smooth="yes"/>
      <point x="1034" y="1070"/>
      <point x="1096" y="967"/>
      <point x="1142" y="844"/>
      <point x="1168" y="702"/>
      <point x="1168" y="623" type="qcurve" smooth="yes"/>
      <point x="1168" y="550"/>
      <point x="1133" y="396"/>
      <point x="1067" y="251"/>
      <point x="972" y="123"/>
      <point x="852" y="26"/>
      <point x="707" y="-30"/>
      <point x="625" y="-30" type="qcurve" smooth="yes"/>
      <point x="509" y="-30"/>
      <point x="316" y="63"/>
      <point x="177" y="226"/>
      <point x="100" y="448"/>
      <point x="100" y="576" type="qcurve" smooth="yes"/>
      <point x="100" y="659"/>
      <point x="128" y="813"/>
      <point x="177" y="950"/>
      <point x="244" y="1066"/>
      <point x="283" y="1111" type="qcurve" smooth="yes"/>
      <point x="299" y="1130"/>
      <point x="265" y="1163"/>
      <point x="199" y="1188"/>
      <point x="123" y="1207"/>
      <point x="72" y="1217"/>
      <point x="70" y="1217" type="qcurve" smooth="yes"/>
      <point x="70" y="1260" type="line"/>
      <point x="506" y="1260" type="line"/>
      <point x="530" y="1201" type="line"/>
      <point x="455" y="1154"/>
      <point x="351" y="1034"/>
      <point x="286" y="888"/>
      <point x="256" y="715"/>
      <point x="256" y="615" type="qcurve" smooth="yes"/>
      <point x="256" y="507"/>
      <point x="318" y="315"/>
      <point x="426" y="171"/>
      <point x="570" y="88"/>
      <point x="651" y="88" type="qcurve" smooth="yes"/>
      <point x="733" y="88"/>
      <point x="868" y="167"/>
      <point x="964" y="304"/>
      <point x="1016" y="489"/>
      <point x="1016" y="595" type="qcurve" smooth="yes"/>
      <point x="1016" y="696"/>
      <point x="982" y="882"/>
      <point x="915" y="1040"/>
      <point x="817" y="1163"/>
      <point x="753" y="1201" type="qcurve"/>
      <point x="780" y="1260" type="line"/>
      <point x="1212" y="1260" type="line"/>
      <point x="1212" y="1217" type="line"/>
    </contour>
  </outline>
</glyph>
<glyph name="uni01B2" format="1">
  <advance width="1258"/>
  <unicode hex="01B2"/>
  <outline>
    <contour>
      <point x="877" y="1290" type="line"/>
      <point x="922" y="1282"/>
      <point x="1001" y="1229"/>
      <point x="1066" y="1149"/>
      <point x="1116" y="1046"/>
      <point x="1150" y="932"/>
      <point x="1168" y="812"/>
      <point x="1168" y="754" type="qcurve" smooth="yes"/>
      <point x="1168" y="644"/>
      <point x="1126" y="442"/>
      <point x="1052" y="268"/>
      <point x="948" y="126"/>
      <point x="826" y="25"/>
      <point x="688" y="-30"/>
      <point x="616" y="-30" type="qcurve" smooth="yes"/>
      <point x="528" y="-30"/>
      <point x="374" y="27"/>
      <point x="260" y="144"/>
      <point x="195" y="322"/>
      <point x="195" y="444" type="qcurve" smooth="yes"/>
      <point x="195" y="1155" type="line" smooth="yes"/>
      <point x="195" y="1167"/>
      <point x="122" y="1203"/>
      <point x="50" y="1217" type="qcurve"/>
      <point x="50" y="1260" type="line"/>
      <point x="500" y="1260" type="line"/>
      <point x="500" y="1217" type="line"/>
      <point x="432" y="1203"/>
      <point x="355" y="1169"/>
      <point x="355" y="1155" type="qcurve" smooth="yes"/>
      <point x="355" y="494" type="line" smooth="yes"/>
      <point x="355" y="398"/>
      <point x="396" y="246"/>
      <point x="473" y="140"/>
      <point x="584" y="84"/>
      <point x="655" y="84" type="qcurve" smooth="yes"/>
      <point x="719" y="84"/>
      <point x="848" y="169"/>
      <point x="952" y="325"/>
      <point x="1018" y="548"/>
      <point x="1018" y="686" type="qcurve" smooth="yes"/>
      <point x="1018" y="735"/>
      <point x="1002" y="845"/>
      <point x="967" y="954"/>
      <point x="912" y="1054"/>
      <point x="834" y="1129"/>
      <point x="733" y="1173"/>
      <point x="669" y="1172" type="qcurve"/>
      <point x="647" y="1233" type="line"/>
      <point x="877" y="1290" type="line"/>
    </contour>
  </outline>
</glyph>
<glyph name="uni01B5" format="1">
  <advance width="1071"/>
  <unicode hex="01B5"/>
  <outline>
    <contour>
      <point x="866" y="615" type="line"/>
      <point x="601" y="615" type="line"/>
      <point x="276" y="100" type="line"/>
      <point x="799" y="100" type="line" smooth="yes"/>
      <point x="820" y="100"/>
      <point x="854" y="119"/>
      <point x="885" y="165"/>
      <point x="917" y="245"/>
      <point x="936" y="307" type="qcurve"/>
      <point x="991" y="293" type="line"/>
      <point x="989" y="261"/>
      <point x="986" y="183"/>
      <point x="983" y="104"/>
      <point x="980" y="29"/>
      <point x="979" y="0" type="qcurve"/>
      <point x="88" y="0" type="line"/>
      <point x="59" y="45" type="line"/>
      <point x="422" y="615" type="line"/>
      <point x="210" y="615" type="line"/>
      <point x="188" y="640" type="line"/>
      <point x="193" y="655"/>
      <point x="204" y="689"/>
      <point x="210" y="705" type="qcurve"/>
      <point x="480" y="705" type="line"/>
      <point x="770" y="1160" type="line"/>
      <point x="311" y="1160" type="line" smooth="yes"/>
      <point x="295" y="1160"/>
      <point x="257" y="1138"/>
      <point x="221" y="1090"/>
      <point x="189" y="1015"/>
      <point x="178" y="963" type="qcurve"/>
      <point x="121" y="975" type="line"/>
      <point x="150" y="1276" type="line"/>
      <point x="177" y="1270"/>
      <point x="222" y="1263"/>
      <point x="265" y="1260"/>
      <point x="288" y="1260" type="qcurve" smooth="yes"/>
      <point x="311" y="1260"/>
      <point x="340" y="1260" type="qcurve" smooth="yes"/>
      <point x="956" y="1260" type="line"/>
      <point x="981" y="1217" type="line"/>
      <point x="658" y="705" type="line"/>
      <point x="866" y="705" type="line"/>
      <point x="891" y="682" type="line"/>
    </contour>
  </outline>
</glyph>
<glyph name="uni01BB" format="1">
  <advance width="890"/>
  <unicode hex="01BB"/>
  <outline>
    <contour>
      <point x="791" y="490" type="line"/>
      <point x="553" y="490" type="line"/>
      <point x="493" y="415"/>
      <point x="341" y="234"/>
      <point x="244" y="121" type="qcurve"/>
      <point x="662" y="121" type="line" smooth="yes"/>
      <point x="689" y="121"/>
      <point x="726" y="158"/>
      <point x="748" y="209"/>
      <point x="760" y="263"/>
      <point x="764" y="298"/>
      <point x="764" y="299" type="qcurve" smooth="yes"/>
      <point x="814" y="287" type="line"/>
      <point x="799" y="0" type="line"/>
      <point x="105" y="0" type="line"/>
      <point x="76" y="74" type="line"/>
      <point x="190" y="206"/>
      <point x="360" y="409"/>
      <point x="423" y="490" type="qcurve"/>
      <point x="224" y="490" type="line"/>
      <point x="201" y="512" type="line"/>
      <point x="206" y="528"/>
      <point x="216" y="564"/>
      <point x="224" y="580" type="qcurve"/>
      <point x="491" y="580" type="line"/>
      <point x="537" y="643"/>
      <point x="597" y="741"/>
      <point x="632" y="822"/>
      <point x="646" y="891"/>
      <point x="646" y="924" type="qcurve" smooth="yes"/>
      <point x="646" y="970"/>
      <point x="624" y="1049"/>
      <point x="576" y="1108"/>
      <point x="499" y="1141"/>
      <point x="445" y="1141" type="qcurve" smooth="yes"/>
      <point x="404" y="1141"/>
      <point x="336" y="1103"/>
      <point x="286" y="1043"/>
      <point x="259" y="969"/>
      <point x="259" y="934" type="qcurve"/>
      <point x="242" y="925"/>
      <point x="215" y="909"/>
      <point x="186" y="896"/>
      <point x="153" y="887"/>
      <point x="130" y="885" type="qcurve"/>
      <point x="103" y="915" type="line"/>
      <point x="103" y="967"/>
      <point x="173" y="1080"/>
      <point x="289" y="1174"/>
      <point x="436" y="1235"/>
      <point x="513" y="1235" type="qcurve" smooth="yes"/>
      <point x="573" y="1235"/>
      <point x="678" y="1201"/>
      <point x="755" y="1132"/>
      <point x="799" y="1025"/>
      <point x="799" y="952" type="qcurve" smooth="yes"/>
      <point x="799" y="913"/>
      <point x="779" y="833"/>
      <point x="737" y="744"/>
      <point x="670" y="641"/>
      <point x="624" y="580" type="qcurve"/>
      <point x="791" y="580" type="line"/>
      <point x="813" y="555" type="line"/>
    </contour>
  </outline>
</glyph>
<glyph name="uni01BD" format="1">
  <advance width="915"/>
  <unicode hex="01BD"/>
  <outline>
    <contour>
      <point x="835" y="293" type="qcurve" smooth="yes"/>
      <point x="835" y="227"/>
      <point x="779" y="110"/>
      <point x="677" y="21"/>
      <point x="535" y="-30"/>
      <point x="450" y="-30" type="qcurve" smooth="yes"/>
      <point x="369" y="-30"/>
      <point x="250" y="6"/>
      <point x="170" y="54"/>
      <point x="131" y="103"/>
      <point x="131" y="116" type="qcurve" smooth="yes"/>
      <point x="131" y="120"/>
      <point x="157" y="152"/>
      <point x="196" y="187"/>
      <point x="241" y="217"/>
      <point x="261" y="219" type="qcurve"/>
      <point x="278" y="189"/>
      <point x="324" y="131"/>
      <point x="381" y="86"/>
      <point x="448" y="59"/>
      <point x="487" y="59" type="qcurve" smooth="yes"/>
      <point x="542" y="59"/>
      <point x="619" y="93"/>
      <point x="665" y="148"/>
      <point x="686" y="218"/>
      <point x="686" y="255" type="qcurve" smooth="yes"/>
      <point x="686" y="310"/>
      <point x="650" y="395"/>
      <point x="585" y="453"/>
      <point x="497" y="483"/>
      <point x="445" y="483" type="qcurve" smooth="yes"/>
      <point x="389" y="483"/>
      <point x="290" y="457"/>
      <point x="229" y="428" type="qcurve"/>
      <point x="223" y="433"/>
      <point x="201" y="455"/>
      <point x="197" y="461" type="qcurve"/>
      <point x="197" y="462" type="line"/>
      <point x="195" y="461" type="line"/>
      <point x="195" y="841" type="line" smooth="yes"/>
      <point x="195" y="850"/>
      <point x="123" y="876"/>
      <point x="55" y="887" type="qcurve"/>
      <point x="55" y="930" type="line"/>
      <point x="784" y="930" type="line"/>
      <point x="813" y="912" type="line"/>
      <point x="812" y="893"/>
      <point x="802" y="826"/>
      <point x="788" y="752"/>
      <point x="773" y="683"/>
      <point x="766" y="662" type="qcurve"/>
      <point x="721" y="662" type="line"/>
      <point x="718" y="709"/>
      <point x="710" y="777"/>
      <point x="697" y="820"/>
      <point x="674" y="840"/>
      <point x="656" y="840" type="qcurve" smooth="yes"/>
      <point x="345" y="840" type="line"/>
      <point x="345" y="545" type="line"/>
      <point x="388" y="558"/>
      <point x="458" y="570"/>
      <point x="504" y="570" type="qcurve" smooth="yes"/>
      <point x="567" y="570"/>
      <point x="686" y="536"/>
      <point x="779" y="467"/>
      <point x="835" y="363"/>
    </contour>
  </outline>
</glyph>
<glyph name="uni01BE" format="1">
  <advance width="857"/>
  <unicode hex="01BE"/>
  <outline>
    <contour>
      <point x="766" y="283" type="qcurve" smooth="yes"/>
      <point x="766" y="212"/>
      <point x="726" y="111"/>
      <point x="662" y="41"/>
      <point x="584" y="-1"/>
      <point x="508" y="-23"/>
      <point x="441" y="-30"/>
      <point x="422" y="-30" type="qcurve" smooth="yes"/>
      <point x="374" y="-30"/>
      <point x="239" y="6"/>
      <point x="172" y="43" type="qcurve" smooth="yes"/>
      <point x="165" y="46"/>
      <point x="160" y="105"/>
      <point x="163" y="182"/>
      <point x="172" y="260"/>
      <point x="179" y="283" type="qcurve"/>
      <point x="222" y="272" type="line"/>
      <point x="224" y="230"/>
      <point x="264" y="156"/>
      <point x="331" y="100"/>
      <point x="420" y="68"/>
      <point x="472" y="68" type="qcurve" smooth="yes"/>
      <point x="508" y="68"/>
      <point x="568" y="91"/>
      <point x="612" y="133"/>
      <point x="636" y="192"/>
      <point x="636" y="227" type="qcurve" smooth="yes"/>
      <point x="636" y="267"/>
      <point x="593" y="329"/>
      <point x="523" y="380"/>
      <point x="434" y="425"/>
      <point x="388" y="449" type="qcurve" smooth="yes"/>
      <point x="346" y="470"/>
      <point x="268" y="518"/>
      <point x="207" y="578"/>
      <point x="170" y="652"/>
      <point x="170" y="700" type="qcurve" smooth="yes"/>
      <point x="170" y="701" type="line"/>
      <point x="170" y="836" type="line"/>
      <point x="41" y="836" type="line"/>
      <point x="20" y="864" type="line"/>
      <point x="98" y="930" type="line"/>
      <point x="170" y="930" type="line"/>
      <point x="170" y="1176" type="line"/>
      <point x="289" y="1280" type="line"/>
      <point x="320" y="1255" type="line"/>
      <point x="320" y="930" type="line"/>
      <point x="647" y="930" type="line"/>
      <point x="676" y="901" type="line"/>
      <point x="667" y="887"/>
      <point x="640" y="856"/>
      <point x="612" y="827"/>
      <point x="585" y="805"/>
      <point x="575" y="801" type="qcurve"/>
      <point x="551" y="813"/>
      <point x="453" y="836"/>
      <point x="372" y="836" type="qcurve" smooth="yes"/>
      <point x="320" y="836" type="line"/>
      <point x="320" y="743" type="line" smooth="yes"/>
      <point x="321" y="712"/>
      <point x="354" y="663"/>
      <point x="409" y="620"/>
      <point x="480" y="580"/>
      <point x="521" y="559" type="qcurve" smooth="yes"/>
      <point x="564" y="537"/>
      <point x="652" y="487"/>
      <point x="722" y="422"/>
      <point x="766" y="339"/>
    </contour>
  </outline>
</glyph>
<glyph name="uni01C0" format="1">
  <advance width="450"/>
  <unicode hex="01C0"/>
  <outline>
    <contour>
      <point x="300" y="12" type="line"/>
      <point x="291" y="4"/>
      <point x="262" y="-11"/>
      <point x="230" y="-25"/>
      <point x="197" y="-36"/>
      <point x="185" y="-40" type="qcurve"/>
      <point x="150" y="-17" type="line"/>
      <point x="150" y="1501" type="line"/>
      <point x="178" y="1518"/>
      <point x="235" y="1542"/>
      <point x="264" y="1550" type="qcurve"/>
      <point x="300" y="1528" type="line"/>
      <point x="300" y="12" type="line"/>
    </contour>
  </outline>
</glyph>
<glyph name="uni01C2" format="1">
  <advance width="630"/>
  <unicode hex="01C2"/>
  <outline>
    <contour>
      <point x="390" y="12" type="line"/>
      <point x="381" y="4"/>
      <point x="352" y="-11"/>
      <point x="320" y="-25"/>
      <point x="287" y="-36"/>
      <point x="275" y="-40" type="qcurve"/>
      <point x="240" y="-17" type="line"/>
      <point x="240" y="640" type="line"/>
      <point x="40" y="640" type="line"/>
      <point x="18" y="662" type="line"/>
      <point x="23" y="678"/>
      <point x="32" y="714"/>
      <point x="40" y="730" type="qcurve"/>
      <point x="240" y="730" type="line"/>
      <point x="240" y="840" type="line"/>
      <point x="40" y="840" type="line"/>
      <point x="18" y="862" type="line"/>
      <point x="23" y="878"/>
      <point x="32" y="914"/>
      <point x="40" y="930" type="qcurve"/>
      <point x="240" y="930" type="line"/>
      <point x="240" y="1501" type="line"/>
      <point x="268" y="1518"/>
      <point x="325" y="1542"/>
      <point x="354" y="1550" type="qcurve"/>
      <point x="390" y="1528" type="line"/>
      <point x="390" y="930" type="line"/>
      <point x="590" y="930" type="line"/>
      <point x="612" y="905" type="line"/>
      <point x="590" y="840" type="line"/>
      <point x="390" y="840" type="line"/>
      <point x="390" y="730" type="line"/>
      <point x="590" y="730" type="line"/>
      <point x="612" y="705" type="line"/>
      <point x="590" y="640" type="line"/>
      <point x="390" y="640" type="line"/>
      <point x="390" y="12" type="line"/>
    </contour>
  </outline>
</glyph>
<glyph name="uni01C3" format="1">
  <advance width="557"/>
  <unicode hex="01C3"/>
  <outline>
    <contour>
      <point x="391" y="123" type="qcurve" smooth="yes"/>
      <point x="391" y="88"/>
      <point x="370" y="29"/>
      <point x="333" y="-15"/>
      <point x="283" y="-40"/>
      <point x="254" y="-40" type="qcurve" smooth="yes"/>
      <point x="201" y="-40"/>
      <point x="154" y="18"/>
      <point x="154" y="72" type="qcurve" smooth="yes"/>
      <point x="154" y="106"/>
      <point x="176" y="165"/>
      <point x="214" y="210"/>
      <point x="264" y="236"/>
      <point x="293" y="236" type="qcurve" smooth="yes"/>
      <point x="344" y="236"/>
      <point x="391" y="177"/>
    </contour>
    <contour>
      <point x="326" y="389" type="line"/>
      <point x="307" y="375"/>
      <point x="277" y="358"/>
      <point x="252" y="350" type="qcurve"/>
      <point x="223" y="371" type="line"/>
      <point x="176" y="1468" type="line"/>
      <point x="214" y="1493"/>
      <point x="298" y="1536"/>
      <point x="332" y="1550" type="qcurve"/>
      <point x="375" y="1525" type="line"/>
    </contour>
  </outline>
</glyph>
<glyph name="uni01E5" format="1">
  <advance width="999"/>
  <unicode hex="01E5"/>
  <outline>
    <contour>
      <point x="522" y="-396" type="qcurve" smooth="yes"/>
      <point x="628" y="-396"/>
      <point x="776" y="-310"/>
      <point x="804" y="-240" type="qcurve"/>
      <point x="191" y="-240" type="line"/>
      <point x="206" y="-273"/>
      <point x="269" y="-330"/>
      <point x="357" y="-372"/>
      <point x="464" y="-396"/>
    </contour>
    <contour>
      <point x="518" y="-4" type="qcurve" smooth="yes"/>
      <point x="480" y="0"/>
      <point x="416" y="10"/>
      <point x="388" y="16" type="qcurve"/>
      <point x="336" y="-12"/>
      <point x="265" y="-59"/>
      <point x="218" y="-100"/>
      <point x="193" y="-135"/>
      <point x="187" y="-150" type="qcurve"/>
      <point x="820" y="-150" type="line"/>
      <point x="818" y="-123"/>
      <point x="790" y="-78"/>
      <point x="721" y="-42"/>
      <point x="606" y="-14"/>
    </contour>
    <contour>
      <point x="690" y="600" type="qcurve" smooth="yes"/>
      <point x="690" y="653"/>
      <point x="655" y="747"/>
      <point x="586" y="817"/>
      <point x="483" y="858"/>
      <point x="416" y="858" type="qcurve" smooth="yes"/>
      <point x="391" y="858"/>
      <point x="330" y="833"/>
      <point x="276" y="783"/>
      <point x="240" y="708"/>
      <point x="240" y="659" type="qcurve" smooth="yes"/>
      <point x="240" y="606"/>
      <point x="273" y="511"/>
      <point x="340" y="440"/>
      <point x="443" y="399"/>
      <point x="514" y="399" type="qcurve" smooth="yes"/>
      <point x="543" y="399"/>
      <point x="606" y="425"/>
      <point x="657" y="475"/>
      <point x="690" y="550"/>
    </contour>
    <contour>
      <point x="830" y="641" type="qcurve" smooth="yes"/>
      <point x="830" y="564"/>
      <point x="761" y="437"/>
      <point x="649" y="345"/>
      <point x="507" y="294"/>
      <point x="434" y="294" type="qcurve" smooth="yes"/>
      <point x="429" y="294" type="line"/>
      <point x="382" y="255"/>
      <point x="346" y="202"/>
      <point x="346" y="196" type="qcurve" smooth="yes"/>
      <point x="346" y="184"/>
      <point x="367" y="161"/>
      <point x="424" y="140"/>
      <point x="524" y="119"/>
      <point x="602" y="110" type="qcurve" smooth="yes"/>
      <point x="711" y="98"/>
      <point x="853" y="50"/>
      <point x="937" y="-13"/>
      <point x="970" y="-85"/>
      <point x="970" y="-120" type="qcurve" smooth="yes"/>
      <point x="970" y="-128"/>
      <point x="969" y="-142"/>
      <point x="968" y="-150" type="qcurve"/>
      <point x="1028" y="-150" type="line"/>
      <point x="1050" y="-175" type="line"/>
      <point x="1028" y="-240" type="line"/>
      <point x="941" y="-240" type="line"/>
      <point x="913" y="-298"/>
      <point x="811" y="-394"/>
      <point x="683" y="-462"/>
      <point x="538" y="-500"/>
      <point x="467" y="-500" type="qcurve" smooth="yes"/>
      <point x="421" y="-500"/>
      <point x="322" y="-487"/>
      <point x="227" y="-461"/>
      <point x="140" y="-419"/>
      <point x="73" y="-361"/>
      <point x="32" y="-287"/>
      <point x="30" y="-240" type="qcurve"/>
      <point x="-27" y="-240" type="line"/>
      <point x="-50" y="-218" type="line"/>
      <point x="-45" y="-202"/>
      <point x="-35" y="-166"/>
      <point x="-27" y="-150" type="qcurve"/>
      <point x="51" y="-150" type="line"/>
      <point x="62" y="-131"/>
      <point x="100" y="-88"/>
      <point x="159" y="-40"/>
      <point x="241" y="12"/>
      <point x="297" y="42" type="qcurve"/>
      <point x="232" y="65"/>
      <point x="182" y="123"/>
      <point x="182" y="153" type="qcurve" smooth="yes"/>
      <point x="182" y="161"/>
      <point x="192" y="188"/>
      <point x="223" y="226"/>
      <point x="279" y="276"/>
      <point x="325" y="308" type="qcurve"/>
      <point x="274" y="322"/>
      <point x="191" y="375"/>
      <point x="132" y="451"/>
      <point x="100" y="546"/>
      <point x="100" y="602" type="qcurve" smooth="yes"/>
      <point x="100" y="675"/>
      <point x="166" y="806"/>
      <point x="274" y="903"/>
      <point x="412" y="960"/>
      <point x="485" y="960" type="qcurve" smooth="yes"/>
      <point x="545" y="960"/>
      <point x="650" y="926"/>
      <point x="693" y="895" type="qcurve"/>
      <point x="745" y="900"/>
      <point x="829" y="916"/>
      <point x="896" y="934"/>
      <point x="948" y="952"/>
      <point x="969" y="960" type="qcurve"/>
      <point x="989" y="930" type="line"/>
      <point x="977" y="902"/>
      <point x="955" y="855"/>
      <point x="932" y="830" type="qcurve"/>
      <point x="894" y="823"/>
      <point x="821" y="815"/>
      <point x="775" y="813" type="qcurve"/>
      <point x="801" y="775"/>
      <point x="830" y="689"/>
    </contour>
  </outline>
</glyph>
<glyph name="uni021D" format="1">
  <advance width="876"/>
  <unicode hex="021D"/>
  <outline>
    <contour>
      <point x="796" y="125" type="qcurve" smooth="yes"/>
      <point x="796" y="78"/>
      <point x="777" y="-20"/>
      <point x="724" y="-121"/>
      <point x="633" y="-226"/>
      <point x="488" y="-334"/>
      <point x="283" y="-444"/>
      <point x="144" y="-500" type="qcurve"/>
      <point x="130" y="-488"/>
      <point x="113" y="-455"/>
      <point x="105" y="-440" type="qcurve"/>
      <point x="223" y="-386"/>
      <point x="417" y="-264"/>
      <point x="554" y="-135"/>
      <point x="629" y="-3"/>
      <point x="629" y="62" type="qcurve" smooth="yes"/>
      <point x="629" y="112"/>
      <point x="599" y="180"/>
      <point x="550" y="222"/>
      <point x="486" y="240"/>
      <point x="453" y="240" type="qcurve" smooth="yes"/>
      <point x="430" y="240"/>
      <point x="384" y="235"/>
      <point x="363" y="229" type="qcurve"/>
      <point x="363" y="229"/>
      <point x="363" y="229" type="qcurve"/>
      <point x="363" y="230"/>
      <point x="364" y="230" type="qcurve"/>
      <point x="338" y="216"/>
      <point x="283" y="188"/>
      <point x="253" y="174" type="qcurve"/>
      <point x="250" y="185"/>
      <point x="237" y="224"/>
      <point x="232" y="244" type="qcurve"/>
      <point x="329" y="307"/>
      <point x="472" y="413"/>
      <point x="566" y="514"/>
      <point x="611" y="616"/>
      <point x="611" y="673" type="qcurve" smooth="yes"/>
      <point x="611" y="763"/>
      <point x="508" y="861"/>
      <point x="424" y="860" type="qcurve" smooth="yes"/>
      <point x="370" y="859"/>
      <point x="279" y="827"/>
      <point x="212" y="766"/>
      <point x="170" y="678"/>
      <point x="165" y="621" type="qcurve"/>
      <point x="126" y="613" type="line"/>
      <point x="109" y="645"/>
      <point x="82" y="719"/>
      <point x="67" y="784"/>
      <point x="66" y="831"/>
      <point x="75" y="836" type="qcurve" smooth="yes"/>
      <point x="180" y="896"/>
      <point x="384" y="960"/>
      <point x="498" y="960" type="qcurve" smooth="yes"/>
      <point x="544" y="960"/>
      <point x="644" y="938"/>
      <point x="727" y="882"/>
      <point x="781" y="787"/>
      <point x="781" y="714" type="qcurve" smooth="yes"/>
      <point x="781" y="668"/>
      <point x="762" y="581"/>
      <point x="715" y="495"/>
      <point x="637" y="409"/>
      <point x="578" y="364" type="qcurve"/>
      <point x="681" y="347"/>
      <point x="796" y="228"/>
    </contour>
  </outline>
</glyph>
<glyph name="uni0223" format="1">
  <advance width="1030"/>
  <unicode hex="0223"/>
  <outline>
    <contour>
      <point x="797" y="434" type="qcurve" smooth="yes"/>
      <point x="797" y="527"/>
      <point x="738" y="656"/>
      <point x="643" y="747"/>
      <point x="523" y="810"/>
      <point x="461" y="837" type="qcurve"/>
      <point x="352" y="749"/>
      <point x="233" y="555"/>
      <point x="233" y="441" type="qcurve" smooth="yes"/>
      <point x="233" y="365"/>
      <point x="280" y="233"/>
      <point x="362" y="136"/>
      <point x="473" y="80"/>
      <point x="538" y="80" type="qcurve" smooth="yes"/>
      <point x="601" y="80"/>
      <point x="698" y="141"/>
      <point x="763" y="241"/>
      <point x="797" y="368"/>
    </contour>
    <contour>
      <point x="394" y="1361" type="line"/>
      <point x="360" y="1344"/>
      <point x="315" y="1307"/>
      <point x="288" y="1265"/>
      <point x="276" y="1219"/>
      <point x="276" y="1194" type="qcurve" smooth="yes"/>
      <point x="276" y="1152"/>
      <point x="318" y="1089"/>
      <point x="388" y="1038"/>
      <point x="482" y="994"/>
      <point x="534" y="972" type="qcurve"/>
      <point x="588" y="1006"/>
      <point x="661" y="1080"/>
      <point x="706" y="1157"/>
      <point x="726" y="1235"/>
      <point x="726" y="1274" type="qcurve" smooth="yes"/>
      <point x="726" y="1292"/>
      <point x="714" y="1352"/>
      <point x="672" y="1414"/>
      <point x="590" y="1469"/>
      <point x="520" y="1483" type="qcurve"/>
      <point x="534" y="1523" type="line"/>
      <point x="593" y="1524"/>
      <point x="710" y="1495"/>
      <point x="804" y="1434"/>
      <point x="863" y="1341"/>
      <point x="863" y="1278" type="qcurve" smooth="yes"/>
      <point x="863" y="1187"/>
      <point x="754" y="1009"/>
      <point x="627" y="930" type="qcurve"/>
      <point x="688" y="900"/>
      <point x="805" y="826"/>
      <point x="895" y="722"/>
      <point x="950" y="582"/>
      <point x="950" y="487" type="qcurve" smooth="yes"/>
      <point x="950" y="379"/>
      <point x="876" y="190"/>
      <point x="749" y="51"/>
      <point x="579" y="-30"/>
      <point x="482" y="-30" type="qcurve" smooth="yes"/>
      <point x="385" y="-30"/>
      <point x="235" y="40"/>
      <point x="133" y="158"/>
      <point x="80" y="316"/>
      <point x="80" y="404" type="qcurve" smooth="yes"/>
      <point x="80" y="471"/>
      <point x="121" y="604"/>
      <point x="196" y="727"/>
      <point x="303" y="836"/>
      <point x="370" y="879" type="qcurve"/>
      <point x="326" y="900"/>
      <point x="249" y="949"/>
      <point x="191" y="1013"/>
      <point x="158" y="1095"/>
      <point x="158" y="1150" type="qcurve" smooth="yes"/>
      <point x="158" y="1181"/>
      <point x="182" y="1248"/>
      <point x="232" y="1313"/>
      <point x="310" y="1370"/>
      <point x="364" y="1393" type="qcurve"/>
    </contour>
  </outline>
</glyph>
